<svg xmlns="http://www.w3.org/2000/svg" width="60" height="60" viewBox="0 0 400 421.3" fill-rule="evenodd"><path d="M204.8 2c-.3 1-.8 3-1.2 4-3.5 10.8-2 17.3 4.4 21l1.2.6V27c0-.4-.3-3-.6-6l-.6-5.5c0-.3.4 1.3 1.2 4.8l1 4c.2.6.4 1.5.4 2s.2 1 .3 1c.2.1 2-2.2 2-2.5 0-.1.2-.4.4-.7 2.2-3 2-8.6-.6-13.2l-3.4-5.2-2.8-4c-1.3-2-1.3-2-2 .5m86.5 42l-5.3 3c-9.2 5-13 8.4-14.6 13.5-.8 2.6-.6 8.6.3 10.4.1.2 1.8-1.7 4.8-5.5l5-6c.3-.3.5-.7-4 6.8l-3.8 6.4c.5.5 7-1.2 9-2.4 5.2-3 7.4-7.8 9-19.4l1-5.5c.5-2.4.6-2.3-1.2-1.2m-99.5 7.6c.1.2.3 3 .4 6 .4 11.2 1.5 15 5.2 18.6 2 2 8.4 5 9.2 4.3a74 74 0 0 0-2.7-6.1l-2.7-6a93 93 0 0 1 3.6 5.5c4 6.2 3.7 6 4.2 4.7 3.3-8.2.3-15.2-9.3-22l-5.2-3.7c-2.3-1.7-3-2-2.6-1.3M82.3 64l-.2 3c-2 9.8 1.4 18.3 8 20.3l1 .4c.5.2.5-.2-.2-2.3l-1.5-4.8c-1.3-4-1-4.2.5-.5 2.2 5 3.2 7 3.4 7 .1 0 .5-.8 1-1.8 2.8-5.8 1.4-11.2-4.2-16.8l-7.5-7c-.1 0-.2 1-.3 2.5m52.4 7.2c4 20.2 5.7 24 12.4 27.5 2.2 1 8.8 2.5 8.8 1.8a246 246 0 0 0-4.4-6.7c-2.4-3.6-4.3-6.5-4.2-6.4s2.5 2.7 5.2 6 5 5.7 5.2 5.7c.5 0 1-5.7.7-8-1-7-5-11-16.4-16.6l-6.4-3.3c-1-.7-1.2-.7-1 .1m119.6 6.2a62 62 0 0 1-2.1 4.1 131 131 0 0 0-4.3 8.6 18 18 0 0 0 3.8 21.4c1.6 1.6 1.7 1.6 1.7.3l1.8-17.3.1 3.2c0 1.8.1 3.8.1 4.5l.4 10.7c.1.1 3.6-3 4.2-3.8l.8-1c1.8-1.7 3.2-6 3.2-9.8 0-5-1-8.6-5.3-17.4l-1.8-4c-1-2.8-1-2.8-2.6.5M164 85c0 .1.2.7.4 1.3.3 1 1 4.3 1.4 6.4 2.6 15 8.3 22 18.4 22 1.5 0 2 1-3.5-7.3a186 186 0 0 1-4.4-6.7 201 201 0 0 1 3.6 4.1l5.2 6a184 184 0 0 1 1.5 1.7c1 1.3 1.5-.1 1.5-5.2 0-7.7-4.5-13-14.5-17.7l-8.3-4.2c-.8-.5-1-.6-1-.3M28.8 93c-.1.1.3 1 .8 2a117 117 0 0 1 2.4 5.5c7 17 14 22.5 25.6 20.3 1.7-.3 1.7-.3-.2-2l-11.6-11.2 15 11 .1-2c.2-6.3-2.6-12-7.6-15.5a44 44 0 0 0-16-6l-6.8-1.8c-.7-.2-1.4-.4-1.4-.2M292.3 96c-.4.8-1.5 3-2.5 4.8-6.3 11.3-7.5 16.7-5 22.8 1 2.6 5.4 8.4 6 7.7a128 128 0 0 0 .9-8.2c1-9.3 1-9.2 1.2 1.5l.3 6.8c.3 0 3-2.5 4-3.4 5.6-6.8 5.5-13-.4-25.8l-2.4-5.4c-1-2.7-1.2-2.7-2-1m97.3 23c-.8.1-3 .2-4.7.3l-10.4.7c-11 1.2-17.8 7.2-19.5 17.3-.2 1-.1 1 .3.8l15-7.3c2.5-1.2 2.2-1-2.4 2l-11.2 7.3c-.8.4-.6.6 1.8 1.4 6.4 2 13 1 17.2-2.3l4-3.6c0-.1.3-.5.8-1s1-1.2 1.4-1.7l1.6-2c.3-.4.6-1 .7-1s.2-.4.3-.4.2-.1.2-.3.1-.4.2-.4a18 18 0 0 0 2.1-3.2c0-.1.1-.2.2-.3a8 8 0 0 0 1.1-1.5l2-3c1.6-2.2 1.7-2-1-1.7M131.4 134c.1 14 1.7 19 7.4 22.8 2.4 1.7 7.6 3.5 7.4 2.6a47 47 0 0 0-1.5-4l-4-9.7c-.1-.3-.1-.3.3 0 .2.2.4.4.4.5a53 53 0 0 0 2.2 4l5 8.6.6-1.4c3.8-8 1-16.6-7.7-23.2L140 133c-.1-.1-.8-.6-1.6-1.3l-7-5.4a191 191 0 0 0 0 7.6m227 19c-11.6.8-18.7 5-22.7 13.6-1.3 2.7-2.4 6.6-2 6.6a481 481 0 0 0 10.7-4.2l10.6-4.2a374 374 0 0 1-9.6 5.5c-12 6.7-10.8 6-9.4 6.6 6.6 3 13.3 3.4 19 1 5.7-2.3 10.2-6.4 17.8-16.3l5.3-6.6c1-1 1.6-1.8 1.6-2 0-.2-18-.3-21.3-.1M0 170c0 .2.3.8.8 1.2 1.3 1.4 2.7 3.4 6.2 8.7 12.3 18.3 20 24 32 23.4 4.4-.2 11.8-2 12-2.8 0-.1-5.3-3.7-11.8-8l-11.5-7.5L53 196.5c-4-19-13-24.8-39.7-26l-12-.8c-1-.1-1-.1-1 .2m27.2 55l-3 .3c-3.2.4-8 1.3-13.6 2.7L4 229.5c-3.3.5-3.4.6-3.4.8 0 .1.4.5 1 1l1.3 1 12 10a48 48 0 0 0 4.6 3.3l2 1.3c9 6.2 20.8 6 30-.8 2-1.4 2-1.4.7-1.7l-6-1.8-17-5.4a752 752 0 0 1 14.7 2.4l7.3 1.2c2.7.5 2.8.4 2-1.2-4-8-10.7-13-18.4-14.2a56 56 0 0 0-7.5-.3m349.6 3.2a49 49 0 0 1-2.6.2c-14 .8-22.5 7.3-25.7 19.3l-.5 2c0 0 1.6-.5 3.4-1.3l15.2-6c3.3-1.4 5.3-2 3.6-1l-19 10.6c-.3.2-.7.4-.8.4-1.2 0-1 .7.3 1.3 13.7 6.2 25.6 1.8 37-13.5l7.6-9.7c1-1 1.7-2 1.7-2 0-.2-20-.3-20.2-.2" fill="#ef8824"/><path d="M246.4 2.2l-2.7 2.3c-2 1.5-5.4 4.6-6 5.2-4.3 5.2-5 9.4-2.8 15 .8 2 .7 2 3.5-3.4 3-5.7 3-5.8 1.8-2.5l-2 6c-.5 1.2-.7 2.2-.6 2.2.8 0 4.2-1.5 5.5-2.5 4-3 5.5-7.5 5-16.3V3c0-2 0-2-1.5-.7m-56.2 16.5l-1.3 4.5c-3 10.2-3 14.8 1 19 1 1 4 3.2 4.2 3 .1-.1-.1-2.5-.3-5.3l-.5-5.6c0-.3.6 2 1.3 5 1.5 6.4 1.3 6 2.7 4.3 4.4-6 3.8-11.5-2.2-19.7l-3.2-4.5c-1.2-2-1.5-2-1.7-.8m34.2 2.8c-.1.5-.7 2.6-1.3 4.6-3 10-2.8 15 1.3 19.2 1.2 1.3 4 3.3 4 3a93 93 0 0 0-.5-5.5l-.5-5.7c0-.2.6 1.8 1.2 4.5 1.7 7.4 1.4 7 3 4.8 4.6-6 3.7-11.4-3.7-21.6l-2.4-3.5c-.6-1-1-1-1 .1m-112 17.3l-.5 6c-1.3 11.8 0 18 4.7 22.3 1.8 1.7 7 4.4 7.7 4a74 74 0 0 0-2.1-7.4l-2.2-7.5a126 126 0 0 1 3.3 6.9c3.5 7.7 3.3 7.4 4 6.4 5-8.6 3-16-7-25.5l-5.7-5.5c-2.2-2.2-2.2-2.2-2.2.1m64 3.2l-3.8 4c-8.6 9-11 12.8-11 18.8 0 3.3 1.4 7.6 3.3 10.2.4.6.3.8 2.3-4.3L171 62c1-2.4.7-1.6-1.2 6.4L168 76c.5.5 5.4-2.5 7.4-4.5 4.7-4.8 5.5-10.3 3.4-23.3l-1-6c-.1-1.5-.4-1.5-1.3-.3m85.3.2l-5 4.2c-10.3 8.6-12.6 14-9.4 22.5l1 2.2c.2.1 1-1.5 5-9l2-3.4a175 175 0 0 1-2.4 6.7l-2.3 6.7c.6.6 6.3-2.4 8.2-4.3 4-4 5-8 4.3-22.5-.2-4.5-.1-4.3-1.3-3M337.4 63l-3.8 2.8c-9 6.3-12 10.4-11.8 16.8.1 2.6.8 5.6 1.5 6.3.1.1 1.7-2.3 3.6-5.4l3.6-5.8a72 72 0 0 1-3.6 8.2c-2 4.4-2 4.3 0 3.7 8.5-2.2 11.3-7.2 11.7-21.2l.3-6.3c.4-.7-.4-.3-1.7.7m-154.2 2.8c-.1.5-.7 2.7-1.4 5-3.5 11.5-2.3 17.5 4.3 21.3 1.4.8 1.3 1.3.7-5l-.5-5.7a48 48 0 0 1 1.3 5c1.5 6.7 1.3 6.3 2.7 4.5 5-6.7 4-11.3-4.2-22.7l-2-3c-.4-.8-.8-.7-1 .3m108 4.7c-.4.4-2.2 1.7-4 3-7 5-9.5 7.5-11 11a15 15 0 0 0 0 11.9c.5 1 .1 1.6 4.2-5l3.2-5c0 0-1 2.7-2.6 6-3 6.7-3 6.4.4 5.3 7.3-2.5 10.5-8 10.5-19a115 115 0 0 1 .2-5.5c.2-3.2.2-3.3-1-2.4M73 86.4c-.1.1 0 .5.1 1s.8 3.4 1.5 6.8c2.5 12.7 5 17.3 11 20.2 2.5 1.2 8.6 2.4 8.6 1.7 0-.1-2-3.2-4.4-6.8-4.6-7-4.6-7 .7-1a65 65 0 0 0 5.7 6.3c.8-.8 1-7.2.3-9.8-1.6-6-5.3-9.4-16.5-15l-6.2-3.2c-.4-.4-.6-.4-.8-.1M199 88c0 .3-.6 2.6-1.3 5-2.8 9.5-3 11-3 15 0 5.3 1.5 9 5 12.3 1.2 1 4.5 3.4 5 3.4.1 0-.3-3.4-.7-7.6l-1-8c0-.3 1 3 2 7.4 2.2 9 2 8.5 4 5.7 5.7-8 4.5-15-4.8-27.4l-3.8-5.3c-.6-1-1-1-1-.3m16.8 4c.2 1 .4 3.7.5 10.5.2 10.2.6 14 2 18.3 2.8 8.3 8.5 13.3 17.7 15.4 1.6.3 1.6.3 1-1.3l-4.7-10.7a35 35 0 0 0-.9-2l-2.4-5.6c-.6-1.4 0-.6 2 3l8 13.4c1.4 2.3 1.4 2.3 2 .3 5.2-13.8 1-23-16.6-35.4l-8-6c-.4-.5-1-.4-1 .2m132.8 15.6a64 64 0 0 1-6.1 5.6c-8.8 7.6-12.3 11.7-14.5 17-2.2 5.3-1.7 11.4 1.3 17.5 1 2 1 2 2.3-.8l7.8-15.5c-.1.3-1.5 4.7-3.2 9.7l-3 9.3c0 .3 2.5-.6 4.7-1.6 10-4.7 13.5-13 12.2-29.2-.2-2.7-.5-6.6-.5-8.6-.1-3.5-.4-4.6-1-3.5m-246 13a131 131 0 0 1-2.5 5.9c-4.2 9.2-5 12.2-5.4 17-.4 6 2.7 12.4 7.8 16l1 .7.1-.7a213 213 0 0 0 .3-9.1c.1-4.6.2-8.2.3-8a165 165 0 0 1 1 9 74 74 0 0 0 1.1 8.7 24 24 0 0 0 4.5-4.8c5-7.5 4-15-3.7-28.8l-2.6-5c-1.3-2.6-1.3-2.6-2-.8m87.8 3.2c-.8.6-3 2.2-5 3.4-16.4 10.3-21 15.7-21.5 25.2-.2 3.3 1.2 11 2 11 .1 0 3-4 6.4-9l6.4-9c.1 0-.5 1.2-5.6 11-5 9.8-4.7 8.7-3.2 8.5 14-1.8 20-10.3 21.5-31.5l.7-7.7c.5-3.5.5-3.5-1.7-2m124.4 1.5a165 165 0 0 1-4.4 6.1c-10.6 14-12.6 21.6-8.2 30.7a28 28 0 0 0 4.2 6.3c.3.3.6-.8 2.8-9.8l2.6-10c.1.1-2 18.3-2 19.8-.2 1 .1 1 2.7-.8 10.6-7 12.2-15.6 6.5-34.8a156 156 0 0 1-2-7.3c-.5-2.2-.6-2.2-2-.2M44 164c-.1.1.3.7 1 1.3 1 1 2.8 3.4 7.2 9 10.4 13.5 19.2 17 30.8 12.6l2.4-1c0-.1-2-1.2-4.2-2.5L67 175a204 204 0 0 1 3.4 1.4l15 6c1.3.6 1.3.6 1.3 0 0-2-2.8-8-4.8-10.5-5-6-10.5-7.8-24.3-8H47c-1.5 0-2.8 0-2.8.1m354.2 15.8h-10.6c-15.7-.2-21.7 1-28.2 5.3-4.7 3.2-9.2 10.4-10.2 16.3l-.1 1 24-9.6a757 757 0 0 1-11.2 6.3l-11.2 6.4c0 .5 5.6 2.5 8.7 3 11.7 2.3 20.4-2.8 32.8-19l6.5-8c1.5-1.6 1.4-1.8-.6-1.6m-76.4 2.4c-1 .5-4 2-6.8 3-17.7 7.6-23.4 14.4-22.2 26.4.4 4.5.3 4.4 2.2 2.4l12-12.4c.7-.8 1-1 1-.7l-12 16.5c0 .4 5.7-.1 7.8-.7 9.4-2.4 14-9 17.8-24.3l2-7.5c1-4 1-4 .7-4-.2 0-1 .5-2 1m-223.7 4.3c-.3 1.5 0 18.4.3 20.2 1.5 8.3 5.6 13 13 15.4 1 .3 2 .6 2.2.5s-1.2-3.7-3-8l-3-8c0 0 2 3.3 4.3 7.5a123 123 0 0 0 4.4 7.6c.2 0 1.5-3.2 2-5 .6-2.3.6-7-.1-9.2-1.6-5.2-5-9-14-16l-4.4-3.6c-1-1-1.6-1.4-1.6-1.2m237.6 32c-12.7 1-20.2 7-23 18.4-.4 1.6-.8 1.7 5-.7L334 230c0 0-1.5 1-3.4 2l-14.7 8.3c-2.2 1.2-2.2 1-.1 2 13.2 5.6 22.6 1.5 35.3-15.3l5-6.3c.8-1 1.4-1.7 1.4-1.8a305 305 0 0 0-21.8-.1M58 234.2c0 0 .3.4.7.7l.7.7-.7-.7c-.6-.7-.8-1-.8-.7m30 40.7c-5.8.8-11.6 4.5-21.5 13.8-.5.5-1.7 1.5-2.7 2.2-2.2 1.6-2.2 1.8-.2 2a95 95 0 0 1 6.6 1.2c16.7 3.5 23.6 2.6 29.7-4 1.7-1.8 5-7.2 4.7-7.6a311 311 0 0 0-9.8 1.9 381 381 0 0 1-9.8 1.9c-.1-.1 1.3-.5 12.5-4.3 3.4-1.2 6.2-2.2 6.3-2.3 0-.3-3.4-2.4-5.3-3.2-3.5-1.5-7.2-2-10.5-1.6m219.4 5.7c-2.6.3-7.2 2-6.7 2.5a243 243 0 0 0 7.1 3.9l6.4 3.6-14.6-5.3a18 18 0 0 0 2 5.6c3.8 6.7 10 9 23.4 8.3l6.8-.1c1.4.2 1.5-.1.2-1.4a99 99 0 0 1-4.1-4.9c-8.2-10-13.2-13-20.4-12.2m-187 16c-5.2 1.2-8.8 4-15 12-1.6 2-3.4 4-4 4.8s-1.2 1.4-1 1.4c.4.4 18.5.2 20.4-.3 5.7-1.5 9-4 11.3-8.7.8-1.5 2-4.7 1.7-5a83 83 0 0 0-5.6 2l-9 3.3a205 205 0 0 1 6.8-3.7l6.8-3.8c0-.2-2.6-1.4-4.3-2a20 20 0 0 0-7.7-.3m25.8 12.4c-4.7 1.4-8.2 4.4-14 11.7-1.5 2-3.3 4-4 4.8-1.6 1.7-2.2 1.5 6.6 1.7 13.3.3 18.2-1 22.2-6.3 1.5-2 4-7.3 3.4-7.7a204 204 0 0 0-13 4.8l-1.8.6a202 202 0 0 1 6.8-3.7c7.5-4 7.2-3.8 6-4.4-3.5-1.8-9-2.4-12.2-1.3m92.2 0c-3 .8-5.7 2.2-4.4 2.2.1 0 1 .5 2.2 1l10.4 5.5c2 1 1.8 1-7.8-2.6l-6-2c-.1.1.2 1 .5 2 2.5 7.5 7.3 11 15.8 12 2.3.2 17 .1 17-.2 0-.1-.4-.5-1-1l-5-6c-8-9.8-14.2-13-22-10.8" fill="#33b04b"/><path d="M211 37c-.1.3-.8 2.7-1.5 5.2-3.5 11.6-2.5 16.7 4 21 1.6 1 1.5 1.4 1-4l-.6-6c-.1-1 .4.8 2 7.4.8 3.5.8 3.4 2 1.8 4.7-6.2 4-11.6-3-21l-3-4c-.6-1-1-1-1-.2m-102.6 33a85 85 0 0 1-2.9 4.9c-6.7 10.6-8.2 16.5-5.8 22.8 1 2.3 4.7 7.5 5 7 0 0 .6-3.6 1.3-8l1.3-7.8-.3 16 1-.8c8.6-6 9.7-13.8 4-28.3-.8-2-1.7-4.3-2-5.4-.8-2.4-1-2.5-1.8-.7m233.7 20c-.4.2-3.4 1.3-6.7 2.4-12.5 4.3-17 8-19 14.7-.7 2.5-.7 8-.1 8a123 123 0 0 0 4.6-4l7.3-6.2-10.2 12a28 28 0 0 0 7.7-.3c7-2 10.5-6.3 15-19.5l2.2-6.2c.5-1 .2-1.4-.8-1M155 105.2c-.1.3-1.2 2.8-2.5 5.4-6.2 13-7 18.4-3.2 24.7a29 29 0 0 0 5.3 5.7c.3 0 .4-2 .8-9.8l.4-6a162 162 0 0 1 .7 7.9l.8 8c.3.3 4-4 5-5.5 3.4-5.8 2.8-12-2-21.4l-4.4-9c-.2-.7-.7-.6-1 .1m-86.2 4c-.1.2-.2 1.4-.2 2.7s-.3 4.2-.6 6.4c-1.6 14.2.2 21 6.6 26 2.2 1.6 7.4 4 7.4 3.5a496 496 0 0 0-2.6-8.9l-2.6-8.8a260 260 0 0 1 3.8 8.3l4 8.4c.1 0 .7-1 1.3-2.4 4.6-9.6 2-17.8-8.8-27.7l-8.2-7.5m194.6 56l-12 1.4c-1 .1-1.7.2-1.7.2a218 218 0 0 0 13.4 13c6.4 4.5 12.3 5 18.7 2l2.2-1.3c0-.1-3.4-1.7-7.5-3.4l-7.5-3.3c0 0 3.6 1 8 2.2l8 2.2c.2-.2-1.5-4-2.6-5.5-3.7-5.6-10.4-8-19-7.3M42 212.4c-.1.1.5 1 1.2 2s3 4 5 7.2C59.6 238 66 243 76.6 243c4 0 12-1.7 12-2.6 0-.1-2.6-2-5.8-4l-15.4-10a1310 1310 0 0 1 11.5 5.5l11.4 5.2c.7-.7-2.2-9-4.3-12-5.5-8.2-13.5-11.2-31.6-12l-11.5-.8c-.4-.1-.7 0-.8.1m224.4 84.3c-2.2.5-6 2-5.7 2.3a407 407 0 0 0 7 3.8l7 3.8c.1.1-3.3-1.2-7.4-2.7l-7.6-2.8c0 0 .2 1 .5 2 2 6.2 5.8 9.8 12 11.5l2.2.6 18.6-.2c.1-.1-.4-.7-1-1.4l-4-4.7c-8.3-10.3-14-13.6-21.5-12" fill="#748bd4"/><path d="M159.7 20.7c-.2.5-1.2 2.4-2.2 4.2-5.8 10.3-6.4 15-2.7 20.6 1 1.5 3 3.8 3.3 3.6a193 193 0 0 0 .7-6.4l.7-6.3.3 9.6c0 3.7 0 3.6 2 1.6 6-5.5 6-10.8.7-22.8l-1.8-4.2c-.4-1-.5-1-1 .1m96.2.5l-3.2 2.8c-7.5 6-10.2 11-9 16.5.3 1.6 1.5 4.7 1.8 4.7a65 65 0 0 0 2.7-5l2.7-5a295 295 0 0 1-3.5 9.8c-.4 1-.3 1 1.6.4 5.4-1.8 8.2-5.8 8.8-12a93 93 0 0 0-.4-13.4c-.1 0-.7.6-1.5 1.3M133.7 44c-.1.1 0 .5.2 1a71 71 0 0 1 1.1 5.2c2 9.8 3 13.2 5.4 16.8 2.7 4 8 6.7 13.3 6.7h1.4l-4.6-7c-2.5-3.8-4.3-6.6-4-6.3a1855 1855 0 0 1 5.4 6.2 81 81 0 0 0 5 5.5c.7-.4 1-7 .4-9.6-1.4-6-5.3-9.5-16.3-15l-6-3.2c-1-.6-1-.6-1.2-.4m101.6 12.4a81 81 0 0 1-3.9 3.4c-12 10-14.5 16.3-10.2 24.8.7 1.4.5 1.5 2.7-2.7l4.5-8-4.4 12.7c.5.5 5.8-2 7.5-3.6 4.6-4 5.5-8.6 5-22.6-.2-4.7-.2-4.7-1-3.8m73.3 9.6c-.3.7-1.2 2.4-2 3.7-7 12-8 17-5 23.4 1 2 4 5.8 4.7 5.8.1 0 .4-2 .7-4.7a527 527 0 0 1 .9-7.7l.4-3v5.6a78 78 0 0 0 .4 9.8c.5.5 4.6-3.8 5.8-6.2 3-5.8 2.4-10.4-3.2-23.3l-1.5-3.7c-.4-1.3-.7-1.2-1.4.2M127 85.7l-2.7 4.5c-8 12.6-9.4 18.6-6.3 25.5 1.4 3 5 7.6 5.3 6.5a384 384 0 0 0 1.4-8.8l1.4-8.4a438 438 0 0 1-.2 8.8l-.1 9c.4.4 4.6-3.3 6-5.3 4.5-6.3 4.3-12.7-.8-25.6l-2.2-5.8c-.8-2.3-.8-2.3-2-.3m133 31.8c-.1.1.1 1 .3 2l1 7.2c2 15.7 4.6 22 10.8 26.7a26 26 0 0 0 12.9 4.4c1 0 1 .5-2.6-5.7l-7.8-13c-.6-1 1.2 1.2 3.6 4.3l10 12.6c.6.8 1.5-5 1.5-8.8-.1-10.2-4.8-15.8-20.8-24.7l-7-4c-1.6-1-1.7-1-1.8-1M23.6 128.3c0 .1.7 1 1.6 2L29 135c8 10.7 12 14.4 18 16.7 5 2 11 1.5 16.8-1 1.6-.7 1.8-.5-2-2.7L46.2 139c-.1-.1 1 .3 2.2.8l16 6.5c2.2 1 2 1 1.4-1.6-3.3-11.6-10.8-16.3-26.4-16.5H23.6m148 44c-8 1-12.6 4.3-15.2 11-.8 2-1 2 1.6 1.2l13.4-3.7a42 42 0 0 1-3.3 1.5l-11.3 5c0 .1 1 .7 2 1.2 6.5 3.2 12.6 2.6 18.8-2 1.6-1 13-12.3 13-12.7 0 0-1-.2-2-.2a219 219 0 0 1-6.4-.7c-4.4-.5-9.2-.8-10.8-.7M63 252c-6.2 1.2-11 3.5-20.6 9.7l-9 5.6c-1.5.8-1.6 1-.4 1.5l9.8 3.4c18 6.7 26.2 7 35 1.4 2.6-1.6 9-8.8 8.5-9.4a596 596 0 0 0-12.7.5l-13 .5c-.2 0 5-1 11.7-2.2l13.6-2.4-1-1c-5.8-6-14.4-9-21.8-7.4M331 262.2c-1.8.3-4.6 1.3-6.4 2.2-1.5.8-4.8 3.2-4.8 3.5a164 164 0 0 0 9.4 2.6l9.3 2.5a340 340 0 0 1-9.5-1.1l-9.7-1c-.6 0 2.5 4.6 4.4 6.5 6.3 6.3 13.3 7 29 2.5l7-2c2-.3 1.8-.6-.3-2a116 116 0 0 1-5.1-3.7c-10.7-8.2-17-11-23.4-9.8" fill="#d2a618"/><path d="M249.7 142.6l-10.5 14c-2.7 3.5-7.5 8.4-9.5 9.6-2.6 1.7-4 1.7-7.7.1-8-3.5-21.3-15-24.6-21.5-1-2-.7.1.7 3.7a55 55 0 0 0 24.7 27.1c3.4 2 4.7 3.5 6 7.3 1.5 4.5 2 12.7 1.5 19l-.4 3.4a63 63 0 0 1-6.7 23.6c-7 11.7-18.7 21-23.8 19-2.4-1-1-4.7 5.5-13.7 11.4-16 15.3-25.4 14.8-35.4l-.1-1-1.5 3.3c-2.4 5.6-6.4 13-8.7 16-9.2 12.5-18 15.5-22.4 7.7a42 42 0 0 1 2.9-39.3c1.6-2 1.5-2.2-.5-1.2-3 1.4-6.6 5.6-9 10.5a51 51 0 0 0-1.4 43.2l1 2c.3.7-3.3-.5-5.5-1.8-11-6.7-19.7-25-21.7-45.4l-.3-2.2a149 149 0 0 1 2.6-37.6l.5-3c-.2-.2-2.2 2.6-3 4.3-1.8 3.6-2.5 6.3-4.7 17-2 10-3.5 13.5-6.3 15-4.8 2.5-24.6-6-36.7-15.8l-1.3-1c-1.6-1.3-3.6-3-6-5.3-3-3-3-3-2.2-1a42 42 0 0 0 12 16.5l1.3 1a129 129 0 0 0 16.5 10.5l4.7 3c8.6 5.3 12.7 10.2 14.4 17.3l1.2 4.6c5.8 21.7 5.2 28-2.7 29a56 56 0 0 1-40.8-15.1l-10.6-10.7a78 78 0 0 1-4.4-5.5c-1-1.4-2-2.5-2-2.4a41 41 0 0 0 3.8 10.2l1 1.7c0 .2 3.7 5.7 5 7.4 6.3 8.2 13.4 15 24 22.5 5 3.6 14 8.3 18.5 9.7 1.5.5 1.7.8.7 1.8-2.6 2.6-19 2.8-31 .2l-3.3-.7a60 60 0 0 1-9-3c-1.5-.8-1.6-.6-.5 1 2.8 4 10 8 20.8 11.3l26 8a90 90 0 0 0 2.2.8c17.8 6 30 17.7 33.7 32.5 3.4 13.7-1.5 42.4-11.2 65.2l-9.3 18a92 92 0 0 1-14.3 18.1c-1.6 1.5-2.8 3-2.8 3a5925 5925 0 0 0 54 .1l54-.2c0-.1-.5-.8-1-1.7-9.2-13.7-16-32-20.2-53.3-.4-2.3-1.7-11-1.8-13l-.2-2.4c-1-7.6-1-24.6.1-34.3 1.6-15 10.5-24.4 28-29.3 6.2-1.8 10.3-2.6 24.5-5 16.4-2.6 23.3-5.2 27.4-10.3 1-1.4 1.2-1.4-2.8-1-12.5 1-25 0-30.2-2.6-5.4-2.7-4.4-5 4.5-9.8l9-5c.2 0 7.8-5 8-5.3.1-.1.5-.4 1-.7l1-.8c.1-.1.8-.6 1.4-1a38 38 0 0 0 12.1-16.6c.4-1.4.5-1.4-1.2-.3a241 241 0 0 1-9.2 5.6l-2 1c-1.3.8-10 5-12.4 6.2-13.7 6.3-31 11-35 9.3-3.3-1.4.7-7 10-14a90 90 0 0 0 33.6-51c1-5 1.7-13.3 1.2-15.4l-.2-1-.2 1a142 142 0 0 1-6.2 19.5l-1 2c-9 20.6-24 34-38.3 34.4-3.5.1-5-4.2-5.8-16l-.6-9.4c-.7-11.4-1.8-18.3-3.7-23-1.2-3-.1-6.5 4-12.6l2.5-4c4.3-6.8 6.7-12.7 7.3-18 .2-1.8 0-1.7-1.6.7m-27-.7c-5.8 3.6-1.3 17.4 5.3 16.4 3.8-.6 5.2-6.8 2.6-12.2-1.7-3.7-5.5-5.7-8-4.2m-97.8 19c-6.4 3.2-1.8 15.7 6.7 18.2 10 3 11-10.6 1.5-17-2.7-1.8-6-2.3-8.2-1.3m132 30.6c-4 1.5-7.2 8.4-6.4 14 1.3 9.6 11 9.2 14.2-.5 2.8-8.2-1.6-15.7-7.8-13.4m-57.8 3c-3 1-5.4 4.6-6.5 9.4-2 9 5.6 15 11.2 9 7-7.5 3.4-21.4-4.7-18.5m-70.4 25c-7 1.7-4.5 14 3.8 18 8.6 4.2 13.3-4.2 7-12.6-2.7-3.7-7.5-6-11-5.2m152.5 1.7c-8 3-10 15-2.7 15 7 0 12.6-10.8 7.6-14.7-1-1-3.2-1-5-.4" fill="#4c342c"/><path d="M343.4 235.8l-.7.7.7-.7c.7-.6.8-.8.7-.8 0 0-.4.3-.7.7" fill="#305c1c"/></svg>