<svg id="svg" version="1.1" width="400" height="421.3302752293578" viewBox="0 0 400 421.3302752293578" xmlns="http://www.w3.org/2000/svg" xmlns:xlink="http://www.w3.org/1999/xlink" ><g id="svgg"><path id="path0" d="M204.816 2.007 C 204.525 3.111,204.004 4.891,203.658 5.963 C 200.167 16.789,201.521 23.297,208.015 26.905 L 209.174 27.549 209.172 26.905 C 209.170 26.551,208.913 23.888,208.600 20.986 C 208.286 18.085,208.036 15.608,208.044 15.482 C 208.061 15.190,208.473 16.799,209.277 20.298 C 209.625 21.812,210.043 23.567,210.206 24.197 C 210.370 24.828,210.570 25.727,210.650 26.196 C 210.731 26.665,210.884 27.101,210.989 27.166 C 211.159 27.272,213.073 24.938,213.073 24.625 C 213.073 24.555,213.271 24.219,213.513 23.879 C 215.733 20.762,215.478 15.244,212.903 10.665 C 211.602 8.352,211.369 7.995,209.537 5.505 C 208.563 4.180,207.303 2.400,206.738 1.548 C 205.446 -0.401,205.451 -0.402,204.816 2.007 M291.325 43.956 C 290.653 44.398,288.279 45.740,286.050 46.938 C 276.872 51.870,273.101 55.366,271.495 60.436 C 270.679 63.010,270.845 69.068,271.779 70.829 C 271.884 71.027,273.537 69.140,276.601 65.325 C 279.166 62.131,281.366 59.415,281.491 59.289 C 281.784 58.993,281.997 58.636,277.477 66.041 C 275.364 69.503,273.660 72.360,273.690 72.391 C 274.223 72.924,280.556 71.207,282.576 69.982 C 287.757 66.840,289.946 62.163,291.633 50.631 C 291.943 48.519,292.352 46.042,292.542 45.127 C 293.046 42.713,293.114 42.779,291.325 43.956 M191.848 51.547 C 191.932 51.768,192.098 54.425,192.216 57.453 C 192.652 68.643,193.691 72.396,197.377 76.094 C 199.501 78.224,205.813 81.190,206.584 80.419 C 206.648 80.355,205.451 77.596,203.923 74.288 C 202.395 70.981,201.183 68.236,201.231 68.188 C 201.278 68.141,202.895 70.635,204.825 73.730 C 208.677 79.907,208.518 79.728,209.020 78.472 C 212.314 70.240,209.368 63.314,199.690 56.537 C 198.068 55.401,195.728 53.724,194.488 52.810 C 192.195 51.118,191.568 50.819,191.848 51.547 M82.265 64.041 C 82.185 65.464,82.078 66.835,82.027 67.087 C 80.047 76.874,83.417 85.378,90.067 87.374 C 90.421 87.480,90.892 87.640,91.112 87.730 C 91.659 87.952,91.633 87.564,90.954 85.393 C 90.646 84.407,89.963 82.228,89.437 80.549 C 88.168 76.496,88.329 76.345,89.975 80.046 C 92.140 84.914,93.201 87.149,93.349 87.153 C 93.412 87.154,93.848 86.356,94.319 85.378 C 97.101 79.598,95.743 74.213,90.070 68.528 C 87.648 66.100,82.863 61.615,82.591 61.518 C 82.492 61.482,82.345 62.618,82.265 64.041 M134.704 71.273 C 138.654 91.450,140.450 95.418,147.133 98.728 C 149.295 99.799,155.963 101.191,155.963 100.572 C 155.963 100.506,153.994 97.501,151.587 93.894 C 149.180 90.287,147.309 87.396,147.430 87.471 C 147.550 87.545,149.905 90.188,152.661 93.344 C 155.418 96.500,157.740 99.083,157.821 99.083 C 158.366 99.083,158.858 93.338,158.508 91.055 C 157.431 84.017,153.641 80.182,142.119 74.474 C 139.109 72.983,136.247 71.511,135.759 71.203 C 134.639 70.496,134.553 70.501,134.704 71.273 M254.324 77.471 C 253.612 78.950,252.653 80.780,252.193 81.537 C 251.434 82.786,248.735 88.159,247.872 90.138 C 244.383 98.140,245.714 105.621,251.677 111.524 C 253.272 113.103,253.336 113.116,253.404 111.869 C 253.434 111.333,253.602 109.656,253.778 108.142 C 253.955 106.628,254.168 104.667,254.252 103.784 C 254.337 102.901,254.589 100.476,254.813 98.394 L 255.219 94.610 255.270 97.821 C 255.298 99.587,255.352 101.600,255.390 102.294 C 255.428 102.987,255.524 105.665,255.603 108.245 C 255.683 110.824,255.780 112.966,255.819 113.005 C 255.965 113.151,259.391 110.077,260.014 109.241 C 260.371 108.763,260.715 108.320,260.779 108.257 C 262.556 106.510,263.991 102.121,263.991 98.438 C 263.990 93.581,262.851 89.829,258.723 81.078 C 258.247 80.069,257.457 78.238,256.968 77.010 C 255.859 74.227,255.889 74.222,254.324 77.471 M163.993 85.034 C 163.995 85.129,164.154 85.722,164.348 86.353 C 164.659 87.367,165.358 90.614,165.718 92.720 C 168.305 107.865,174.007 114.679,184.091 114.679 C 185.636 114.679,186.059 115.563,180.609 107.401 C 178.018 103.520,176.043 100.499,176.221 100.688 C 176.687 101.182,178.605 103.371,179.851 104.829 C 180.438 105.516,181.109 106.296,181.342 106.561 C 181.575 106.827,182.334 107.699,183.028 108.498 C 183.721 109.298,184.613 110.319,185.010 110.767 C 185.406 111.216,186.071 111.980,186.487 112.466 C 187.595 113.759,187.972 112.402,187.941 107.225 C 187.895 99.567,183.463 94.177,173.394 89.536 C 171.333 88.586,166.003 85.888,165.138 85.357 C 164.290 84.837,163.989 84.752,163.993 85.034 M28.782 93.124 C 28.712 93.237,29.062 94.140,29.560 95.130 C 30.058 96.121,31.156 98.577,32.000 100.587 C 39.079 117.454,46.125 123.042,57.577 120.870 C 59.255 120.552,59.258 120.583,57.335 118.729 C 56.391 117.820,53.400 114.925,50.688 112.295 L 45.757 107.515 49.197 110.046 C 51.089 111.438,54.444 113.917,56.651 115.554 L 60.665 118.531 60.733 116.671 C 60.962 110.348,58.166 104.666,53.104 101.167 C 49.517 98.687,46.012 97.380,37.068 95.184 C 34.026 94.437,30.945 93.621,30.223 93.372 C 29.500 93.122,28.852 93.010,28.782 93.124 M292.251 95.913 C 291.889 96.710,290.762 98.863,289.746 100.698 C 283.490 111.991,282.264 117.440,284.613 123.522 C 285.622 126.136,290.062 131.872,290.601 131.258 C 290.688 131.159,291.109 127.466,291.537 123.050 C 292.440 113.731,292.515 113.824,292.777 124.599 C 292.868 128.351,292.995 131.422,293.059 131.422 C 293.353 131.422,296.179 128.950,296.965 128.004 C 302.590 121.246,302.503 114.878,296.611 102.179 C 295.791 100.413,294.729 97.990,294.250 96.794 C 293.187 94.140,293.078 94.092,292.251 95.913 M389.564 118.813 C 388.807 118.909,386.692 119.053,384.862 119.132 C 379.930 119.345,378.061 119.475,374.427 119.861 C 363.388 121.032,356.610 127.033,354.935 137.119 C 354.782 138.039,354.801 138.098,355.194 137.895 C 355.862 137.549,366.229 132.539,370.281 130.603 C 372.756 129.421,372.492 129.644,367.890 132.618 C 366.818 133.311,363.979 135.166,361.583 136.740 C 359.186 138.314,356.993 139.726,356.709 139.878 C 355.868 140.327,356.076 140.483,358.544 141.255 C 364.916 143.251,371.415 142.375,375.768 138.934 C 377.320 137.707,379.817 135.506,379.819 135.363 C 379.820 135.277,380.159 134.845,380.573 134.404 C 380.987 133.962,381.631 133.188,382.005 132.684 C 382.886 131.493,382.934 131.431,383.607 130.619 C 383.920 130.241,384.235 129.751,384.306 129.530 C 384.377 129.309,384.531 129.128,384.648 129.128 C 384.766 129.128,384.862 128.982,384.862 128.804 C 384.862 128.625,384.940 128.444,385.034 128.402 C 385.267 128.299,387.156 125.475,387.156 125.232 C 387.156 125.125,387.242 125.004,387.347 124.962 C 387.452 124.920,387.929 124.266,388.406 123.509 C 388.884 122.752,389.830 121.403,390.509 120.512 C 392.153 118.352,392.221 118.475,389.564 118.813 M131.369 134.002 C 131.480 147.932,133.099 152.925,138.761 156.802 C 141.199 158.471,146.324 160.277,146.145 159.404 C 146.067 159.023,145.081 156.465,144.598 155.390 C 144.334 154.803,141.023 146.646,140.641 145.642 C 140.529 145.347,140.565 145.343,140.897 145.613 C 141.110 145.786,141.284 146.025,141.284 146.145 C 141.284 146.264,142.284 148.083,143.507 150.188 C 144.729 152.292,146.352 155.088,147.113 156.400 L 148.498 158.787 149.130 157.427 C 152.882 149.363,150.052 140.805,141.471 134.267 C 140.675 133.660,139.971 133.107,139.908 133.038 C 139.845 132.969,139.123 132.402,138.303 131.778 C 137.483 131.153,135.608 129.683,134.136 128.509 C 132.664 127.336,131.426 126.376,131.384 126.376 C 131.342 126.376,131.335 129.808,131.369 134.002 M358.257 153.002 C 346.674 153.801,339.538 158.063,335.557 166.558 C 334.284 169.276,333.176 173.165,333.676 173.165 C 333.781 173.165,338.598 171.256,344.381 168.923 C 350.164 166.590,354.923 164.709,354.956 164.742 C 354.990 164.775,350.650 167.257,345.312 170.257 C 333.462 176.916,334.499 176.191,335.909 176.831 C 342.507 179.828,349.220 180.205,354.957 177.902 C 360.666 175.609,365.132 171.520,372.778 161.583 C 374.817 158.933,377.183 155.973,378.036 155.003 C 378.889 154.033,379.587 153.156,379.587 153.053 C 379.586 152.820,361.522 152.776,358.257 153.002 M-0.000 170.039 C -0.000 170.244,0.342 170.799,0.760 171.272 C 2.036 172.717,3.437 174.666,6.982 179.931 C 19.323 198.260,26.874 203.808,38.876 203.368 C 43.230 203.208,50.663 201.460,50.761 200.573 C 50.774 200.447,45.474 196.898,38.982 192.686 C 32.490 188.473,27.334 185.085,27.523 185.157 C 27.712 185.228,33.417 187.926,40.199 191.152 C 53.372 197.418,53.047 197.281,52.879 196.502 C 48.785 177.579,39.731 171.681,13.188 170.644 C 7.295 170.414,3.949 170.183,1.089 169.808 C 0.178 169.689,-0.000 169.727,-0.000 170.039 M27.179 224.896 C 26.927 224.933,25.636 225.085,24.312 225.233 C 21.110 225.591,16.166 226.580,10.743 227.948 C 8.304 228.563,5.224 229.243,3.899 229.459 C 0.551 230.005,0.459 230.027,0.459 230.276 C 0.459 230.398,0.896 230.783,1.431 231.132 C 1.965 231.481,2.559 231.889,2.749 232.039 C 5.106 233.890,4.992 233.796,9.015 237.201 C 13.057 240.621,12.860 240.458,14.794 241.996 C 16.375 243.254,16.718 243.498,19.404 245.277 C 20.148 245.770,21.037 246.363,21.379 246.596 C 30.454 252.767,42.209 252.461,51.308 245.817 C 53.261 244.391,53.253 244.409,52.007 244.106 C 51.471 243.976,48.813 243.179,46.101 242.336 C 40.441 240.576,37.000 239.516,34.060 238.629 C 30.738 237.627,28.762 236.956,29.086 236.941 C 29.314 236.930,39.599 238.603,43.807 239.335 C 44.123 239.390,44.781 239.498,45.270 239.576 C 45.759 239.653,46.374 239.758,46.637 239.808 C 46.900 239.859,47.480 239.958,47.927 240.029 C 48.373 240.099,49.803 240.338,51.104 240.561 C 53.846 241.029,53.885 241.006,53.073 239.401 C 49.063 231.473,42.336 226.301,34.633 225.225 C 32.907 224.984,28.038 224.769,27.179 224.896 M376.771 228.111 C 376.743 228.132,375.585 228.215,374.197 228.295 C 360.344 229.091,351.721 235.581,348.504 247.634 C 348.209 248.742,347.997 249.679,348.034 249.716 C 348.071 249.753,349.587 249.171,351.402 248.421 C 353.217 247.672,356.456 246.367,358.601 245.521 C 360.745 244.675,362.810 243.852,363.188 243.691 C 363.567 243.530,364.341 243.224,364.908 243.011 C 365.476 242.797,366.250 242.489,366.628 242.325 C 369.919 240.899,371.933 240.281,370.238 241.217 C 369.767 241.478,368.213 242.348,366.785 243.151 C 365.358 243.953,363.449 245.024,362.542 245.531 C 358.915 247.558,358.400 247.849,357.165 248.574 C 356.459 248.989,354.997 249.803,353.915 250.384 C 352.834 250.966,351.676 251.633,351.341 251.867 C 351.006 252.102,350.639 252.294,350.524 252.294 C 349.358 252.294,349.510 252.974,350.806 253.555 C 364.545 259.715,376.366 255.382,387.724 240.023 C 388.097 239.518,388.664 238.782,388.984 238.387 C 389.303 237.992,389.787 237.372,390.059 237.011 C 390.331 236.649,391.027 235.734,391.605 234.977 C 392.183 234.220,392.890 233.294,393.175 232.919 C 393.460 232.544,394.441 231.391,395.356 230.358 C 396.270 229.324,397.018 228.393,397.018 228.287 C 397.018 228.137,376.964 227.962,376.771 228.111 " stroke="none" fill="#ef8824" fill-rule="evenodd"></path><path id="path1" d="M246.426 2.241 C 245.785 2.837,244.555 3.893,243.692 4.587 C 241.820 6.092,238.332 9.190,237.833 9.791 C 233.487 15.023,232.698 19.190,235.008 24.723 C 235.800 26.620,235.690 26.728,238.505 21.278 C 241.430 15.615,241.571 15.428,240.350 18.822 C 239.831 20.265,239.323 21.703,239.221 22.018 C 239.118 22.334,238.665 23.598,238.214 24.828 C 237.763 26.058,237.479 27.064,237.583 27.064 C 238.429 27.064,241.736 25.573,243.095 24.579 C 247.182 21.591,248.568 17.104,248.140 8.240 C 248.046 6.294,247.962 3.902,247.953 2.924 C 247.933 0.837,247.934 0.837,246.426 2.241 M190.257 18.746 C 190.169 19.217,189.586 21.255,188.961 23.276 C 185.819 33.435,186.073 38.029,190.017 42.394 C 190.989 43.470,193.962 45.564,194.191 45.335 C 194.278 45.248,194.122 42.882,193.846 40.077 C 193.569 37.272,193.351 34.771,193.361 34.518 C 193.371 34.266,193.966 36.504,194.683 39.492 C 196.221 45.904,196.028 45.596,197.371 43.772 C 201.759 37.816,201.140 32.293,195.162 24.083 C 194.014 22.506,192.594 20.473,192.007 19.565 C 190.791 17.683,190.484 17.539,190.257 18.746 M224.462 21.504 C 224.386 21.978,223.798 24.068,223.155 26.149 C 220.038 36.228,220.368 41.199,224.427 45.301 C 225.674 46.562,228.361 48.557,228.547 48.360 C 228.589 48.316,228.374 45.854,228.071 42.890 C 227.767 39.925,227.547 37.346,227.581 37.158 C 227.615 36.970,228.148 38.983,228.765 41.631 C 230.495 49.057,230.168 48.523,231.722 46.461 C 236.300 40.384,235.377 35.053,227.985 24.885 C 226.885 23.372,225.792 21.798,225.557 21.388 C 224.995 20.406,224.631 20.445,224.462 21.504 M112.611 38.819 C 112.608 39.860,112.404 42.569,112.156 44.839 C 110.868 56.640,112.184 62.891,116.855 67.159 C 118.672 68.820,123.784 71.568,124.534 71.287 C 124.638 71.248,123.704 67.913,122.458 63.876 C 121.212 59.839,120.216 56.465,120.245 56.377 C 120.274 56.289,121.743 59.410,123.509 63.311 C 127.000 71.023,126.826 70.742,127.457 69.667 C 132.499 61.082,130.472 53.586,120.573 44.212 C 118.406 42.160,115.824 39.682,114.835 38.704 C 112.612 36.507,112.616 36.507,112.611 38.819 M176.599 42.028 C 176.161 42.565,174.453 44.398,172.803 46.101 C 164.195 54.987,161.939 58.894,161.930 64.929 C 161.925 68.277,163.328 72.570,165.255 75.098 C 165.703 75.686,165.567 75.943,167.540 70.751 C 168.497 68.231,169.526 65.550,169.827 64.794 C 170.127 64.037,170.611 62.778,170.903 61.997 C 171.780 59.644,171.645 60.383,169.736 68.360 C 168.729 72.567,167.951 76.055,168.007 76.111 C 168.502 76.606,173.370 73.643,175.359 71.636 C 180.097 66.854,180.908 61.363,178.797 48.360 C 178.359 45.667,177.970 42.955,177.932 42.335 C 177.842 40.885,177.580 40.825,176.599 42.028 M261.927 42.257 C 261.359 42.766,259.140 44.650,256.995 46.442 C 246.683 55.062,244.415 60.516,247.624 68.976 C 248.066 70.141,248.515 71.148,248.622 71.214 C 248.809 71.330,249.677 69.756,253.577 62.228 C 254.569 60.312,255.407 58.770,255.438 58.802 C 255.469 58.833,254.411 61.834,253.086 65.471 C 251.761 69.109,250.719 72.126,250.771 72.177 C 251.348 72.755,257.079 69.740,258.937 67.882 C 263.053 63.766,263.809 59.837,263.276 45.348 C 263.109 40.833,263.223 41.093,261.927 42.257 M337.367 62.923 C 336.548 63.579,334.850 64.827,333.593 65.696 C 324.468 72.000,321.585 76.127,321.841 82.515 C 321.943 85.070,322.682 88.140,323.356 88.815 C 323.458 88.917,325.074 86.495,326.948 83.433 C 328.822 80.372,330.446 77.764,330.557 77.638 C 330.756 77.410,330.349 78.347,326.973 85.877 C 324.988 90.307,324.985 90.136,327.019 89.614 C 335.485 87.439,338.293 82.370,338.758 68.427 C 338.869 65.108,339.020 62.294,339.094 62.175 C 339.499 61.519,338.670 61.878,337.367 62.923 M183.178 65.768 C 183.102 66.241,182.478 68.493,181.790 70.771 C 178.315 82.295,179.520 88.272,186.085 92.062 C 187.494 92.876,187.423 93.373,186.786 87.156 C 186.483 84.192,186.261 81.625,186.294 81.452 C 186.326 81.279,186.910 83.550,187.590 86.498 C 189.132 93.183,188.926 92.832,190.250 91.035 C 195.155 84.377,194.294 79.719,186.055 68.338 C 185.134 67.066,184.266 65.774,184.126 65.467 C 183.754 64.651,183.335 64.784,183.178 65.768 M291.284 70.450 C 290.843 70.829,289.088 72.130,287.385 73.343 C 280.392 78.322,277.837 80.833,276.249 84.289 C 274.605 87.864,274.613 92.268,276.271 96.208 C 276.738 97.318,276.325 97.819,280.454 91.127 C 282.180 88.329,283.619 86.066,283.652 86.099 C 283.685 86.131,282.534 88.782,281.095 91.990 C 278.089 98.687,278.069 98.383,281.450 97.251 C 288.783 94.794,291.918 89.165,291.989 78.326 C 291.999 76.812,292.088 74.335,292.186 72.821 C 292.393 69.632,292.355 69.533,291.284 70.450 M73.062 86.449 C 72.991 86.564,73.044 86.951,73.181 87.309 C 73.318 87.666,73.986 90.745,74.666 94.151 C 77.196 106.834,79.721 111.483,85.621 114.321 C 88.099 115.513,94.266 116.715,94.266 116.006 C 94.266 115.903,92.298 112.854,89.893 109.229 C 85.255 102.237,85.284 102.202,90.596 108.336 C 94.399 112.726,96.174 114.682,96.269 114.587 C 97.057 113.799,97.244 107.370,96.556 104.744 C 94.989 98.761,91.225 95.355,80.049 89.804 C 76.835 88.207,74.040 86.751,73.839 86.569 C 73.414 86.185,73.242 86.158,73.062 86.449 M198.853 87.953 C 198.853 88.266,198.275 90.510,197.568 92.942 C 194.809 102.436,194.495 103.964,194.495 107.928 C 194.495 113.241,196.034 117.035,199.465 120.184 C 200.633 121.255,204.011 123.624,204.372 123.624 C 204.443 123.624,204.112 120.192,203.636 115.998 C 203.161 111.803,202.775 108.165,202.779 107.913 C 202.783 107.661,203.667 110.995,204.743 115.323 C 206.975 124.295,206.620 123.774,208.601 120.986 C 214.310 112.952,213.096 106.089,203.751 93.578 C 201.913 91.118,200.189 88.719,199.918 88.247 C 199.354 87.262,198.853 87.124,198.853 87.953 M215.669 92.030 C 215.918 93.084,216.046 95.709,216.180 102.523 C 216.379 112.695,216.809 116.456,218.277 120.860 C 221.052 129.187,226.790 134.178,235.964 136.245 C 237.517 136.595,237.556 136.535,236.815 134.934 C 235.926 133.014,232.110 124.320,232.110 124.216 C 232.110 124.168,231.708 123.266,231.217 122.213 C 230.409 120.478,229.941 119.396,228.803 116.628 C 228.237 115.253,228.805 116.043,230.947 119.610 C 231.931 121.250,233.902 124.501,235.326 126.835 C 236.751 129.169,238.429 131.929,239.056 132.970 C 240.430 135.252,240.410 135.249,241.143 133.314 C 246.386 119.484,242.105 110.354,224.536 97.899 C 221.078 95.448,216.993 92.325,216.603 91.834 C 216.174 91.295,215.527 91.430,215.669 92.030 M348.489 107.653 C 348.357 107.997,345.337 110.816,342.437 113.303 C 333.616 120.865,330.130 124.958,327.951 130.312 C 325.794 135.614,326.260 141.761,329.274 147.764 C 330.257 149.721,330.181 149.748,331.527 146.961 C 334.962 139.851,339.436 130.925,339.317 131.422 C 339.241 131.737,337.795 136.116,336.103 141.152 C 334.412 146.189,333.028 150.385,333.028 150.478 C 333.028 150.758,335.540 149.906,337.710 148.888 C 347.755 144.180,351.186 135.959,349.881 119.725 C 349.663 117.013,349.420 113.151,349.341 111.142 C 349.204 107.664,348.925 106.518,348.489 107.653 M102.528 120.700 C 102.244 121.488,101.103 124.146,99.992 126.606 C 95.828 135.819,94.876 138.783,94.572 143.463 C 94.176 149.561,97.244 155.912,102.355 159.572 L 103.391 160.314 103.517 159.572 C 103.587 159.164,103.715 155.075,103.802 150.485 C 103.890 145.896,104.036 142.283,104.128 142.458 C 104.219 142.632,104.690 146.671,105.174 151.433 C 105.697 156.581,106.149 160.092,106.288 160.092 C 106.685 160.092,109.720 156.845,110.762 155.307 C 115.859 147.776,114.906 140.288,107.091 126.476 C 106.230 124.954,105.042 122.709,104.452 121.487 C 103.182 118.861,103.188 118.863,102.528 120.700 M190.325 123.934 C 189.482 124.583,187.229 126.095,185.318 127.294 C 168.871 137.609,164.300 142.977,163.836 152.523 C 163.675 155.843,165.053 163.549,165.804 163.528 C 165.879 163.526,168.773 159.450,172.235 154.469 C 175.697 149.488,178.562 145.413,178.603 145.413 C 178.701 145.413,178.100 146.593,172.961 156.495 C 167.885 166.275,168.272 165.237,169.782 165.040 C 183.872 163.204,189.639 154.759,191.288 133.551 C 191.540 130.299,191.866 126.812,192.010 125.803 C 192.513 122.299,192.486 122.269,190.325 123.934 M314.716 125.446 C 314.060 126.453,312.069 129.216,310.293 131.586 C 299.699 145.719,297.697 153.164,302.045 162.271 C 303.042 164.358,305.349 167.797,306.244 168.530 C 306.566 168.793,306.872 167.736,309.082 158.731 C 310.444 153.180,311.595 148.674,311.639 148.719 C 311.719 148.798,309.754 167.046,309.508 168.521 C 309.334 169.561,309.564 169.496,312.226 167.751 C 322.803 160.821,324.424 152.111,318.704 132.938 C 317.759 129.771,316.839 126.472,316.658 125.608 C 316.192 123.372,316.073 123.362,314.716 125.446 M44.109 164.059 C 44.047 164.160,44.448 164.728,45.002 165.321 C 46.044 166.437,47.848 168.700,52.179 174.326 C 62.549 187.797,71.363 191.392,82.970 186.887 C 84.263 186.385,85.321 185.896,85.321 185.801 C 85.321 185.706,83.438 184.562,81.135 183.259 C 78.833 181.956,76.021 180.354,74.885 179.698 C 73.750 179.042,72.253 178.189,71.560 177.803 C 69.305 176.546,66.620 174.944,66.972 175.066 C 67.162 175.131,68.710 175.751,70.413 176.443 C 72.116 177.136,75.935 178.686,78.899 179.889 C 81.864 181.091,84.788 182.289,85.397 182.551 C 86.745 183.130,86.697 183.129,86.697 182.581 C 86.697 180.621,83.896 174.523,81.874 172.080 C 76.893 166.063,71.385 164.251,57.569 164.083 C 53.217 164.030,48.433 163.961,46.939 163.931 C 45.445 163.900,44.172 163.958,44.109 164.059 M398.280 179.847 C 397.397 179.927,392.649 179.939,387.729 179.874 C 372.076 179.667,366.000 180.800,359.572 185.124 C 354.872 188.285,350.332 195.563,349.389 201.444 L 349.250 202.315 350.256 201.915 C 350.809 201.695,356.215 199.531,362.270 197.106 C 368.325 194.681,373.296 192.715,373.318 192.737 C 373.340 192.759,368.310 195.615,362.140 199.083 C 355.970 202.552,350.921 205.452,350.920 205.528 C 350.911 206.029,356.502 208.034,359.591 208.636 C 371.257 210.912,380.025 205.818,392.420 189.564 C 395.806 185.124,397.543 182.969,398.925 181.494 C 400.412 179.906,400.317 179.663,398.280 179.847 M321.904 182.244 C 320.894 182.790,317.850 184.192,315.138 185.360 C 297.457 192.971,291.750 199.737,292.893 211.733 C 293.321 216.223,293.237 216.129,295.083 214.163 C 297.165 211.946,305.460 203.261,306.966 201.721 C 307.707 200.964,308.096 200.654,307.830 201.032 C 307.012 202.194,299.096 213.060,297.436 215.298 C 296.576 216.458,295.872 217.480,295.872 217.569 C 295.872 217.933,301.538 217.443,303.670 216.895 C 313.112 214.468,317.799 208.045,321.439 192.546 C 322.031 190.023,322.877 186.669,323.318 185.092 C 324.428 181.125,324.416 181.188,324.052 181.222 C 323.880 181.238,322.913 181.698,321.904 182.244 M98.154 186.525 C 97.875 188.018,98.149 204.913,98.482 206.734 C 99.995 215.021,104.042 219.802,111.515 222.132 C 112.611 222.473,113.609 222.717,113.732 222.672 C 113.855 222.628,112.524 218.984,110.772 214.574 C 109.021 210.164,107.611 206.532,107.639 206.505 C 107.667 206.477,109.582 209.852,111.894 214.007 C 114.206 218.161,116.180 221.560,116.280 221.560 C 116.521 221.560,117.777 218.395,118.283 216.514 C 118.912 214.175,118.850 209.565,118.159 207.339 C 116.531 202.094,113.168 198.245,104.128 191.281 C 102.425 189.969,100.455 188.350,99.750 187.682 C 98.633 186.624,98.195 186.307,98.154 186.525 M335.789 218.602 C 323.127 219.739,315.638 225.718,312.765 236.984 C 312.349 238.615,311.918 238.673,317.711 236.324 C 326.596 232.721,333.823 229.847,333.872 229.897 C 333.899 229.923,332.352 230.815,330.435 231.879 C 328.518 232.942,326.485 234.082,325.917 234.413 C 325.350 234.743,323.905 235.560,322.706 236.229 C 321.508 236.897,319.857 237.828,319.037 238.298 C 318.217 238.768,316.746 239.599,315.768 240.145 C 313.601 241.354,313.604 241.288,315.702 242.168 C 328.944 247.727,338.301 243.667,351.032 226.839 C 353.321 223.812,354.487 222.362,356.128 220.493 C 356.921 219.591,357.569 218.766,357.568 218.658 C 357.568 218.401,338.578 218.352,335.789 218.602 M58.028 234.246 C 58.028 234.286,58.363 234.621,58.773 234.991 L 59.518 235.665 58.845 234.920 C 58.217 234.225,58.028 234.069,58.028 234.246 M88.167 274.996 C 82.329 275.821,76.544 279.533,66.628 288.814 C 66.124 289.286,64.916 290.268,63.944 290.995 C 61.760 292.628,61.743 292.786,63.735 292.971 C 64.604 293.052,67.561 293.585,70.306 294.156 C 86.977 297.622,93.865 296.709,100.029 290.215 C 101.768 288.382,105.106 283.011,104.736 282.641 C 104.698 282.603,100.296 283.448,94.954 284.518 C 89.612 285.588,85.216 286.439,85.185 286.408 C 85.128 286.351,86.505 285.871,97.647 282.065 C 101.083 280.891,103.895 279.857,103.897 279.767 C 103.902 279.439,100.525 277.406,98.624 276.592 C 95.103 275.085,91.465 274.530,88.167 274.996 M307.569 280.741 C 304.937 281.071,300.339 282.786,300.832 283.252 C 300.942 283.356,304.128 285.113,307.913 287.156 C 311.697 289.199,314.587 290.799,314.335 290.711 C 314.083 290.624,310.743 289.371,306.914 287.926 C 303.085 286.481,299.864 285.330,299.756 285.367 C 299.459 285.471,300.836 289.368,301.744 290.995 C 305.508 297.741,311.686 299.942,325.131 299.325 C 328.217 299.184,331.256 299.136,331.884 299.219 C 333.329 299.411,333.373 299.094,332.080 297.821 C 331.568 297.317,329.711 295.130,327.955 292.962 C 319.780 282.873,314.723 279.841,307.569 280.741 M120.528 296.654 C 115.375 297.848,111.761 300.698,105.487 308.517 C 103.931 310.456,102.096 312.636,101.408 313.362 C 100.719 314.088,100.211 314.737,100.278 314.804 C 100.725 315.251,118.773 315.002,120.651 314.523 C 126.345 313.068,129.587 310.579,131.950 305.848 C 132.721 304.305,133.812 301.167,133.638 300.993 C 133.592 300.947,131.088 301.851,128.073 303.002 C 120.877 305.750,119.037 306.428,119.037 306.329 C 119.037 306.283,122.081 304.618,125.803 302.628 C 129.524 300.638,132.569 298.937,132.569 298.848 C 132.569 298.607,129.989 297.495,128.248 296.986 C 126.227 296.396,122.360 296.229,120.528 296.654 M146.330 309.011 C 141.680 310.433,138.097 313.411,132.265 320.703 C 130.775 322.566,128.985 324.707,128.287 325.461 C 126.722 327.151,126.137 326.999,134.862 327.173 C 148.157 327.438,153.044 326.045,157.033 320.853 C 158.516 318.923,160.907 313.583,160.479 313.155 C 160.380 313.056,154.978 315.032,147.489 317.908 C 146.550 318.269,145.756 318.539,145.726 318.509 C 145.696 318.479,148.760 316.804,152.535 314.789 C 160.030 310.787,159.773 310.977,158.544 310.352 C 155.049 308.577,149.678 307.987,146.330 309.011 M238.532 309.040 C 235.653 309.826,232.831 311.239,234.140 311.239 C 234.247 311.239,235.253 311.736,236.376 312.344 C 237.499 312.952,239.295 313.919,240.367 314.493 C 241.439 315.067,243.091 315.951,244.037 316.458 C 244.983 316.965,246.196 317.608,246.732 317.887 C 248.865 318.999,248.531 318.887,238.907 315.276 C 235.644 314.052,232.928 313.096,232.872 313.152 C 232.816 313.208,233.035 314.044,233.359 315.009 C 235.864 322.470,240.696 326.149,249.184 327.061 C 251.494 327.309,266.287 327.131,266.282 326.856 C 266.281 326.781,265.894 326.307,265.422 325.803 C 264.363 324.670,263.054 323.107,260.430 319.839 C 252.557 310.040,246.256 306.932,238.532 309.040 " stroke="none" fill="#33b04b" fill-rule="evenodd"></path><path id="path2" d="M211.105 36.869 C 211.027 37.216,210.351 39.558,209.603 42.073 C 206.141 53.704,207.141 58.787,213.749 63.153 C 215.335 64.201,215.251 64.568,214.698 59.022 C 214.437 56.394,214.173 53.727,214.112 53.096 C 214.001 51.951,214.528 53.919,216.091 60.493 C 216.921 63.981,216.854 63.920,218.067 62.314 C 222.739 56.126,221.959 50.687,215.041 41.211 C 213.735 39.421,212.437 37.570,212.159 37.097 C 211.556 36.075,211.297 36.019,211.105 36.869 M108.472 69.753 C 108.073 70.543,106.761 72.743,105.557 74.643 C 98.811 85.277,97.327 91.160,99.794 97.477 C 100.691 99.771,104.493 104.997,104.936 104.543 C 104.973 104.504,105.577 100.963,106.278 96.674 L 107.552 88.876 107.415 96.878 L 107.279 104.880 108.398 104.116 C 117.023 98.230,118.126 90.305,112.338 75.803 C 111.582 73.911,110.670 71.487,110.310 70.417 C 109.501 68.012,109.374 67.966,108.472 69.753 M342.202 89.901 C 341.760 90.129,338.767 91.212,335.550 92.309 C 323.076 96.562,318.432 100.166,316.626 106.995 C 315.965 109.496,315.887 115.087,316.516 114.866 C 316.628 114.826,318.712 113.039,321.146 110.894 C 328.114 104.754,329.313 103.735,328.419 104.716 C 325.024 108.436,318.106 116.577,318.233 116.703 C 318.574 117.041,324.411 116.828,325.917 116.423 C 333.038 114.507,336.411 110.096,340.824 96.926 C 341.801 94.012,342.788 91.240,343.018 90.766 C 343.556 89.657,343.267 89.351,342.202 89.901 M154.938 105.215 C 154.851 105.561,153.745 108.012,152.479 110.663 C 146.313 123.573,145.597 129.035,149.249 135.321 C 150.048 136.697,154.077 141.055,154.550 141.055 C 154.803 141.055,154.955 139.090,155.308 131.254 C 155.463 127.819,155.639 125.058,155.700 125.119 C 155.761 125.180,156.097 128.750,156.447 133.053 C 156.797 137.355,157.146 140.938,157.222 141.014 C 157.479 141.271,161.347 137.037,162.219 135.543 C 165.601 129.751,165.033 123.395,160.304 114.106 C 157.279 108.164,156.013 105.598,155.861 105.103 C 155.643 104.393,155.129 104.455,154.938 105.215 M68.717 109.199 C 68.662 109.375,68.558 110.602,68.486 111.927 C 68.414 113.251,68.153 116.141,67.906 118.349 C 66.319 132.535,68.063 139.422,74.458 144.226 C 76.622 145.852,81.883 148.351,81.880 147.751 C 81.879 147.664,80.697 143.674,79.252 138.886 C 77.806 134.098,76.651 130.153,76.685 130.119 C 76.719 130.086,78.434 133.823,80.498 138.424 C 82.562 143.025,84.342 146.789,84.456 146.789 C 84.569 146.789,85.171 145.722,85.794 144.418 C 90.390 134.796,87.777 126.607,76.950 116.704 C 75.562 115.435,73.165 113.155,71.622 111.638 C 69.837 109.883,68.781 108.996,68.717 109.199 M263.303 165.282 C 262.735 165.335,260.206 165.629,257.683 165.935 C 255.161 166.242,252.348 166.559,251.433 166.641 C 250.519 166.723,249.771 166.814,249.771 166.845 C 249.771 167.216,261.780 178.861,263.188 179.856 C 269.548 184.347,275.499 184.939,281.860 181.714 C 283.048 181.112,284.028 180.529,284.039 180.418 C 284.051 180.307,280.684 178.763,276.559 176.985 C 272.434 175.208,269.080 173.733,269.106 173.707 C 269.132 173.681,272.714 174.671,277.065 175.907 C 281.417 177.142,285.010 178.124,285.051 178.089 C 285.272 177.897,283.511 174.170,282.434 172.551 C 278.740 167.000,272.063 164.463,263.303 165.282 M42.106 212.355 C 42.023 212.490,42.568 213.352,43.317 214.270 C 44.066 215.189,46.358 218.417,48.409 221.445 C 59.607 237.971,66.089 242.921,76.606 242.981 C 80.738 243.005,88.532 241.303,88.532 240.378 C 88.532 240.281,85.926 238.517,82.741 236.457 C 70.232 228.367,67.097 226.319,67.348 226.403 C 67.491 226.451,72.680 228.905,78.879 231.855 C 85.078 234.806,90.213 237.157,90.290 237.080 C 91.032 236.338,88.115 228.113,85.997 224.973 C 80.492 216.811,72.519 213.804,54.445 213.074 C 48.783 212.846,44.326 212.523,42.911 212.240 C 42.550 212.168,42.190 212.219,42.106 212.355 M266.514 296.656 C 264.340 297.112,260.487 298.643,260.786 298.933 C 260.846 298.990,263.975 300.691,267.739 302.712 C 271.503 304.734,274.636 306.440,274.700 306.504 C 274.764 306.568,271.432 305.340,267.295 303.775 C 263.159 302.209,259.742 300.962,259.702 301.002 C 259.661 301.042,259.894 301.887,260.218 302.879 C 262.234 309.056,266.023 312.702,272.196 314.407 L 274.427 315.023 283.683 314.979 C 288.774 314.955,292.996 314.878,293.066 314.809 C 293.135 314.739,292.629 314.088,291.941 313.362 C 291.254 312.636,289.477 310.523,287.993 308.668 C 279.730 298.333,273.943 295.097,266.514 296.656 " stroke="none" fill="#748bd4" fill-rule="evenodd"></path><path id="path3" d="M159.729 20.700 C 159.491 21.236,158.486 23.119,157.495 24.885 C 151.740 35.146,151.117 39.953,154.824 45.495 C 155.797 46.949,157.947 49.269,158.119 49.050 C 158.154 49.005,158.484 46.130,158.851 42.661 L 159.518 36.353 159.662 39.564 C 159.742 41.330,159.819 44.194,159.834 45.929 C 159.867 49.591,159.786 49.526,161.889 47.579 C 167.785 42.121,167.940 36.822,162.556 24.771 C 161.739 22.942,160.946 21.058,160.793 20.585 C 160.437 19.483,160.260 19.503,159.729 20.700 M255.899 21.220 C 255.170 21.907,253.725 23.150,252.688 23.981 C 245.169 30.006,242.468 34.945,243.651 40.506 C 243.995 42.122,245.165 45.176,245.442 45.181 C 245.522 45.182,246.758 42.919,248.189 40.151 C 249.621 37.384,250.815 35.142,250.843 35.170 C 250.884 35.211,249.195 39.975,247.353 45.011 C 246.975 46.046,247.062 46.069,248.952 45.418 C 254.321 43.571,257.188 39.656,257.793 33.343 C 258.029 30.893,257.670 19.942,257.355 19.962 C 257.283 19.967,256.628 20.533,255.899 21.220 M133.657 43.943 C 133.582 44.017,133.658 44.465,133.824 44.937 C 133.991 45.410,134.505 47.749,134.966 50.134 C 136.867 59.970,137.949 63.304,140.414 66.918 C 143.123 70.890,148.537 73.624,153.692 73.624 L 155.050 73.624 150.448 66.686 C 147.917 62.870,146.122 60.057,146.460 60.436 C 146.797 60.814,149.249 63.620,151.907 66.672 C 154.565 69.723,156.806 72.179,156.887 72.129 C 157.604 71.686,157.860 65.033,157.255 62.529 C 155.807 56.533,151.984 53.012,140.974 47.537 C 138.092 46.103,135.333 44.678,134.844 44.369 C 133.868 43.753,133.852 43.747,133.657 43.943 M235.304 56.338 C 234.998 56.670,233.251 58.187,231.422 59.709 C 219.565 69.576,216.942 75.969,221.256 84.484 C 221.940 85.834,221.774 86.001,223.966 81.766 C 228.576 72.862,229.250 71.652,228.423 73.764 C 227.308 76.615,223.889 86.350,223.973 86.435 C 224.449 86.911,229.772 84.328,231.489 82.789 C 236.055 78.694,237.030 74.180,236.377 60.149 C 236.158 55.436,236.152 55.416,235.304 56.338 M308.643 65.913 C 308.326 66.605,307.420 68.288,306.629 69.652 C 299.684 81.634,298.647 86.567,301.724 93.005 C 302.618 94.875,305.793 98.853,306.391 98.853 C 306.479 98.853,306.793 96.733,307.089 94.142 C 307.385 91.551,307.808 88.067,308.030 86.401 L 308.432 83.372 308.464 88.991 C 308.494 94.207,308.669 98.617,308.855 98.828 C 309.324 99.363,313.446 94.981,314.656 92.661 C 317.685 86.854,317.052 82.232,311.466 69.381 C 310.808 67.867,310.150 66.223,310.004 65.728 C 309.622 64.439,309.298 64.483,308.643 65.913 M126.932 85.722 C 126.459 86.574,125.229 88.612,124.198 90.252 C 116.307 102.804,114.807 108.896,117.910 115.784 C 119.296 118.860,122.947 123.343,123.242 122.331 C 123.311 122.096,123.962 118.114,124.689 113.483 C 125.416 108.852,126.031 105.085,126.055 105.112 C 126.079 105.139,125.992 109.111,125.861 113.939 C 125.731 118.768,125.687 122.782,125.764 122.859 C 126.158 123.253,130.356 119.532,131.799 117.511 C 136.284 111.230,136.076 104.787,130.973 91.882 C 130.120 89.724,129.141 87.107,128.797 86.067 C 128.044 83.781,128.013 83.776,126.932 85.722 M260.052 117.547 C 259.989 117.611,260.124 118.514,260.353 119.554 C 260.581 120.594,261.084 123.819,261.469 126.720 C 263.557 142.443,266.107 148.749,272.249 153.377 C 275.354 155.717,281.415 157.798,285.122 157.798 C 285.978 157.798,286.227 158.344,282.534 152.133 C 280.749 149.131,278.312 145.023,277.119 143.005 C 275.925 140.986,274.844 139.180,274.716 138.991 C 274.076 138.043,275.875 140.210,278.326 143.338 C 281.253 147.076,284.814 151.604,286.901 154.243 C 287.599 155.126,288.206 155.897,288.249 155.957 C 288.806 156.722,289.792 150.994,289.768 147.133 C 289.704 136.971,284.962 131.363,268.922 122.479 C 265.894 120.802,262.733 118.981,261.896 118.431 C 260.312 117.390,260.242 117.357,260.052 117.547 M23.624 128.269 C 23.624 128.368,24.341 129.280,25.218 130.294 C 26.095 131.309,27.765 133.397,28.929 134.935 C 37.022 145.621,41.051 149.374,46.823 151.605 C 51.717 153.497,57.868 153.119,63.626 150.573 C 65.246 149.856,65.454 150.119,61.525 147.914 C 56.459 145.071,46.281 139.247,46.151 139.117 C 46.089 139.055,47.058 139.422,48.306 139.932 C 49.553 140.443,53.257 141.952,56.537 143.285 C 59.817 144.619,63.326 146.047,64.335 146.460 C 66.506 147.346,66.449 147.414,65.706 144.825 C 62.388 133.257,54.872 128.549,39.335 128.306 C 26.254 128.101,23.624 128.095,23.624 128.269 M171.560 172.381 C 163.709 173.251,159.005 176.635,156.329 183.336 C 155.556 185.271,155.471 185.207,157.886 184.507 C 162.549 183.155,171.217 180.774,171.273 180.830 C 171.306 180.863,169.810 181.538,167.949 182.331 C 160.224 185.620,156.651 187.220,156.651 187.391 C 156.651 187.490,157.606 188.044,158.773 188.622 C 165.256 191.832,171.331 191.204,177.523 186.684 C 179.076 185.551,190.596 174.377,190.596 174.004 C 190.596 173.957,189.745 173.849,188.704 173.764 C 187.663 173.678,184.799 173.357,182.339 173.051 C 177.946 172.504,173.143 172.206,171.560 172.381 M62.959 251.925 C 56.772 253.110,51.822 255.437,42.317 261.627 C 36.739 265.259,35.067 266.288,33.249 267.206 C 31.721 267.977,31.610 268.349,32.816 268.657 C 34.638 269.123,38.258 270.359,42.661 272.019 C 60.549 278.764,68.820 279.103,77.638 273.453 C 80.205 271.808,86.728 264.633,86.166 264.071 C 86.129 264.035,80.428 264.259,73.497 264.569 C 66.566 264.880,60.740 265.126,60.550 265.116 C 60.361 265.105,65.625 264.132,72.248 262.952 C 78.870 261.773,84.639 260.742,85.067 260.662 L 85.845 260.517 84.723 259.372 C 78.948 253.478,70.298 250.518,62.959 251.925 M331.148 262.160 C 329.313 262.449,326.525 263.417,324.786 264.368 C 323.254 265.206,319.953 267.588,319.956 267.853 C 319.956 267.936,324.181 269.087,329.343 270.410 C 334.506 271.733,338.702 272.842,338.668 272.876 C 338.635 272.910,334.354 272.421,329.157 271.790 C 323.959 271.159,319.603 270.642,319.476 270.642 C 318.892 270.642,322.017 275.246,323.860 277.100 C 330.152 283.429,337.157 284.022,352.951 279.563 C 356.038 278.692,359.218 277.858,360.016 277.711 C 361.879 277.368,361.844 277.158,359.690 275.734 C 358.713 275.087,356.416 273.401,354.587 271.988 C 343.935 263.757,337.673 261.132,331.148 262.160 " stroke="none" fill="#d2a618" fill-rule="evenodd"></path><path id="path4" d="M249.651 142.603 C 247.657 145.571,243.106 151.754,240.729 154.724 C 240.215 155.367,239.519 156.245,239.183 156.674 C 236.439 160.178,231.663 165.046,229.719 166.318 C 227.154 167.997,225.684 168.015,221.983 166.411 C 214.016 162.959,200.729 151.348,197.363 144.897 C 196.271 142.804,196.674 145.016,198.034 148.580 C 202.122 159.293,211.097 169.166,222.706 175.720 C 226.119 177.646,227.395 179.208,228.676 183.028 C 230.171 187.487,230.818 195.768,230.163 202.064 C 230.104 202.632,229.943 204.180,229.805 205.505 C 228.846 214.719,226.274 223.730,223.056 229.153 C 216.112 240.854,204.347 250.220,199.263 248.093 C 196.884 247.098,198.363 243.383,204.722 234.381 C 216.074 218.310,219.977 208.968,219.519 198.968 L 219.466 197.821 219.149 198.509 C 218.975 198.888,218.451 200.075,217.985 201.147 C 215.553 206.746,211.594 214.068,209.327 217.160 C 200.151 229.678,191.359 232.705,186.890 224.885 C 181.053 214.674,182.499 195.288,189.825 185.550 C 191.398 183.459,191.333 183.311,189.281 184.305 C 186.301 185.748,182.662 189.945,180.147 194.839 C 173.276 208.214,172.713 225.631,178.749 238.073 C 179.270 239.146,179.731 240.100,179.775 240.195 C 180.107 240.910,176.448 239.715,174.287 238.402 C 163.303 231.730,154.561 213.400,152.635 193.005 C 152.552 192.122,152.435 191.141,152.375 190.826 C 151.210 184.708,152.555 164.855,154.925 153.198 C 155.240 151.646,155.456 150.334,155.405 150.283 C 155.202 150.079,153.234 152.877,152.412 154.540 C 150.614 158.175,149.874 160.860,147.691 171.674 C 145.679 181.635,144.176 185.193,141.362 186.648 C 136.541 189.142,116.713 180.616,104.677 170.875 C 104.285 170.558,103.718 170.103,103.416 169.866 C 101.777 168.574,99.831 166.825,97.480 164.530 C 94.456 161.577,94.537 161.614,95.322 163.551 C 97.922 169.965,102.371 176.088,107.309 180.046 C 107.860 180.487,108.428 180.957,108.571 181.090 C 110.465 182.851,117.551 187.356,125.115 191.608 C 125.367 191.750,125.831 192.028,126.147 192.227 C 126.462 192.426,128.114 193.442,129.817 194.486 C 138.391 199.743,142.540 204.730,144.229 211.812 C 144.469 212.821,144.997 214.885,145.401 216.399 C 151.194 238.111,150.608 244.336,142.684 245.299 C 130.004 246.839,114.190 240.976,101.854 230.159 C 98.212 226.966,94.734 223.455,91.297 219.500 C 89.925 217.922,89.754 217.706,86.935 213.982 C 85.867 212.572,84.962 211.513,84.923 211.629 C 84.687 212.338,87.264 219.174,88.768 221.828 C 89.269 222.712,89.679 223.478,89.679 223.529 C 89.679 223.754,93.353 229.188,94.705 230.963 C 100.962 239.177,108.129 245.913,118.693 253.506 C 123.674 257.087,132.631 261.777,137.213 263.205 C 138.723 263.675,138.871 264.048,137.923 264.996 C 135.282 267.637,118.944 267.768,107.013 265.242 C 106.120 265.053,104.630 264.740,103.701 264.545 C 101.527 264.089,96.187 262.323,94.691 261.566 C 93.183 260.801,93.122 260.930,94.226 262.556 C 97.043 266.704,104.288 270.645,115.022 273.869 C 119.927 275.342,124.001 276.556,124.427 276.673 C 125.172 276.876,130.926 278.600,132.913 279.215 C 135.518 280.021,139.291 281.293,141.170 281.999 C 142.053 282.331,143.033 282.688,143.349 282.793 C 161.135 288.697,173.390 300.505,177.038 315.252 C 180.436 328.990,175.516 357.661,165.848 380.451 C 163.462 386.077,159.342 394.033,156.556 398.394 C 151.427 406.425,147.951 410.818,142.274 416.446 C 140.720 417.986,139.450 419.302,139.450 419.371 C 139.450 419.439,163.756 419.495,193.463 419.495 C 223.171 419.495,247.477 419.419,247.477 419.326 C 247.477 419.234,247.027 418.485,246.477 417.664 C 237.319 403.990,230.425 385.777,226.290 364.335 C 225.844 362.022,224.623 353.392,224.440 351.261 C 224.364 350.378,224.257 349.295,224.202 348.853 C 223.259 341.273,223.323 324.252,224.330 314.564 C 225.893 299.545,234.815 290.206,252.348 285.238 C 258.574 283.474,262.611 282.674,276.835 280.387 C 293.273 277.745,300.152 275.166,304.226 270.120 C 305.368 268.706,305.440 268.733,301.459 269.067 C 288.917 270.118,276.423 269.052,271.307 266.496 C 265.903 263.795,266.919 261.569,275.803 256.650 C 276.560 256.231,277.489 255.716,277.867 255.505 C 278.245 255.294,279.174 254.777,279.931 254.357 C 280.688 253.937,282.064 253.146,282.989 252.599 C 283.914 252.053,284.720 251.606,284.780 251.606 C 285.024 251.606,292.602 246.677,292.890 246.331 C 292.953 246.256,293.366 245.944,293.807 245.639 C 294.249 245.334,294.723 244.975,294.862 244.841 C 295.000 244.707,295.641 244.196,296.285 243.705 C 301.475 239.747,306.771 232.460,308.338 227.122 C 308.760 225.683,308.794 225.692,307.155 226.801 C 305.811 227.710,299.771 231.371,297.936 232.390 C 297.368 232.705,296.491 233.199,295.986 233.487 C 294.649 234.251,286.010 238.577,283.601 239.689 C 269.947 245.991,252.460 250.633,248.541 248.996 C 245.219 247.608,249.281 241.956,258.564 235.047 C 275.354 222.553,288.328 202.885,292.203 184.054 C 293.207 179.177,293.871 170.706,293.407 168.693 L 293.196 167.775 293.021 168.807 C 292.440 172.225,288.620 184.136,286.772 188.289 C 286.460 188.990,286.045 189.925,285.850 190.367 C 276.781 210.933,261.722 224.476,247.561 224.803 C 244.052 224.884,242.505 220.600,241.754 208.716 C 241.622 206.634,241.357 202.403,241.164 199.312 C 240.455 187.943,239.324 180.982,237.442 176.410 C 236.207 173.413,237.330 169.909,241.481 163.805 C 241.712 163.466,242.158 162.775,242.473 162.271 C 242.788 161.766,243.466 160.682,243.979 159.862 C 248.256 153.033,250.633 147.170,251.253 141.915 C 251.462 140.145,251.239 140.241,249.651 142.603 M222.592 141.943 C 216.807 145.536,221.277 159.372,227.902 158.378 C 231.732 157.804,233.054 151.558,230.485 146.175 C 228.743 142.524,224.939 140.485,222.592 141.943 M124.774 161.076 C 118.355 164.238,122.958 176.751,131.470 179.279 C 141.347 182.212,142.574 168.694,133.007 162.343 C 130.322 160.561,126.892 160.033,124.774 161.076 M256.651 191.703 C 252.628 193.202,249.446 200.089,250.216 205.630 C 251.547 215.196,261.155 214.827,264.437 205.084 C 267.201 196.877,262.848 189.394,256.651 191.703 M198.827 194.812 C 195.873 195.867,193.425 199.411,192.327 204.221 C 190.282 213.184,197.918 219.351,203.541 213.278 C 210.468 205.796,206.925 191.918,198.827 194.812 M128.413 219.738 C 121.323 221.416,123.911 233.604,132.211 237.621 C 140.814 241.785,145.503 233.441,139.315 224.978 C 136.574 221.228,131.803 218.936,128.413 219.738 M280.881 221.458 C 272.985 224.353,270.826 236.536,278.211 236.527 C 285.237 236.518,290.828 225.701,285.799 221.846 C 284.688 220.995,282.595 220.829,280.881 221.458 " stroke="none" fill="#4c342c" fill-rule="evenodd"></path><path id="path5" d="" stroke="none" fill="#7c5844" fill-rule="evenodd"></path><path id="path6" d="" stroke="none" fill="#305858" fill-rule="evenodd"></path><path id="path7" d="M343.449 235.837 L 342.775 236.583 343.521 235.909 C 344.215 235.281,344.371 235.092,344.194 235.092 C 344.155 235.092,343.819 235.427,343.449 235.837 " stroke="none" fill="#305c1c" fill-rule="evenodd"></path><path id="path8" d="" stroke="none" fill="#50341c" fill-rule="evenodd"></path></g></svg>