<svg xmlns="http://www.w3.org/2000/svg" viewBox="0 0 400 421.33" fill-rule="evenodd"><path d="M204.82 2.007l-1.158 3.956c-3.49 10.826-2.137 17.334 4.357 20.942l1.16.644-.002-.644c-.002-.354-.26-3.017-.572-5.92l-.556-5.504c.017-.292.43 1.317 1.233 4.816l.93 3.9c.164.63.364 1.53.444 2s.234.905.34.97c.17.106 2.084-2.228 2.084-2.54 0-.07.198-.406.44-.746 2.22-3.117 1.965-8.635-.6-13.214-1.3-2.313-1.534-2.67-3.366-5.16-.974-1.325-2.234-3.105-2.8-3.957-1.292-1.95-1.287-1.95-1.922.46m86.51 41.95c-.672.442-3.046 1.784-5.275 2.982-9.178 4.932-12.95 8.428-14.555 13.498-.816 2.574-.65 8.632.284 10.393.105.198 1.758-1.69 4.822-5.504l4.9-6.036c.293-.296.506-.653-4.014 6.752l-3.787 6.35c.533.533 6.866-1.184 8.886-2.41 5.18-3.142 7.37-7.82 9.057-19.35.3-2.112.72-4.59.91-5.504.504-2.414.572-2.348-1.217-1.17m-99.477 7.59c.084.22.25 2.878.368 5.906.436 11.2 1.475 14.943 5.16 18.64 2.124 2.13 8.436 5.096 9.207 4.325.064-.064-1.133-2.823-2.66-6.13s-2.74-6.052-2.692-6.1 1.664 2.447 3.594 5.542c3.852 6.177 3.693 5.998 4.195 4.742 3.294-8.232.348-15.158-9.33-21.935l-5.202-3.727c-2.293-1.692-2.92-1.99-2.64-1.263M82.272 64.04c-.08 1.423-.187 2.794-.238 3.046-1.98 9.787 1.4 18.29 8.04 20.287.354.106.825.266 1.045.356.547.222.52-.166-.158-2.337l-1.517-4.844c-1.27-4.053-1.108-4.204.538-.503 2.165 4.868 3.226 7.103 3.374 7.107.063.001.5-.797.97-1.775 2.782-5.78 1.424-11.165-4.25-16.85-2.422-2.428-7.207-6.913-7.48-7-.1-.036-.246 1.1-.326 2.523m52.44 7.232c3.95 20.177 5.746 24.145 12.43 27.455 2.162 1.07 8.83 2.463 8.83 1.844 0-.066-1.97-3.07-4.376-6.678l-4.157-6.423c.12.074 2.475 2.717 5.23 5.873s5.08 5.74 5.16 5.74c.545 0 1.037-5.745.687-8.028-1.077-7.038-4.867-10.873-16.39-16.58-3-1.49-5.872-2.963-6.36-3.27-1.12-.707-1.206-.702-1.055.07m119.62 6.198c-.712 1.48-1.67 3.31-2.13 4.066-.76 1.25-3.458 6.622-4.32 8.6-3.49 8.002-2.158 15.483 3.805 21.386 1.595 1.58 1.66 1.592 1.727.345.03-.536.198-2.213.374-3.727l.474-4.358.56-5.4.406-3.784.05 3.21.12 4.473c.038.693.134 3.37.213 5.95s.177 4.72.216 4.76c.146.146 3.572-2.928 4.195-3.764.357-.478.7-.92.765-.984 1.777-1.747 3.212-6.136 3.212-9.82-.001-4.857-1.14-8.61-5.268-17.36-.476-1.01-1.266-2.84-1.755-4.068-1.11-2.783-1.08-2.788-2.644.46M164 85.034c.002.095.16.688.355 1.32.31 1.014 1 4.26 1.37 6.367 2.587 15.145 8.29 21.96 18.373 21.96 1.545 0 1.968.884-3.482-7.278l-4.388-6.713c.466.494 2.384 2.683 3.63 4.14l1.49 1.732 1.686 1.937 1.982 2.27 1.477 1.7c1.108 1.293 1.485-.064 1.454-5.24-.046-7.658-4.478-13.048-14.547-17.69-2.06-.95-7.39-3.648-8.256-4.18-.848-.52-1.15-.605-1.145-.323m-135.2 8.1c-.07.113.28 1.016.778 2.006s1.596 3.447 2.44 5.457c7.08 16.867 14.125 22.455 25.577 20.283 1.678-.318 1.68-.287-.242-2.14l-11.578-11.214 3.44 2.53 7.454 5.508 4.014 2.977.068-1.86c.23-6.323-2.567-12.005-7.63-15.504-3.587-2.48-7.092-3.787-16.036-5.983-3.042-.747-6.123-1.563-6.845-1.812s-1.37-.362-1.44-.248m263.47 2.79c-.362.797-1.49 2.95-2.505 4.785-6.256 11.293-7.482 16.742-5.133 22.824 1.01 2.614 5.45 8.35 5.988 7.736.087-.1.508-3.792.936-8.208.903-9.32.978-9.226 1.24 1.55.09 3.752.218 6.823.282 6.823.294 0 3.12-2.472 3.906-3.418 5.625-6.758 5.538-13.126-.354-25.825-.82-1.766-1.882-4.19-2.36-5.385-1.063-2.654-1.172-2.702-2-.88m97.313 22.9c-.757.096-2.872.24-4.702.32-4.932.213-6.8.343-10.435.73-11.04 1.17-17.817 7.172-19.492 17.258-.153.92-.134.98.26.776.668-.346 11.035-5.356 15.087-7.292 2.475-1.182 2.21-.96-2.39 2.015l-6.307 4.122-4.874 3.138c-.84.45-.633.605 1.835 1.377 6.372 1.996 12.87 1.12 17.224-2.32 1.552-1.227 4.05-3.428 4.05-3.57.001-.086.34-.518.754-.96s1.058-1.216 1.432-1.72c.88-1.19.93-1.253 1.602-2.065.313-.378.628-.868.7-1.09s.225-.402.342-.402.214-.146.214-.324.078-.36.172-.402c.233-.103 2.122-2.927 2.122-3.17a.32.32 0 0 1 .191-.27c.105-.042.582-.696 1.06-1.453s1.424-2.106 2.103-2.997c1.644-2.16 1.712-2.037-.945-1.7m-258.2 15.19c.11 13.93 1.73 18.923 7.392 22.8 2.438 1.67 7.563 3.475 7.384 2.602-.078-.38-1.064-2.94-1.547-4.014-.264-.587-3.575-8.744-3.957-9.748-.112-.295-.076-.3.256-.03.213.173.387.412.387.532s1 1.938 2.223 4.043l4.99 8.6.632-1.36c3.752-8.064.922-16.622-7.66-23.16-.796-.607-1.5-1.16-1.563-1.23s-.785-.636-1.605-1.26l-4.167-3.27-2.752-2.133c-.042 0-.05 3.432-.015 7.626m226.9 19c-11.583.8-18.72 5.06-22.7 13.556-1.273 2.718-2.38 6.607-1.88 6.607.105 0 4.922-1.91 10.705-4.242l10.575-4.18c.034.033-4.306 2.515-9.644 5.515-11.85 6.66-10.813 5.934-9.403 6.574 6.598 2.997 13.31 3.374 19.048 1.07 5.71-2.293 10.175-6.382 17.82-16.32 2.04-2.65 4.405-5.6 5.258-6.58s1.55-1.847 1.55-1.95c-.001-.233-18.065-.277-21.33-.05M.003 170.04c0 .205.342.76.76 1.233 1.276 1.445 2.677 3.394 6.222 8.66 12.34 18.33 19.892 23.877 31.894 23.437 4.354-.16 11.787-1.908 11.885-2.795.013-.126-5.287-3.675-11.78-7.887l-11.46-7.53c.19.07 5.894 2.77 12.676 5.995 13.173 6.266 12.848 6.13 12.68 5.35-4.094-18.923-13.148-24.82-39.69-25.858-5.893-.23-9.24-.46-12.1-.836-.91-.12-1.09-.08-1.09.23m27.18 54.857c-.252.037-1.543.19-2.867.337-3.202.358-8.146 1.347-13.57 2.715-2.44.615-5.52 1.295-6.844 1.51-3.348.546-3.44.568-3.44.817 0 .122.437.507.972.856s1.128.757 1.318.907c2.357 1.85 2.243 1.757 6.266 5.162l5.78 4.795c1.58 1.258 1.924 1.502 4.6 3.28l1.975 1.32c9.075 6.17 20.83 5.865 29.93-.78 1.953-1.426 1.945-1.408.7-1.71-.536-.13-3.194-.927-5.906-1.77l-12.04-3.707c-3.322-1.002-5.298-1.673-4.974-1.688.228-.01 10.513 1.662 14.72 2.394l1.463.24 1.367.232c.263.05.843.15 1.3.22l3.177.532c2.742.468 2.78.445 1.97-1.16-4-7.928-10.737-13.1-18.44-14.176-1.726-.24-6.595-.456-7.454-.33m349.6 3.215c-.028.02-1.186.104-2.574.184-13.853.796-22.476 7.286-25.693 19.34-.295 1.108-.507 2.045-.47 2.082s1.553-.545 3.368-1.295l7.2-2.9 4.587-1.83c.38-.16 1.153-.467 1.72-.68a47.44 47.44 0 0 0 1.72-.686c3.29-1.426 5.305-2.044 3.6-1.108l-7.696 4.314-5.377 3.043a120.83 120.83 0 0 1-3.25 1.81c-1.08.582-2.24 1.25-2.574 1.483s-.702.427-.817.427c-1.166 0-1.014.68.282 1.26 13.74 6.16 25.56 1.827 36.918-13.532a56.46 56.46 0 0 1 1.26-1.636c.32-.395.803-1.015 1.075-1.376l1.546-2.034 1.57-2.058c.285-.375 1.266-1.528 2.18-2.56s1.662-1.965 1.662-2.07c0-.15-20.054-.325-20.247-.176" fill="#ef8824"/><path d="M246.43 2.24l-2.734 2.346-5.86 5.204c-4.346 5.232-5.135 9.4-2.825 14.932.792 1.897.682 2.005 3.497-3.445 2.925-5.663 3.066-5.85 1.845-2.456l-1.13 3.196c-.103.316-.556 1.58-1.007 2.8s-.735 2.236-.63 2.236c.846 0 4.153-1.49 5.512-2.485 4.087-2.988 5.473-7.475 5.045-16.34l-.187-5.316c-.02-2.087-.02-2.087-1.527-.683m-56.17 16.505c-.088.47-.67 2.51-1.296 4.53-3.142 10.16-2.888 14.753 1.056 19.118.972 1.076 3.945 3.17 4.174 2.94.087-.087-.07-2.453-.345-5.258l-.485-5.56c.01-.252.605 1.986 1.322 4.974 1.538 6.412 1.345 6.104 2.688 4.28 4.388-5.956 3.77-11.48-2.21-19.69-1.148-1.577-2.568-3.6-3.155-4.518-1.216-1.882-1.523-2.026-1.75-.82m34.205 2.758c-.076.474-.664 2.564-1.307 4.645-3.117 10.08-2.787 15.05 1.272 19.152 1.247 1.26 3.934 3.256 4.12 3.06.042-.044-.173-2.506-.476-5.47s-.524-5.544-.5-5.732.567 1.825 1.184 4.473c1.73 7.426 1.403 6.892 2.957 4.83 4.578-6.077 3.655-11.408-3.737-21.576-1.1-1.513-2.193-3.087-2.428-3.497-.562-.982-.926-.943-1.095.116M112.616 38.82c-.003 1.04-.207 3.75-.455 6.02-1.288 11.8.028 18.052 4.7 22.32 1.817 1.66 6.93 4.41 7.68 4.128.104-.04-.83-3.374-2.076-7.41l-2.213-7.5c.03-.088 1.498 3.033 3.264 6.934 3.49 7.712 3.317 7.43 3.948 6.356 5.042-8.585 3.015-16.08-6.884-25.455l-5.738-5.508c-2.223-2.197-2.22-2.197-2.224.115m63.988 3.21c-.438.537-2.146 2.37-3.796 4.073-8.608 8.886-10.864 12.793-10.873 18.828-.005 3.348 1.398 7.64 3.325 10.17.448.588.312.845 2.285-4.347l3.363-8.754c.877-2.353.742-1.614-1.167 6.363-1.007 4.207-1.785 7.695-1.73 7.75.495.495 5.363-2.468 7.352-4.475 4.738-4.782 5.55-10.273 3.438-23.276-.438-2.693-.827-5.405-.865-6.025-.1-1.45-.352-1.5-1.333-.307m85.328.23c-.568.51-2.787 2.393-4.932 4.185-10.312 8.62-12.58 14.074-9.37 22.534.442 1.165.89 2.172.998 2.238.187.116 1.055-1.458 4.955-8.986.992-1.916 1.83-3.458 1.86-3.426s-1.027 3.032-2.352 6.67-2.367 6.655-2.315 6.706c.577.578 6.308-2.437 8.166-4.295 4.116-4.116 4.872-8.045 4.34-22.534-.167-4.515-.053-4.255-1.35-3.09m75.44 20.666c-.82.656-2.517 1.904-3.774 2.773-9.125 6.304-12.008 10.43-11.752 16.82.102 2.555.84 5.625 1.515 6.3.102.102 1.718-2.32 3.592-5.382l3.61-5.795c.2-.228-.208.71-3.584 8.24-1.985 4.43-1.988 4.26.046 3.737 8.466-2.175 11.274-7.244 11.74-21.187.11-3.32.262-6.133.336-6.252.405-.656-.424-.297-1.727.748m-154.2 2.845c-.076.473-.7 2.725-1.388 5.003-3.475 11.524-2.27 17.5 4.295 21.29 1.41.814 1.338 1.31.7-4.906-.303-2.964-.525-5.53-.492-5.704s.616 2.098 1.296 5.046c1.542 6.685 1.336 6.334 2.66 4.537 4.905-6.658 4.044-11.316-4.195-22.697-.92-1.272-1.79-2.564-1.93-2.87-.372-.816-.79-.683-.948.3m108.1 4.682c-.44.38-2.196 1.68-3.9 2.893-6.993 4.98-9.548 7.5-11.136 10.946-1.644 3.575-1.636 7.98.022 11.92.467 1.1.054 1.61 4.183-5.08l3.198-5.028c.033.032-1.118 2.683-2.557 5.89-3.006 6.697-3.026 6.393.355 5.26 7.333-2.457 10.468-8.086 10.54-18.925a115.03 115.03 0 0 1 .197-5.505c.207-3.19.17-3.288-.902-2.37m-218.22 16c-.07.115-.018.502.12.86s.805 3.436 1.485 6.842c2.53 12.683 5.055 17.332 10.955 20.17 2.478 1.192 8.645 2.394 8.645 1.685 0-.103-1.968-3.152-4.373-6.777-4.638-6.992-4.61-7.027.703-.893 3.803 4.4 5.578 6.346 5.673 6.25.788-.788.975-7.217.287-9.843-1.567-5.983-5.33-9.39-16.507-14.94-3.214-1.597-6.01-3.053-6.2-3.235-.425-.384-.597-.41-.777-.12m125.8 1.504c0 .313-.578 2.557-1.285 4.99-2.76 9.494-3.073 11.022-3.073 14.986 0 5.313 1.54 9.107 4.97 12.256 1.168 1.07 4.546 3.44 4.907 3.44.07 0-.26-3.432-.736-7.626l-.857-8.085c.004-.252.888 3.082 1.964 7.4 2.232 8.972 1.877 8.45 3.858 5.663 5.71-8.034 4.495-14.897-4.85-27.408-1.838-2.46-3.562-4.86-3.833-5.33-.564-.985-1.065-1.123-1.065-.294m16.816 4.077c.25 1.054.377 3.68.51 10.493.2 10.172.63 13.933 2.097 18.337 2.775 8.327 8.513 13.318 17.687 15.385 1.553.35 1.592.3.85-1.31-.89-1.92-4.705-10.614-4.705-10.718 0-.048-.402-.95-.893-2.003-.808-1.735-1.276-2.817-2.414-5.585-.566-1.375.002-.585 2.144 2.982l4.38 7.225 3.73 6.135c1.374 2.282 1.354 2.28 2.087.344 5.243-13.83.962-22.96-16.607-35.415-3.458-2.45-7.543-5.574-7.933-6.065-.43-.54-1.076-.404-.934.196m132.82 15.623c-.132.344-3.152 3.163-6.052 5.65-8.82 7.562-12.307 11.655-14.486 17.01-2.157 5.302-1.69 11.45 1.323 17.452.983 1.957.907 1.984 2.253-.803l7.8-15.54c-.076.315-1.522 4.694-3.214 9.73l-3.075 9.326c0 .28 2.512-.572 4.682-1.6 10.045-4.708 13.476-12.93 12.17-29.163-.218-2.712-.46-6.574-.54-8.583-.137-3.478-.416-4.624-.852-3.49M102.538 120.7c-.284.788-1.425 3.446-2.536 5.906-4.164 9.213-5.116 12.177-5.42 16.857-.396 6.098 2.672 12.45 7.783 16.11l1.036.742.126-.742c.07-.408.198-4.497.285-9.087s.234-8.202.326-8.027.562 4.213 1.046 8.975c.523 5.148.975 8.66 1.114 8.66.397 0 3.432-3.247 4.474-4.785 5.097-7.53 4.144-15.02-3.67-28.83-.86-1.522-2.05-3.767-2.64-4.99-1.27-2.626-1.264-2.624-1.924-.787m87.797 3.234c-.843.65-3.096 2.16-5.007 3.36-16.447 10.315-21.018 15.683-21.482 25.23-.16 3.32 1.217 11.026 1.968 11.005.075-.002 2.97-4.078 6.43-9.06l6.368-9.056c.098 0-.503 1.18-5.642 11.082-5.076 9.78-4.69 8.742-3.18 8.545 14.1-1.836 19.857-10.28 21.506-31.49.252-3.252.578-6.74.722-7.748.503-3.504.476-3.534-1.685-1.87m124.4 1.512c-.656 1.007-2.647 3.77-4.423 6.14-10.594 14.133-12.596 21.578-8.248 30.685.997 2.087 3.304 5.526 4.2 6.26.322.263.628-.794 2.838-9.8l2.557-10.012c.08.08-1.885 18.327-2.13 19.802-.174 1.04.056.975 2.718-.77 10.577-6.93 12.198-15.64 6.478-34.813-.945-3.167-1.865-6.466-2.046-7.33-.466-2.236-.585-2.246-1.942-.162m-270.6 38.613c-.062.1.34.67.893 1.262 1.042 1.116 2.846 3.38 7.177 9.005 10.37 13.47 19.184 17.066 30.79 12.56 1.293-.502 2.35-.99 2.35-1.086s-1.883-1.24-4.186-2.542l-9.575-5.456c-2.255-1.257-4.94-2.86-4.588-2.737a203.86 203.86 0 0 1 3.441 1.377l8.486 3.446 6.498 2.662c1.348.58 1.3.578 1.3.03 0-1.96-2.8-8.058-4.823-10.5-4.98-6.017-10.49-7.83-24.305-7.997l-10.63-.152c-1.494-.03-2.767.027-2.83.128m354.17 15.788c-.883.08-5.63.092-10.55.027-15.653-.207-21.73.926-28.157 5.25-4.7 3.16-9.24 10.44-10.183 16.32l-.14.87 1.006-.4 12.014-4.81 11.048-4.37c.022.022-5.008 2.878-11.178 6.346l-11.22 6.445c-.01.5 5.582 2.506 8.67 3.108 11.666 2.276 20.434-2.818 32.83-19.072 3.386-4.44 5.123-6.595 6.505-8.07 1.487-1.588 1.392-1.83-.645-1.647m-76.376 2.397c-1 .546-4.054 1.948-6.766 3.116-17.68 7.61-23.388 14.377-22.245 26.373.428 4.5.344 4.396 2.2 2.43l11.883-12.442c.74-.757 1.13-1.067.864-.69-.818 1.162-8.734 12.028-10.394 14.266-.86 1.16-1.564 2.182-1.564 2.27 0 .364 5.666-.126 7.798-.674 9.442-2.427 14.13-8.85 17.77-24.35.592-2.523 1.438-5.877 1.88-7.454 1.1-3.967 1.098-3.904.734-3.87-.172.016-1.14.476-2.148 1.022m-223.75 4.28c-.28 1.493-.005 18.388.328 20.21 1.513 8.287 5.56 13.068 13.033 15.398 1.096.34 2.094.585 2.217.54s-1.208-3.688-2.96-8.098l-3.133-8.07c.028-.028 1.943 3.347 4.255 7.502s4.286 7.553 4.386 7.553c.24 0 1.497-3.165 2.003-5.046.63-2.34.567-6.95-.124-9.175-1.628-5.245-4.99-9.094-14.03-16.058-1.703-1.312-3.673-2.93-4.378-3.6-1.117-1.058-1.555-1.375-1.596-1.157m237.64 32.077c-12.662 1.137-20.15 7.116-23.024 18.382-.416 1.63-.847 1.69 4.946-.66l16.16-6.427c.027.026-1.52.918-3.437 1.982l-4.518 2.534-10.15 5.732c-2.167 1.21-2.164 1.143-.066 2.023 13.242 5.56 22.6 1.5 35.33-15.33 2.29-3.027 3.455-4.477 5.096-6.346.793-.902 1.44-1.727 1.44-1.835 0-.257-19-.306-21.78-.056M58.04 234.246c0 .04.335.375.745.745l.745.674-.673-.745c-.628-.695-.817-.85-.817-.674m30.14 40.75c-5.838.825-11.623 4.537-21.54 13.818-.504.472-1.712 1.454-2.684 2.18-2.184 1.633-2.2 1.79-.21 1.976.87.08 3.826.614 6.57 1.185 16.67 3.466 23.56 2.553 29.723-3.94 1.74-1.833 5.077-7.204 4.707-7.574-.038-.038-4.44.807-9.782 1.877l-9.77 1.9c-.057-.057 1.32-.537 12.462-4.343 3.436-1.174 6.248-2.208 6.25-2.298.005-.328-3.372-2.36-5.273-3.175-3.52-1.507-7.16-2.062-10.457-1.596m219.4 5.745c-2.632.33-7.23 2.045-6.737 2.51.1.104 3.296 1.86 7.08 3.904l6.422 3.555c-.252-.087-3.592-1.34-7.42-2.785s-7.05-2.596-7.158-2.56c-.297.104 1.08 4 1.988 5.628 3.764 6.746 9.942 8.947 23.387 8.33 3.086-.14 6.125-.19 6.753-.106 1.445.192 1.49-.125.196-1.398-.512-.504-2.37-2.69-4.125-4.86-8.175-10.09-13.232-13.12-20.386-12.22m-187.04 15.913c-5.153 1.194-8.767 4.044-15.04 11.863-1.556 1.94-3.39 4.12-4.08 4.845s-1.197 1.375-1.13 1.442c.447.447 18.495.198 20.373-.28 5.694-1.455 8.936-3.944 11.3-8.675.77-1.543 1.862-4.68 1.688-4.855-.046-.046-2.55.858-5.565 2.01l-9.036 3.327c0-.046 3.044-1.71 6.766-3.7s6.766-3.69 6.766-3.78c0-.24-2.58-1.353-4.32-1.862-2.02-.6-5.888-.757-7.72-.332m25.802 12.357c-4.65 1.422-8.233 4.4-14.065 11.692-1.5 1.863-3.28 4.004-3.978 4.758-1.565 1.7-2.15 1.538 6.575 1.712 13.295.265 18.182-1.128 22.17-6.32 1.483-1.93 3.874-7.27 3.446-7.698-.1-.1-5.5 1.877-13 4.753-.94.36-1.733.63-1.763.6s3.034-1.705 6.81-3.72c7.495-4.002 7.238-3.812 6.01-4.437-3.495-1.775-8.866-2.365-12.214-1.34m92.202.03c-2.88.786-5.7 2.2-4.392 2.2.107 0 1.113.497 2.236 1.105l3.99 2.15 3.67 1.965 2.695 1.43c2.133 1.112 1.8 1-7.825-2.61-3.263-1.224-5.98-2.18-6.035-2.124s.163.892.487 1.857c2.505 7.46 7.337 11.14 15.825 12.052 2.3.248 17.103.07 17.098-.205-.001-.075-.388-.55-.86-1.053-1.06-1.133-2.368-2.696-4.992-5.964-7.873-9.8-14.174-12.907-21.898-10.8" fill="#33b04b"/><path d="M211.1 36.87c-.078.347-.754 2.69-1.502 5.204-3.462 11.63-2.462 16.714 4.146 21.08 1.586 1.048 1.502 1.415.95-4.13l-.586-5.926c-.11-1.145.416.823 1.98 7.397.83 3.488.763 3.427 1.976 1.82 4.672-6.188 3.892-11.627-3.026-21.103-1.306-1.8-2.604-3.64-2.882-4.114-.603-1.022-.862-1.078-1.054-.228M108.47 69.753c-.4.8-1.71 3-2.915 4.9-6.746 10.634-8.23 16.517-5.763 22.834.897 2.294 4.7 7.52 5.142 7.066.037-.04.64-3.58 1.342-7.87l1.274-7.798-.273 16.004 1.12-.764c8.625-5.886 9.728-13.81 3.94-28.313-.756-1.892-1.668-4.316-2.028-5.386-.81-2.405-.936-2.45-1.838-.664M342.2 89.9c-.442.228-3.435 1.31-6.652 2.408-12.474 4.253-17.118 7.857-18.924 14.686-.66 2.5-.74 8.092-.1 7.87.112-.04 2.196-1.827 4.63-3.972 6.968-6.14 8.167-7.16 7.273-6.178-3.395 3.72-10.313 11.86-10.186 11.987.34.338 6.178.125 7.684-.28 7.12-1.916 10.494-6.327 14.907-19.497.977-2.914 1.964-5.686 2.194-6.16.538-1.11.25-1.415-.816-.865m-187.26 15.314c-.087.346-1.193 2.797-2.46 5.448-6.166 12.9-6.882 18.372-3.23 24.658.8 1.376 4.828 5.734 5.3 5.734.253 0 .405-1.965.758-9.8.155-3.435.33-6.196.392-6.135s.397 3.63.747 7.934.7 7.885.775 7.96c.257.257 4.125-3.977 4.997-5.47 3.382-5.792 2.814-12.148-1.915-21.437l-4.443-9.003c-.218-.7-.732-.648-.923.112M68.72 109.2c-.055.176-.16 1.403-.23 2.728s-.333 4.214-.58 6.422c-1.587 14.186.157 21.073 6.552 25.877 2.164 1.626 7.425 4.125 7.422 3.525-.001-.087-1.183-4.077-2.628-8.865l-2.567-8.767c.034-.033 1.75 3.704 3.813 8.305s3.844 8.365 3.958 8.365.715-1.067 1.338-2.37c4.596-9.622 1.983-17.81-8.844-27.714a246.89 246.89 0 0 1-5.328-5.066c-1.785-1.755-2.84-2.642-2.905-2.44m194.6 56.083c-.568.053-3.097.347-5.62.653l-6.25.706c-.914.082-1.662.173-1.662.204 0 .37 12.01 12.016 13.417 13.01 6.36 4.49 12.31 5.083 18.672 1.858 1.188-.602 2.168-1.185 2.18-1.296s-3.355-1.655-7.48-3.433l-7.453-3.278c.026-.026 3.608.964 7.96 2.2l7.986 2.182c.22-.192-1.54-3.92-2.617-5.538-3.694-5.55-10.37-8.088-19.13-7.27m-221.2 47.073c-.083.135.462.997 1.21 1.915s3.04 4.147 5.092 7.175C59.6 237.97 66.092 242.92 76.61 242.98c4.132.024 11.926-1.678 11.926-2.603 0-.097-2.606-1.86-5.79-3.92L67.35 226.403c.143.048 5.332 2.502 11.53 5.452s11.334 5.302 11.41 5.225c.742-.742-2.175-8.967-4.293-12.107-5.505-8.162-13.478-11.17-31.552-11.9-5.662-.228-10.12-.55-11.534-.834-.36-.072-.72-.02-.805.115m224.4 84.3c-2.174.456-6.027 1.987-5.728 2.277.06.057 3.19 1.758 6.953 3.78l6.96 3.792c.064.064-3.268-1.164-7.405-2.73l-7.593-2.773c-.04.04.192.885.516 1.877 2.016 6.177 5.805 9.823 11.978 11.528l2.23.616 9.256-.044 9.383-.17c.07-.07-.437-.72-1.125-1.447s-2.464-2.84-3.948-4.694c-8.263-10.335-14.05-13.57-21.48-12.012" fill="#748bd4"/><path d="M159.73 20.7c-.238.536-1.243 2.42-2.234 4.185-5.755 10.26-6.378 15.068-2.67 20.6.973 1.454 3.123 3.774 3.295 3.555.035-.045.365-2.92.732-6.39l.667-6.308.144 3.21c.08 1.766.157 4.63.172 6.365.033 3.662-.048 3.597 2.055 1.65 5.896-5.458 6.05-10.757.667-22.808-.817-1.83-1.6-3.713-1.763-4.186-.356-1.102-.533-1.082-1.064.115m96.17.52c-.73.687-2.174 1.93-3.21 2.76-7.52 6.025-10.22 10.964-9.037 16.525.344 1.616 1.514 4.67 1.79 4.675.08.001 1.316-2.262 2.747-5.03l2.654-4.98c.04.04-1.648 4.805-3.5 9.84-.378 1.035-.29 1.058 1.6.407 5.37-1.847 8.236-5.762 8.84-12.075.236-2.45-.123-13.4-.438-13.38-.072.005-.727.57-1.456 1.258M133.66 43.943c-.075.074.001.522.167.994s.68 2.812 1.142 5.197c1.9 9.836 2.983 13.17 5.448 16.784 2.71 3.972 8.123 6.706 13.278 6.706h1.358l-4.602-6.938c-2.53-3.816-4.326-6.63-3.988-6.25l5.447 6.236c2.658 3.05 4.9 5.507 4.98 5.457.717-.443.973-7.096.368-9.6-1.448-5.996-5.27-9.517-16.28-14.992-2.882-1.434-5.64-2.86-6.13-3.168-.976-.616-.992-.622-1.187-.426M235.3 56.338c-.306.332-2.053 1.85-3.882 3.37-11.857 9.867-14.48 16.26-10.166 24.775.684 1.35.518 1.517 2.7-2.718 4.6-8.904 5.284-10.114 4.457-8.002-1.115 2.85-4.534 12.586-4.45 12.67.476.476 5.8-2.107 7.516-3.646 4.566-4.095 5.54-8.61 4.888-22.64-.22-4.713-.225-4.733-1.073-3.81m73.34 9.575c-.317.692-1.223 2.375-2.014 3.74-6.945 11.982-7.982 16.915-4.905 23.353.894 1.87 4.07 5.848 4.667 5.848.088 0 .402-2.12.698-4.71l.94-7.74.402-3.03.032 5.62c.03 5.216.205 9.626.39 9.837.47.535 4.59-3.847 5.8-6.167 3.03-5.807 2.396-10.43-3.2-23.28-.658-1.514-1.316-3.158-1.462-3.653-.382-1.29-.706-1.245-1.36.185m-181.7 19.81c-.473.852-1.703 2.9-2.734 4.53-7.89 12.552-9.39 18.644-6.288 25.532 1.386 3.076 5.037 7.56 5.332 6.547.07-.235.72-4.217 1.447-8.848l1.366-8.37c.024.027-.063 4-.194 8.827s-.174 8.843-.097 8.92c.394.394 4.592-3.327 6.035-5.348 4.485-6.28 4.277-12.724-.826-25.63-.853-2.158-1.832-4.775-2.176-5.815-.753-2.286-.784-2.29-1.865-.345m133.12 31.825c-.063.064.072.967.3 2.007s.73 4.265 1.116 7.166c2.088 15.723 4.638 22.03 10.78 26.657 3.105 2.34 9.166 4.42 12.873 4.42.856 0 1.105.546-2.588-5.665l-5.415-9.128-2.403-4.014c-.64-.948 1.16 1.22 3.6 4.347l9.923 12.62c.557.765 1.543-4.963 1.52-8.824-.064-10.162-4.806-15.77-20.846-24.654-3.028-1.677-6.19-3.498-7.026-4.048-1.584-1.04-1.654-1.074-1.844-.884M23.63 128.27c0 .1.717 1.01 1.594 2.025s2.547 3.103 3.71 4.64c8.093 10.686 12.122 14.44 17.894 16.67 4.894 1.892 11.045 1.514 16.803-1.032 1.62-.717 1.828-.454-2.1-2.66l-15.374-8.797c-.062-.062.907.305 2.155.815l16.03 6.528c2.17.886 2.114.954 1.37-1.635-3.318-11.568-10.834-16.276-26.37-16.52l-15.71-.037m147.94 44.112c-7.85.87-12.555 4.254-15.23 10.955-.773 1.935-.858 1.87 1.557 1.17l13.387-3.677c.033.033-1.463.708-3.324 1.5-7.725 3.29-11.298 4.89-11.298 5.06 0 .1.955.653 2.122 1.23 6.483 3.2 12.558 2.582 18.75-1.938 1.553-1.133 13.073-12.307 13.073-12.68 0-.047-.85-.155-1.892-.24s-3.905-.407-6.365-.713c-4.393-.547-9.196-.845-10.78-.67m-108.6 79.544c-6.187 1.185-11.137 3.512-20.642 9.702-5.578 3.632-7.25 4.66-9.068 5.58-1.528.77-1.64 1.143-.433 1.45 1.822.466 5.442 1.702 9.845 3.362 17.888 6.745 26.16 7.084 34.977 1.434 2.567-1.645 9.1-8.82 8.528-9.382-.037-.036-5.738.188-12.67.498l-12.947.547c-.19-.01 5.075-.984 11.698-2.164l13.597-2.435-1.122-1.145c-5.775-5.894-14.425-8.854-21.764-7.447m268.2 10.235c-1.835.29-4.623 1.257-6.362 2.208-1.532.838-4.833 3.22-4.83 3.485 0 .083 4.225 1.234 9.387 2.557l9.325 2.466c-.033.034-4.314-.455-9.51-1.086l-9.68-1.148c-.584 0 2.54 4.604 4.384 6.458 6.292 6.33 13.297 6.922 29.09 2.463 3.087-.87 6.267-1.705 7.065-1.852 1.863-.343 1.828-.553-.326-1.977-.977-.647-3.274-2.333-5.103-3.746-10.652-8.23-16.914-10.856-23.44-9.828" fill="#d2a618"/><path d="M249.65 142.6c-1.994 2.968-6.545 9.15-8.922 12.12l-1.546 1.95c-2.744 3.504-7.52 8.372-9.464 9.644-2.565 1.68-4.035 1.697-7.736.093-7.967-3.452-21.254-15.063-24.62-21.514-1.092-2.093-.69.12.67 3.683 4.088 10.713 13.063 20.586 24.672 27.14 3.413 1.926 4.69 3.488 5.97 7.308 1.495 4.46 2.142 12.74 1.487 19.036l-.358 3.44c-.96 9.214-3.53 18.225-6.75 23.648-6.944 11.7-18.71 21.067-23.793 18.94-2.38-.995-.9-4.7 5.46-13.712 11.352-16.07 15.255-25.413 14.797-35.413l-.053-1.147-.317.688-1.164 2.638c-2.432 5.6-6.39 12.92-8.658 16.013-9.176 12.518-17.968 15.545-22.437 7.725-5.837-10.21-4.39-29.597 2.935-39.335 1.573-2.09 1.508-2.24-.544-1.245-2.98 1.443-6.62 5.64-9.134 10.534-6.87 13.375-7.434 30.792-1.398 43.234l1.026 2.122c.332.715-3.327-.48-5.488-1.793-10.984-6.672-19.726-25.002-21.652-45.397-.083-.883-.2-1.864-.26-2.18-1.165-6.118.18-25.97 2.55-37.628.315-1.552.53-2.864.48-2.915-.203-.204-2.17 2.594-2.993 4.257-1.798 3.635-2.538 6.32-4.72 17.134-2.012 9.96-3.515 13.52-6.33 14.974-4.82 2.494-24.65-6.032-36.685-15.773l-1.26-1.01c-1.64-1.292-3.585-3.04-5.936-5.336-3.024-2.953-2.943-2.916-2.158-.98 2.6 6.414 7.05 12.537 11.987 16.495.55.44 1.12.91 1.262 1.044 1.894 1.76 8.98 6.266 16.544 10.518.252.142.716.42 1.032.62l3.67 2.26c8.574 5.257 12.723 10.244 14.412 17.326.24 1.01.768 3.073 1.172 4.587 5.793 21.712 5.207 27.937-2.717 28.9-12.68 1.54-28.494-4.323-40.83-15.14-3.642-3.193-7.12-6.704-10.557-10.66-1.372-1.578-1.543-1.794-4.362-5.518-1.068-1.4-1.973-2.47-2.012-2.353-.236.71 2.34 7.545 3.845 10.2.5.884.91 1.65.91 1.7 0 .225 3.674 5.66 5.026 7.434 6.257 8.214 13.424 14.95 23.988 22.543 4.98 3.58 13.938 8.27 18.52 9.7 1.5.47 1.658.843.7 1.79-2.64 2.64-18.98 2.772-30.9.246l-3.312-.697c-2.174-.456-7.514-2.222-9-2.98-1.508-.765-1.57-.636-.465 1 2.817 4.148 10.062 8.09 20.796 11.313l9.405 2.804c.745.203 6.5 1.927 8.486 2.542 2.605.806 6.378 2.078 8.257 2.784l2.18.794c17.786 5.904 30.04 17.712 33.69 32.46 3.398 13.738-1.522 42.41-11.2 65.2-2.386 5.626-6.506 13.582-9.292 17.943-5.13 8.03-8.605 12.424-14.282 18.052-1.554 1.54-2.824 2.856-2.824 2.925s24.306.124 54.013.124l54.014-.17c0-.092-.45-.84-1-1.662-9.158-13.674-16.052-31.887-20.187-53.33-.446-2.313-1.667-10.943-1.85-13.074l-.238-2.408c-.943-7.58-.88-24.6.128-34.29 1.563-15.02 10.485-24.358 28.018-29.326 6.226-1.764 10.263-2.564 24.487-4.85 16.438-2.642 23.317-5.22 27.39-10.267 1.142-1.414 1.214-1.387-2.767-1.053-12.542 1.05-25.036-.015-30.152-2.57-5.404-2.7-4.388-4.927 4.496-9.846l2.064-1.145 2.064-1.148c.757-.42 2.133-1.21 3.058-1.758s1.73-.993 1.79-.993c.244 0 7.822-4.93 8.1-5.275.063-.075.476-.387.917-.692s.916-.664 1.055-.798.78-.645 1.423-1.136c5.2-3.958 10.486-11.245 12.053-16.583.422-1.44.456-1.43-1.183-.32-1.344.91-7.384 4.57-9.22 5.59l-1.95 1.097c-1.337.764-9.976 5.1-12.385 6.202-13.654 6.302-31.14 10.944-35.06 9.307-3.322-1.388.74-7.04 10.023-13.95 16.8-12.494 29.764-32.162 33.64-50.993 1.004-4.877 1.668-13.348 1.204-15.36l-.21-.918-.175 1.032c-.58 3.418-4.4 15.33-6.25 19.482l-.922 2.078c-9.07 20.566-24.128 34.11-38.29 34.436-3.51.08-5.056-4.203-5.807-16.087l-.6-9.404c-.71-11.37-1.84-18.33-3.722-22.902-1.235-2.997-.112-6.5 4.04-12.605.23-.34.677-1.03.992-1.534l1.506-2.41c4.277-6.83 6.654-12.692 7.274-17.947.21-1.77-.014-1.674-1.602.688m-27.06-.66c-5.785 3.593-1.315 17.43 5.3 16.435 3.83-.574 5.152-6.82 2.583-12.203-1.742-3.65-5.546-5.7-7.893-4.232m-97.818 19.133c-6.42 3.162-1.816 15.675 6.696 18.203 9.877 2.933 11.104-10.585 1.537-16.936-2.685-1.782-6.115-2.3-8.233-1.267m131.88 30.627c-4.023 1.5-7.205 8.386-6.435 13.927 1.33 9.566 10.94 9.197 14.22-.546 2.764-8.207-1.59-15.7-7.786-13.38m-57.824 3.11c-2.954 1.055-5.402 4.6-6.5 9.41-2.045 8.963 5.59 15.13 11.214 9.057 6.927-7.482 3.384-21.36-4.714-18.466m-70.414 24.926c-7.1 1.678-4.502 13.866 3.798 17.883 8.603 4.164 13.292-4.18 7.104-12.643-2.74-3.75-7.512-6.042-10.902-5.24m152.47 1.72c-7.896 2.895-10.055 15.078-2.67 15.07 7.026-.01 12.617-10.826 7.588-14.68-1.11-.85-3.204-1.017-4.918-.388" fill="#4c342c"/><path d="M343.45 235.84l-.674.746.746-.674c.694-.628.85-.817.673-.817-.04 0-.375.335-.745.745" fill="#305c1c"/></svg>