<?xml version="1.0" encoding="utf-8"?>
<!-- Generator: Adobe Illustrator 21.1.0, SVG Export Plug-In . SVG Version: 6.00 Build 0)  -->
<svg version="1.1" xmlns="http://www.w3.org/2000/svg" xmlns:xlink="http://www.w3.org/1999/xlink" x="0px" y="0px"
	 viewBox="0 0 2370 1005.9" style="enable-background:new 0 0 2370 1005.9;" xml:space="preserve">
<style type="text/css">
	.st0{fill:#FFFFFF;}
	.st1{fill:#FFF9D9;}
	.st2{fill:#EEFCFF;}
	.st3{fill:#9DBA43;}
	.st4{fill:#BAD36E;}
	.st5{display:none;}
	.st6{display:inline;fill:#BBE5FF;}
	.st7{display:inline;fill:#A1D2F7;}
	.st8{display:inline;fill:#D2F1FF;}
	.st9{display:inline;fill:#F5F5F5;}
	.st10{fill:#BBE5FF;}
	.st11{fill:#A1D2F7;}
	.st12{fill:#D2F1FF;}
	.st13{fill:#F5F5F5;}
	.st14{fill:#A6C658;}
	.st15{fill:#D2F9FF;}
	.st16{fill:#CDE079;}
	.st17{fill:#7C7C7C;}
	.st18{fill:#99E0FF;}
	.st19{fill:#89AF22;}
	.st20{fill:#F0FCFF;}
	.st21{fill:#B0CE52;}
	.st22{fill:#BAD670;}
	.st23{fill-rule:evenodd;clip-rule:evenodd;fill:#FFB448;}
	.st24{fill-rule:evenodd;clip-rule:evenodd;fill:#BBDCF9;}
	.st25{fill-rule:evenodd;clip-rule:evenodd;fill:#F29E38;}
	.st26{fill-rule:evenodd;clip-rule:evenodd;fill:#DD8D36;}
	.st27{fill-rule:evenodd;clip-rule:evenodd;fill:#565555;}
	.st28{fill-rule:evenodd;clip-rule:evenodd;fill:#DAE9EF;}
	.st29{fill-rule:evenodd;clip-rule:evenodd;fill:#686868;}
	.st30{fill-rule:evenodd;clip-rule:evenodd;fill:#FFF5E1;}
	.st31{fill:#87A840;}
	.st32{fill:#A89896;}
	.st33{fill:#42B1B7;}
	.st34{fill:#3896A0;}
	.st35{fill:#78716C;}
	.st36{fill:#B5B5B5;}
	.st37{fill:#CECECE;}
	.st38{fill:#66615D;}
	.st39{fill:#E5E5E5;}
	.st40{fill:#6D6764;}
	.st41{fill:#5B5653;}
	.st42{fill:#62B2BC;}
	.st43{fill:#AFAEAE;}
	.st44{fill:#C4C2C2;}
	.st45{fill:#448D99;}
	.st46{fill:#C1C1C1;}
	.st47{fill:#D3D2D1;}
	.st48{opacity:0.12;}
	.st49{fill:#BFBFBF;}
	.st50{fill:#999999;}
	.st51{fill:#66615E;}
	.st52{fill:#348693;}
	.st53{fill:#4E9FA8;}
	.st54{opacity:0.68;}
	.st55{opacity:0.15;}
	.st56{fill:#848484;}
	.st57{fill:#EAD9CE;}
	.st58{fill:#FFF4E6;}
	.st59{fill:#3D838E;}
	.st60{fill:#58B5BC;}
	.st61{fill:#72C5CE;}
	.st62{fill-rule:evenodd;clip-rule:evenodd;fill:#5DADE8;}
	.st63{fill-rule:evenodd;clip-rule:evenodd;fill:#A2D9F7;}
	.st64{fill-rule:evenodd;clip-rule:evenodd;fill:#3E80C1;}
	.st65{fill-rule:evenodd;clip-rule:evenodd;fill:#4B94D1;}
	.st66{fill-rule:evenodd;clip-rule:evenodd;fill:#ED5F4C;}
	.st67{fill:#B2877F;}
	.st68{fill:#A3786D;}
	.st69{fill:#90BC4A;}
	.st70{fill:#89AF41;}
	.st71{fill:#7E9E39;}
	.st72{fill:#D3EA8C;}
	.st73{fill:#9CB557;}
	.st74{fill:#A0837F;}
	.st75{fill:#967A74;}
</style>
<g id="background">
	<rect x="0" y="0" class="st0" width="2370" height="1005.9"/>
</g>
<g id="illustration">
	<g>
		<circle class="st1" cx="1146.5" cy="179.6" r="53"/>
		<polygon class="st2" points="2092.9,365.8 2092.9,379.9 2071,379.9 2071,365.8 1989.1,365.8 1989.4,384.8 1955.3,384.8 
			1955.3,324.4 1924,324.4 1924,287.6 1886.5,247.2 1853.1,287.6 1853.1,321.7 1814.2,321.7 1814.2,293.5 1750.9,254.7 
			1750.9,352.5 1718.1,352.5 1718.1,294 1667.9,294 1667.9,325.1 1622,325.1 1621.9,261.3 1574.9,261.3 1574.9,274.9 1555.3,274.9 
			1555.3,261.3 1508.2,261.3 1508.2,333.4 1404.6,334 1404.6,255.2 1367.8,255.2 1367.8,277 1331,277 1331,365.8 1203.2,365.9 
			1203.2,401 1157.1,401 1157.1,273.9 1081.7,273.9 1081.7,250.8 1055.8,250.8 1055.8,275.3 1009.3,275.3 1009.3,380.3 961.6,380.3 
			961.6,333.9 924.8,333.9 924.8,305.3 890.7,305.3 890.7,275.3 841.6,275.3 841.6,365.8 810.2,365.8 810.2,312.1 758.4,312.1 
			758.4,338 714.8,338 714.8,288.9 686.2,288.9 632.4,235.1 581.2,286.2 556.7,286.2 556.7,323.8 503.5,323.8 503.5,283.5 
			469.5,283.5 469.5,241.2 442.2,241.2 442.2,282.1 427.2,282.1 427.2,222.1 404,222.1 404,282.1 365.8,282.1 365.8,396.6 
			325,396.6 325,368 251.4,368 251.4,732 2113.5,733.3 2113.5,365.8 		"/>
		<path class="st3" d="M2195.9,696.4v-5c0-7.9-6.4-14.3-14.3-14.3h0c-53,0-133.7-19.2-133.7-19.2s-70.1-22.1-113.6-22.1
			c-43.5,0-113.6,22.1-113.6,22.1s-80.6,19.2-133.7,19.2h-5.8c-7.9,0-14.3,6.4-14.3,14.3v5H2195.9z"/>
		<path class="st4" d="M1824,704.7c-187.2-113.2-406.8-178.3-641.5-178.3s-454.3,65.2-641.5,178.3H1824z"/>
		<g class="st5">
			<polygon class="st6" points="1673.6,390.4 1678.1,672.4 1657.1,672.4 1661.6,390.4 			"/>
			<polygon class="st7" points="1678.1,672.4 1657.1,672.4 1658,633.1 1677.2,633.1 			"/>
			<polygon class="st7" points="1677,624 1658.2,624 1658.3,618.4 1676.9,618.4 			"/>
			<polygon class="st7" points="1670.8,397.2 1596.4,477 1596.5,470.1 1640.9,399.1 1665.2,391.9 			"/>
			<polygon class="st6" points="1654.2,415.1 1596.4,477 1596.5,470.1 1624.3,425.7 			"/>
			<polygon class="st7" points="1663.6,395.4 1631.6,291 1637.6,294.5 1676.9,368.5 1671,393.1 			"/>
			<polygon class="st6" points="1656.4,372 1631.6,291 1637.6,294.5 1662.2,340.8 			"/>
			<polygon class="st7" points="1668.5,390.1 1774.8,414.7 1768.8,418.1 1685.1,415.1 1666.8,397.7 			"/>
			<polygon class="st6" points="1692.3,395.6 1774.8,414.7 1768.8,418.1 1716.5,416.2 			"/>
			<polygon class="st8" points="1680.2,397.1 1676.4,384.7 1663.8,381.8 1655,391.3 1658.8,403.6 1671.4,406.5 			"/>
			
				<rect x="1656.4" y="390.9" transform="matrix(0.9563 -0.2925 0.2925 0.9563 -42.3723 504.9413)" class="st9" width="22.4" height="6.5"/>
		</g>
		<g>
			<polygon class="st10" points="1860.6,359.8 1865.9,693 1841.1,693 1846.4,359.8 			"/>
			<polygon class="st11" points="1865.9,693 1841.1,693 1842.1,646.6 1864.8,646.6 			"/>
			<polygon class="st11" points="1864.6,635.9 1842.4,635.9 1842.5,629.3 1864.4,629.3 			"/>
			<polygon class="st11" points="1857.3,367.9 1769.4,462.2 1769.5,454 1822,370.1 1850.6,361.6 			"/>
			<polygon class="st10" points="1837.7,389 1769.4,462.2 1769.5,454 1802.3,401.5 			"/>
			<polygon class="st11" points="1848.7,365.7 1811,242.4 1818.1,246.5 1864.4,334 1857.5,363 			"/>
			<polygon class="st10" points="1840.3,338.1 1811,242.4 1818.1,246.5 1847.1,301.2 			"/>
			<polygon class="st11" points="1854.6,359.5 1980.2,388.5 1973.1,392.5 1874.2,389 1852.5,368.4 			"/>
			<polygon class="st10" points="1882.7,366 1980.2,388.5 1973.1,392.5 1911.3,390.3 			"/>
			<polygon class="st12" points="1868.3,367.7 1863.9,353.1 1849,349.7 1838.6,360.9 1843.1,375.4 1857.9,378.9 			"/>
			
				<rect x="1840.3" y="360.4" transform="matrix(0.9563 -0.2925 0.2925 0.9563 -25.5004 558.0002)" class="st13" width="26.4" height="7.7"/>
		</g>
		<path class="st14" d="M2034.9,750.4v-5c0-7.9-7-14.3-15.6-14.3l0,0c-57.7,0-95.2-22.3-145.5-48.3c-53.8-27.7-72.4-47-123.6-47
			c-51.2,0-79.6,15.1-123.6,47c-45.3,32.8-87.8,48.3-145.5,48.3h-6.3c-8.6,0-15.6,6.4-15.6,14.3v5H2034.9z"/>
		<path class="st15" d="M1272.6,294.5c0-22.8-18.5-41.4-41.4-41.4c-22.8,0-41.4,18.5-41.4,41.4c0,3.3,0.4,6.4,1.1,9.5
			c-16.1,5.7-27.6,21-27.6,39c0,22.8,18.5,41.4,41.4,41.4c22.8,0,41.4-18.5,41.4-41.4c0-3.3-0.4-6.4-1.1-9.5
			C1261,327.8,1272.6,312.5,1272.6,294.5z"/>
		<path class="st3" d="M677,696.4v-5c0-7.9-6.4-14.3-14.3-14.3h0c-53,0-133.7-19.2-133.7-19.2s-70.1-22.1-113.6-22.1
			c-43.5,0-113.6,22.1-113.6,22.1S221.2,677,168.2,677h-5.8c-7.9,0-14.3,6.4-14.3,14.3v5H677z"/>
		<path class="st16" d="M1685.9,751.9v-5.6c0-8.8-7.2-16-16-16h0c-59.2,0-149.3-34.7-149.3-34.7s-65.2-27.8-126.9-27.8
			c-61.6,0-126.9,27.8-126.9,27.8s-90.1,34.7-149.3,34.7h-6.4c-8.8,0-16,7.2-16,16v5.6H1685.9z"/>
		<path class="st14" d="M872.3,750.4v-5c0-7.9-6.4-14.3-14.3-14.3h0c-53,0-87.4-22.3-133.7-48.3c-49.4-27.7-66.5-47-113.6-47
			c-47,0-73.1,15.1-113.6,47c-41.7,32.8-80.6,48.3-133.7,48.3h-5.8c-7.9,0-14.3,6.4-14.3,14.3v5H872.3z"/>
		<g>
			<polygon class="st10" points="566.8,369.1 561.5,702.4 586.3,702.4 581,369.1 			"/>
			<polygon class="st11" points="561.5,702.4 586.3,702.4 585.2,655.9 562.5,655.9 			"/>
			<polygon class="st11" points="562.8,645.2 585,645.2 584.8,638.6 562.9,638.6 			"/>
			<polygon class="st11" points="570,377.2 658,471.5 657.9,463.3 605.4,379.5 576.7,371 			"/>
			<polygon class="st10" points="589.7,398.3 658,471.5 657.9,463.3 625,410.9 			"/>
			<polygon class="st11" points="578.6,375 616.3,251.7 609.3,255.9 562.9,343.3 569.9,372.4 			"/>
			<polygon class="st10" points="587.1,347.5 616.3,251.7 609.3,255.9 580.3,310.6 			"/>
			<polygon class="st11" points="572.8,368.8 447.1,397.8 454.2,401.8 553.1,398.3 574.8,377.7 			"/>
			<polygon class="st10" points="544.7,375.3 447.1,397.8 454.2,401.8 516.1,399.6 			"/>
			<polygon class="st12" points="559,377.1 563.5,362.5 578.3,359 588.7,370.2 584.3,384.8 569.4,388.2 			"/>
			
				<rect x="570" y="360.4" transform="matrix(0.2925 -0.9563 0.9563 0.2925 48.7462 813.1316)" class="st13" width="7.7" height="26.4"/>
		</g>
		<g>
			<path class="st17" d="M2040.1,888.3H323.5c-71,0-128.7-57.7-128.7-128.7v-53.4h68.3v53.4c0,33.3,27.1,60.4,60.4,60.4h1716.6
				c38,0,68.9-30.9,68.9-68.9v-51.7h68.3v51.7C2177.3,826.7,2115.8,888.3,2040.1,888.3z"/>
		</g>
		<g>
			<path class="st0" d="M2040.1,857.8h-12V853h12c2.3,0,4.6-0.1,6.9-0.2l0.3,4.8C2045,857.7,2042.5,857.8,2040.1,857.8z M2009,857.8
				H1990V853h19.1V857.8z M1970.9,857.8h-19.1V853h19.1V857.8z M1932.8,857.8h-19.1V853h19.1V857.8z M1894.7,857.8h-19.1V853h19.1
				V857.8z M1856.5,857.8h-19.1V853h19.1V857.8z M1818.4,857.8h-19.1V853h19.1V857.8z M1780.3,857.8h-19.1V853h19.1V857.8z
				 M1742.1,857.8h-19.1V853h19.1V857.8z M1704,857.8h-19.1V853h19.1V857.8z M1665.9,857.8h-19.1V853h19.1V857.8z M1627.7,857.8
				h-19.1V853h19.1V857.8z M1589.6,857.8h-19.1V853h19.1V857.8z M1551.5,857.8h-19.1V853h19.1V857.8z M1513.3,857.8h-19.1V853h19.1
				V857.8z M1475.2,857.8h-19.1V853h19.1V857.8z M1437.1,857.8H1418V853h19.1V857.8z M1399,857.8h-19.1V853h19.1V857.8z
				 M1360.8,857.8h-19.1V853h19.1V857.8z M1322.7,857.8h-19.1V853h19.1V857.8z M1284.6,857.8h-19.1V853h19.1V857.8z M1246.4,857.8
				h-19.1V853h19.1V857.8z M1208.3,857.8h-19.1V853h19.1V857.8z M1170.2,857.8h-19.1V853h19.1V857.8z M1132,857.8H1113V853h19.1
				V857.8z M1093.9,857.8h-19.1V853h19.1V857.8z M1055.8,857.8h-19.1V853h19.1V857.8z M1017.6,857.8h-19.1V853h19.1V857.8z
				 M979.5,857.8h-19.1V853h19.1V857.8z M941.4,857.8h-19.1V853h19.1V857.8z M903.3,857.8h-19.1V853h19.1V857.8z M865.1,857.8h-19.1
				V853h19.1V857.8z M827,857.8h-19.1V853H827V857.8z M788.9,857.8h-19.1V853h19.1V857.8z M750.7,857.8h-19.1V853h19.1V857.8z
				 M712.6,857.8h-19.1V853h19.1V857.8z M674.5,857.8h-19.1V853h19.1V857.8z M636.3,857.8h-19.1V853h19.1V857.8z M598.2,857.8h-19.1
				V853h19.1V857.8z M560.1,857.8H541V853h19.1V857.8z M521.9,857.8h-19.1V853h19.1V857.8z M483.8,857.8h-19.1V853h19.1V857.8z
				 M445.7,857.8h-19.1V853h19.1V857.8z M407.6,857.8h-19.1V853h19.1V857.8z M369.4,857.8h-19.1V853h19.1V857.8z M331.3,857.8h-7.7
				c-3.9,0-7.8-0.2-11.6-0.7l0.6-4.7c3.6,0.4,7.3,0.7,11,0.7h7.7V857.8z M2066.6,854.4l-1.2-4.6c6-1.5,11.9-3.7,17.5-6.3l2,4.3
				C2079,850.6,2072.8,852.8,2066.6,854.4z M292.9,852.9c-6.2-2.1-12.2-4.7-17.8-8l2.4-4.1c5.4,3.1,11.1,5.7,16.9,7.6L292.9,852.9z
				 M2101.7,838l-2.8-3.9c5-3.6,9.7-7.7,14-12.2l3.4,3.3C2111.9,829.9,2106.9,834.2,2101.7,838z M259.3,833.5
				c-4.9-4.3-9.3-9.1-13.2-14.3l3.8-2.9c3.7,4.9,8,9.5,12.6,13.6L259.3,833.5z M2128.5,809.9l-4-2.6c3.4-5.2,6.3-10.7,8.7-16.4
				l4.4,1.8C2135.1,798.7,2132,804.5,2128.5,809.9z M236,802.4c-2.8-5.9-5-12.1-6.6-18.4l4.6-1.1c1.5,6,3.6,11.9,6.2,17.5L236,802.4
				z M2143.3,774.1l-4.7-1c1.3-6,2-12.3,2.1-18.5l4.8,0.1C2145.4,761.3,2144.6,767.8,2143.3,774.1z M226.7,764.8
				c-0.1-1.3-0.1-2.6-0.1-3.9v-15.2h4.8v15.2c0,1.2,0,2.5,0.1,3.7L226.7,764.8z M2145.6,735.7h-4.8v-19.1h4.8V735.7z M231.4,726.5
				h-4.8v-19.1h4.8V726.5z"/>
		</g>
		<path class="st18" d="M2100.4,782.6c-3.3,6.8-7.7,13-12.8,18.4c-12.5,13.1-29.7,21.5-48.8,21.5H330.9c-26.9,0-50.3-16.7-61.6-39.9
			H2100.4z"/>
		<path class="st19" d="M2107.8,751c0,11.2-2.7,22-7.4,31.6H269.3c-4.7-9.7-7.4-20.4-7.4-31.6H2107.8z"/>
		<path class="st20" d="M1726.5,207.5c0.3-1.6,0.4-3.2,0.4-4.8c0-14.8-12-26.8-26.8-26.8c-10.2,0-19,5.7-23.5,14
			c-4.3-4.4-10.2-7.2-16.8-7.2c-3.9,0-7.6,1-10.8,2.6c-5.1-9.2-14.9-15.5-26.2-15.5c-2.4,0-4.8,0.3-7.1,0.9
			c-4.2-14.2-17.3-24.5-32.8-24.5c-17.5,0-31.9,13.1-34,29.9c-1.2-0.2-2.4-0.3-3.7-0.3c-14.8,0-26.8,12-26.8,26.8
			c0,1.6,0.2,3.3,0.4,4.8H1726.5z"/>
		<path class="st16" d="M2244.6,751.1H120.4c-16.3,0-29.6-13.2-29.6-29.6v0c0-16.3,13.2-29.6,29.6-29.6h2124.2
			c16.3,0,29.6,13.2,29.6,29.6v0C2274.1,737.8,2260.9,751.1,2244.6,751.1z"/>
		<path class="st21" d="M2215.5,751.7H149.4c-7.9,0-14.3-6.4-14.3-14.3l0,0c0-7.9,6.4-14.3,14.3-14.3h2066.1
			c7.9,0,14.3,6.4,14.3,14.3C2229.8,745.3,2223.4,751.7,2215.5,751.7z"/>
		<g>
			<g>
				<path class="st22" d="M505.6,470.8c-3.4,3.5-3.1,9,0.8,12.3l12.4-12.6C514.9,467.2,509,467.3,505.6,470.8z"/>
			</g>
		</g>
		<g>
			<g>
				<path class="st22" d="M652.3,552.4c-4.1-2.7-9.4-1.3-11.9,3.2l14.8,9.7C657.6,560.9,656.3,555.1,652.3,552.4z"/>
			</g>
		</g>
		<g>
			<g>
				<path class="st22" d="M1629.2,529.8c-4.1-2.7-9.4-1.3-11.9,3.2l14.8,9.7C1634.5,538.3,1633.3,532.5,1629.2,529.8z"/>
			</g>
		</g>
		<g>
			<g>
				<path class="st22" d="M2154.7,570.6c-3.6,3.3-3.6,8.8,0.1,12.3l13.1-11.9C2164.3,567.5,2158.4,567.3,2154.7,570.6z"/>
			</g>
		</g>
		<g>
			<g>
				<path class="st22" d="M704.9,579c-4.7,3.3-5.4,9.7-1.7,14.3l16.9-11.9C716.4,576.8,709.6,575.7,704.9,579z"/>
			</g>
		</g>
		<g>
			<g>
				<path class="st22" d="M415.9,388.6c-7.8-4.6-17.5-1.6-21.8,6.8l28.1,16.8C426.4,403.8,423.6,393.2,415.9,388.6z"/>
			</g>
		</g>
		<g>
			<g>
				<path class="st22" d="M2069.5,452.1c-5,7.6-2.3,17.4,5.9,22l18-27.4C2085.1,442.1,2074.5,444.5,2069.5,452.1z"/>
			</g>
		</g>
		<g>
			<g>
				<path class="st22" d="M1792,528.2c-4.2-2.5-9.5-0.9-11.8,3.7l15.2,9.1C1797.7,536.4,1796.2,530.7,1792,528.2z"/>
			</g>
		</g>
		<g>
			<g>
				<path class="st22" d="M290.7,487.3c-4.8,5.7-3.6,14.1,2.7,18.7l17.5-20.8C304.6,480.6,295.6,481.6,290.7,487.3z"/>
			</g>
		</g>
		<g>
			<g>
				<path class="st22" d="M2134.7,494.3c-5.4-3.1-12.1-0.9-14.9,5l19.5,11.2C2142.2,504.6,2140.1,497.3,2134.7,494.3z"/>
			</g>
		</g>
		<path class="st20" d="M580.3,180c-13.5,0-24.4,10.9-24.4,24.4h48.8C604.7,190.9,593.7,180,580.3,180z"/>
		<path class="st20" d="M2083.1,260c-6,0-11.5,2.3-15.7,6.1c-5.8-9.4-16.1-15.6-28-15.6c-18.2,0-32.9,14.7-32.9,32.9h53.2h12.6h34
			C2106.4,270.4,2095.9,260,2083.1,260z"/>
		<path class="st20" d="M942.3,209.1C942.3,209.1,942.3,209.1,942.3,209.1c0-20.6-16.7-37.3-37.3-37.3c-12,0-22.6,5.6-29.4,14.4
			c-6.6-15.2-21.8-25.8-39.4-25.8c-15.2,0-28.5,7.9-36.2,19.8c-6.4-5.3-14.6-8.4-23.6-8.4c-20.6,0-37.3,16.7-37.3,37.3
			c0,0,0,0,0,0.1H942.3z"/>
		<g>
			<polygon class="st10" points="753.7,399.9 749.2,681.9 770.2,681.9 765.7,399.9 			"/>
			<polygon class="st11" points="749.2,681.9 770.2,681.9 769.3,642.6 750.1,642.6 			"/>
			<polygon class="st11" points="750.3,633.5 769.1,633.5 769,627.9 750.4,627.9 			"/>
			<polygon class="st11" points="756.4,406.7 830.9,486.5 830.8,479.6 786.3,408.6 762.1,401.4 			"/>
			<polygon class="st10" points="773.1,424.6 830.9,486.5 830.8,479.6 803,435.2 			"/>
			<polygon class="st11" points="763.7,404.9 795.6,300.5 789.7,304 750.4,378 756.3,402.6 			"/>
			<polygon class="st10" points="770.8,381.5 795.6,300.5 789.7,304 765.1,350.3 			"/>
			<polygon class="st11" points="758.8,399.6 652.4,424.2 658.5,427.6 742.1,424.6 760.5,407.2 			"/>
			<polygon class="st10" points="735,405.1 652.4,424.2 658.5,427.6 710.8,425.7 			"/>
			<polygon class="st12" points="747.1,406.6 750.9,394.2 763.5,391.3 772.3,400.8 768.5,413.1 755.9,416 			"/>
			
				<rect x="756.4" y="392.5" transform="matrix(0.2925 -0.9563 0.9563 0.2925 151.4753 1012.0908)" class="st13" width="6.5" height="22.4"/>
		</g>
		<g>
			<path class="st23" d="M851.8,855.2c0.5,6.3-5.2,11.5-11.5,11.5H654.4l-11.4-2.3c-6.2-1.3-11.5-5.2-11.5-11.5
				c0-11.6-2.1-32.3,5.9-45.1c9.2-14.9,69.3-15.9,102-11.5c24.5,3.3,35.7,12.5,55.3,20.5C833.1,832.4,848.6,811.5,851.8,855.2z"/>
			<path class="st24" d="M650.1,808.6c10.7-8.5,38.3-9.8,49.7-9.9c14.6-0.1,31.2,0.8,45.6,4.2c14.5,3.4,26.9,9.4,38.7,18.7
				l-139.6-2.9C645,816.1,646.9,811.1,650.1,808.6z"/>
			<path class="st25" d="M650.1,808.6c-3.2,2.5-5.1,7.6-5.6,10.1l139.6,2.9c-11.8-9.3-24.2-15.3-38.7-18.7
				c-14.4-3.4-31-4.3-45.6-4.2C688.4,798.7,660.8,800.1,650.1,808.6L650.1,808.6z M646.6,817.1c0.9-2.7,2.6-5.7,4.5-7.3
				c10-7.9,36.1-9.5,48.7-9.5c14.8-0.1,30.8,0.7,45.2,4.1c12.7,3,23.7,8,34.1,15.4L646.6,817.1z"/>
			<path class="st25" d="M822.3,833.4h-13.5c-9.5,0-15.7,6.7-18.5,14.9h-91.7c-2.9-8.2-9.1-14.9-18.5-14.9h-13.5
				c-9.1,0-15.1,6.2-18.2,13.9l-6.6-1.3c-3.9-0.8-7.8-3-10.6-5.8c0,4.8,0.2,9.2,0.2,12.7c0,6.3,5.3,10.3,11.5,11.5l11.4,2.3h185.9
				c6.3,0,12-5.2,11.5-11.5c-0.3-4.3-0.8-7.9-1.4-11.1c-2.9,2.3-5.7,4.2-9,4.2h-0.6C838,840.1,831.8,833.4,822.3,833.4z"/>
			<path class="st26" d="M680.1,836.9h-13.5c-9,0-14.4,7.5-16.3,16.3c-0.3,1.5-0.8,3.5-1.3,5.5l-6-1.2c-4-0.8-8.8-2.7-11.5-5.7
				c0,0.4,0,0.7,0,1.1c0,6.3,5.3,10.3,11.5,11.5l4.7,1l0,0l6.5,1.3h0.1l0.1,0h44.5h91h50.3c6.3,0,12-5.2,11.5-11.5
				c0-0.3,0-0.5-0.1-0.8c-2.8,2.8-7.6,5.4-11.5,5.4H840l-1.4-6.6c-1.9-8.8-7.3-16.3-16.3-16.3h-13.5c-9,0-14.4,7.5-16.3,16.3
				l-1.4,6.6h-93.3l-1.4-6.6C694.5,844.4,689,836.9,680.1,836.9z"/>
			<path class="st27" d="M815.6,880.8c-10.2,0-18.6-8.3-18.6-18.6c0-10.2,8.3-18.6,18.6-18.6c10.2,0,18.6,8.3,18.6,18.6
				C834.1,872.4,825.8,880.8,815.6,880.8z"/>
			<path class="st28" d="M815.6,874c-6.5,0-11.8-5.3-11.8-11.8c0-6.5,5.3-11.8,11.8-11.8c6.5,0,11.8,5.3,11.8,11.8
				C827.4,868.7,822.1,874,815.6,874z"/>
			<path class="st29" d="M815.6,861.1c0.7,0,1.2,0.5,1.2,1.2s-0.5,1.2-1.2,1.2c-0.7,0-1.2-0.5-1.2-1.2S814.9,861.1,815.6,861.1
				L815.6,861.1z M812.5,853.4c0.2,0.2,0.4,0.4,0.6,0.7c0.4,0.7,0.4,2.1,0.3,3.1c-0.1,1.3-0.3,1.4-1.6,1.6c-1,0.1-2.4,0.2-3.1-0.3
				c-0.6-0.3-0.9-0.8-1.1-1.2C808.7,855.6,810.4,854.2,812.5,853.4L812.5,853.4z M806.2,862.9c0.2-0.1,0.5-0.3,0.8-0.4
				c0.8-0.2,2.1,0.2,3.1,0.6c1.2,0.4,1.3,0.6,1.1,1.9c-0.2,1-0.5,2.4-1.1,2.9c-0.5,0.4-1,0.7-1.4,0.7
				C807.3,867.1,806.4,865.1,806.2,862.9L806.2,862.9z M812.4,871.1c-0.1-0.3-0.1-0.7,0-1.2c0.2-0.8,1.2-1.7,2-2.4
				c1-0.8,1.3-0.8,2.2,0c0.8,0.6,1.8,1.6,2,2.4c0.1,0.4,0.1,0.8,0,1.2c-1,0.4-2.1,0.6-3.2,0.6C814.5,871.7,813.4,871.5,812.4,871.1
				L812.4,871.1z M822.4,868.7c-0.5,0-1-0.3-1.4-0.7c-0.6-0.6-0.9-1.9-1.1-2.9c-0.2-1.3-0.1-1.5,1.1-1.9c0.9-0.4,2.3-0.8,3.1-0.6
				c0.3,0.1,0.6,0.2,0.8,0.4C824.8,865.1,823.9,867.1,822.4,868.7L822.4,868.7z M823.5,857.4c-0.1,0.4-0.5,0.9-1.1,1.2
				c-0.7,0.4-2.1,0.4-3.1,0.3c-1.2-0.1-1.4-0.2-1.6-1.6c-0.1-1-0.2-2.4,0.3-3.1c0.2-0.3,0.4-0.5,0.6-0.7
				C820.7,854.2,822.4,855.6,823.5,857.4L823.5,857.4z M815.6,864.9c0.4,0,0.7,0.3,0.7,0.7s-0.3,0.7-0.7,0.7c-0.4,0-0.7-0.3-0.7-0.7
				S815.2,864.9,815.6,864.9L815.6,864.9z M812.8,862.8c0.4,0,0.7,0.3,0.7,0.7c0,0.4-0.3,0.7-0.7,0.7s-0.7-0.3-0.7-0.7
				C812.1,863.1,812.4,862.8,812.8,862.8L812.8,862.8z M818.4,862.8c0.4,0,0.7,0.3,0.7,0.7c0,0.4-0.3,0.7-0.7,0.7
				c-0.4,0-0.7-0.3-0.7-0.7C817.7,863.1,818,862.8,818.4,862.8L818.4,862.8z M813.7,859.1c0.4,0,0.7,0.3,0.7,0.7
				c0,0.4-0.3,0.7-0.7,0.7c-0.4,0-0.7-0.3-0.7-0.7C813,859.4,813.3,859.1,813.7,859.1L813.7,859.1z M818.1,859.8
				c0,0.4-0.3,0.7-0.7,0.7c-0.4,0-0.7-0.3-0.7-0.7c0-0.4,0.3-0.7,0.7-0.7C817.8,859.1,818.1,859.4,818.1,859.8z"/>
			<path class="st27" d="M673.3,880.8c-10.2,0-18.6-8.3-18.6-18.6c0-10.2,8.3-18.6,18.6-18.6c10.2,0,18.6,8.3,18.6,18.6
				C691.9,872.4,683.5,880.8,673.3,880.8z"/>
			<path class="st28" d="M673.3,874c-6.5,0-11.8-5.3-11.8-11.8c0-6.5,5.3-11.8,11.8-11.8c6.5,0,11.8,5.3,11.8,11.8
				C685.1,868.7,679.8,874,673.3,874z"/>
			<path class="st29" d="M673.3,861.1c0.7,0,1.2,0.5,1.2,1.2s-0.5,1.2-1.2,1.2c-0.7,0-1.2-0.5-1.2-1.2S672.7,861.1,673.3,861.1
				L673.3,861.1z M670.2,853.4c0.2,0.2,0.4,0.4,0.6,0.7c0.4,0.7,0.4,2.1,0.3,3.1c-0.1,1.3-0.3,1.4-1.6,1.6c-1,0.1-2.4,0.2-3.1-0.3
				c-0.6-0.3-0.9-0.8-1.1-1.2C666.5,855.6,668.2,854.2,670.2,853.4L670.2,853.4z M664,862.9c0.2-0.1,0.5-0.3,0.8-0.4
				c0.8-0.2,2.1,0.2,3.1,0.6c1.2,0.4,1.3,0.6,1.1,1.9c-0.2,1-0.5,2.4-1.1,2.9c-0.5,0.4-1,0.7-1.4,0.7
				C665,867.1,664.1,865.1,664,862.9L664,862.9z M670.1,871.1c-0.1-0.3-0.1-0.7,0-1.2c0.2-0.8,1.2-1.7,2-2.4c1-0.8,1.3-0.8,2.2,0
				c0.8,0.6,1.8,1.6,2,2.4c0.1,0.4,0.1,0.8,0,1.2c-1,0.4-2.1,0.6-3.2,0.6C672.2,871.7,671.1,871.5,670.1,871.1L670.1,871.1z
				 M680.2,868.7c-0.5,0-1-0.3-1.4-0.7c-0.6-0.6-0.9-1.9-1.1-2.9c-0.2-1.3-0.1-1.5,1.1-1.9c0.9-0.4,2.3-0.8,3.1-0.6
				c0.3,0.1,0.6,0.2,0.8,0.4C682.5,865.1,681.6,867.1,680.2,868.7L680.2,868.7z M681.3,857.4c-0.1,0.4-0.5,0.9-1.1,1.2
				c-0.7,0.4-2.1,0.4-3.1,0.3c-1.2-0.1-1.4-0.2-1.6-1.6c-0.1-1-0.2-2.4,0.3-3.1c0.2-0.3,0.4-0.5,0.6-0.7
				C678.4,854.2,680.2,855.6,681.3,857.4L681.3,857.4z M673.3,864.9c0.4,0,0.7,0.3,0.7,0.7s-0.3,0.7-0.7,0.7c-0.4,0-0.7-0.3-0.7-0.7
				S672.9,864.9,673.3,864.9L673.3,864.9z M670.5,862.8c0.4,0,0.7,0.3,0.7,0.7c0,0.4-0.3,0.7-0.7,0.7c-0.4,0-0.7-0.3-0.7-0.7
				C669.8,863.1,670.1,862.8,670.5,862.8L670.5,862.8z M676.1,862.8c0.4,0,0.7,0.3,0.7,0.7c0,0.4-0.3,0.7-0.7,0.7s-0.7-0.3-0.7-0.7
				C675.4,863.1,675.7,862.8,676.1,862.8L676.1,862.8z M671.4,859.1c0.4,0,0.7,0.3,0.7,0.7c0,0.4-0.3,0.7-0.7,0.7s-0.7-0.3-0.7-0.7
				C670.7,859.4,671,859.1,671.4,859.1L671.4,859.1z M675.9,859.8c0,0.4-0.3,0.7-0.7,0.7c-0.4,0-0.7-0.3-0.7-0.7
				c0-0.4,0.3-0.7,0.7-0.7C675.6,859.1,675.9,859.4,675.9,859.8z"/>
			<path class="st30" d="M845.6,830.9l-6.1,0c-4.3,0-1.4,5.4,0.6,8c1.5,2,6.4,1.1,9.4,0.3C848.4,835.6,847.1,832.9,845.6,830.9z"/>
			<path class="st25" d="M632.1,824h9.5c4.7,0,0.6,10.4-5.5,10.4h-4.8C631.4,830.9,631.6,827.4,632.1,824z"/>
			<path class="st25" d="M724.6,799.6l-2.3,20.7l7.1,0.1l2.3-20C729.3,800.1,726.9,799.8,724.6,799.6z"/>
			<path class="st25" d="M686.8,799.1l-2.4,20.4l3.4,0.1l2.3-20.6C689.1,799,687.8,799.1,686.8,799.1z"/>
			<path class="st25" d="M770.8,812.6l-2.3,8.6l15.7,0.3C779.8,818.2,775.3,815.2,770.8,812.6z"/>
			<path class="st26" d="M727.6,801l-2.2,19.3l1.2,43.1h1.2l-1.2-43.1l2.2-19.2c5.6,0.6,11.2,1.5,16.6,2.8
				c18.7,4.4,32,12.1,46.4,22.8l-4.6,36.6l1.2-0.1l4.7-37.1c-15.2-11.3-28.1-18.9-47.3-23.4c-14.4-3.4-31-4.3-45.6-4.2
				c-3,0-9.3,0.1-13.9,0.4l-3.1,25.8l3.1,21.7l1.1-0.1l-3.1-21.6l2.9-24.8c4-0.2,9.9-0.3,12.8-0.3C709,799.8,718.4,800.1,727.6,801z
				"/>
			<path class="st23" d="M767.1,812.1c-2.3-0.2-2.8-0.7-2.8,1.4c0,2-0.3,6.2,1.2,6.8c1.5,0.6,5.2,0.5,5.9-0.6
				c0.7-1.2,0.9-2.7,0.2-4.6C770.7,813.1,769.2,812.2,767.1,812.1z"/>
			<path class="st25" d="M771.7,818.8c-0.9-0.3-2.2-0.7-4.2-0.8c-1.3-0.1-2.3-0.1-3.2-0.1c0.1,1.1,0.4,2,1.1,2.3
				c1.5,0.6,5.2,0.5,5.9-0.6C771.5,819.4,771.6,819.1,771.7,818.8z"/>
			<path class="st25" d="M739.7,822.9l-9.2-0.2c-0.9,0-1.7,0.7-1.7,1.7v0c0,0.9,0.7,1.7,1.7,1.7l9.2,0.2c0.9,0,1.7-0.7,1.7-1.7v0
				C741.4,823.7,740.6,823,739.7,822.9z"/>
			<path class="st25" d="M740.6,823.9l-11.1-0.2c-0.4,0-0.8,0.3-0.8,0.8l0,0c0,0.4,0.3,0.8,0.8,0.8l11.1,0.2c0.4,0,0.8-0.3,0.8-0.8
				l0,0C741.4,824.3,741,823.9,740.6,823.9z"/>
			<path class="st25" d="M700,822.1l-9.2-0.2c-0.9,0-1.7,0.7-1.7,1.7v0c0,0.9,0.7,1.7,1.7,1.7l9.2,0.2c0.9,0,1.7-0.7,1.7-1.7v0
				C701.7,822.9,701,822.1,700,822.1z"/>
			<path class="st25" d="M701,823.1l-11.1-0.2c-0.4,0-0.8,0.3-0.8,0.8l0,0c0,0.4,0.3,0.8,0.8,0.8l11.1,0.2c0.4,0,0.8-0.3,0.8-0.8
				l0,0C701.7,823.4,701.4,823.1,701,823.1z"/>
		</g>
		<g>
			<polygon class="st31" points="594.2,677.7 601.5,659.7 598.6,659.7 606.1,641.3 603.2,641.3 610.8,622.7 607.4,622.7 
				618.4,595.9 629.4,622.7 626,622.7 633.6,641.3 630.6,641.3 638.2,659.7 635.2,659.7 642.6,677.7 			"/>
			
				<rect x="615.3" y="677.7" transform="matrix(-1 -1.224647e-16 1.224647e-16 -1 1237.0922 1368.4812)" class="st32" width="6.5" height="13"/>
		</g>
		<g>
			<polygon class="st31" points="2080.2,679.1 2087.6,661.1 2084.6,661.1 2092.2,642.7 2089.2,642.7 2096.8,624.1 2093.4,624.1 
				2104.4,597.3 2115.4,624.1 2112,624.1 2119.6,642.7 2116.7,642.7 2124.2,661.1 2121.3,661.1 2128.6,679.1 			"/>
			
				<rect x="2101.3" y="679.1" transform="matrix(-1 -1.224647e-16 1.224647e-16 -1 4209.1143 1371.2722)" class="st32" width="6.5" height="13"/>
		</g>
		<g>
			<polygon class="st31" points="220.1,676.7 228,657.3 224.9,657.3 233,637.6 229.8,637.6 237.9,617.6 234.3,617.6 246.1,588.8 
				257.9,617.6 254.3,617.6 262.5,637.6 259.3,637.6 267.4,657.3 264.2,657.3 272.2,676.7 			"/>
			
				<rect x="242.8" y="676.7" transform="matrix(-1 -1.224647e-16 1.224647e-16 -1 492.5765 1367.5048)" class="st32" width="7" height="14"/>
		</g>
		<g>
			<polygon class="st31" points="500.1,664.6 506.1,650 503.7,650 509.8,635.2 507.4,635.2 513.6,620.2 510.8,620.2 519.7,598.5 
				528.6,620.2 525.9,620.2 532,635.2 529.6,635.2 535.7,650 533.3,650 539.3,664.6 			"/>
			
				<rect x="517.2" y="664.6" transform="matrix(-1 -1.224647e-16 1.224647e-16 -1 1039.676 1339.8025)" class="st32" width="5.3" height="10.6"/>
		</g>
		<g>
			<polygon class="st31" points="2200,680.5 2206,665.9 2203.7,665.9 2209.7,651.1 2207.3,651.1 2213.5,636.1 2210.8,636.1 
				2219.6,614.4 2228.5,636.1 2225.8,636.1 2231.9,651.1 2229.5,651.1 2235.6,665.9 2233.3,665.9 2239.2,680.5 			"/>
			
				<rect x="2217.1" y="680.5" transform="matrix(-1 -1.224647e-16 1.224647e-16 -1 4439.5073 1371.6108)" class="st32" width="5.3" height="10.6"/>
		</g>
		<g>
			<polygon class="st31" points="1591.6,636.9 1597.5,622.3 1595.2,622.3 1601.2,607.4 1598.8,607.4 1605,592.4 1602.3,592.4 
				1611.1,570.7 1620,592.4 1617.3,592.4 1623.4,607.4 1621.1,607.4 1627.1,622.3 1624.8,622.3 1630.7,636.9 			"/>
			
				<rect x="1608.6" y="636.9" transform="matrix(-1 -1.224647e-16 1.224647e-16 -1 3222.5393 1284.278)" class="st32" width="5.3" height="10.6"/>
		</g>
		<path class="st15" d="M1180.3,197.3c-0.8,3.9-0.7,7.7,0.2,11.4c-4.6,2.8-8.1,7.4-9.3,13c-2.3,10.8,4.7,21.5,15.5,23.7
			c10.8,2.3,21.5-4.7,23.7-15.5c0.2-0.7,0.3-1.5,0.3-2.2c9.7-2.1,17.7-9.6,19.9-19.9c2.9-13.9-6-27.6-19.9-30.5
			C1196.9,174.5,1183.2,183.4,1180.3,197.3z"/>
		<circle class="st15" cx="1266.1" cy="211.3" r="10.1"/>
		<path class="st15" d="M1253.5,136.8c-1.1-6.7-6.9-11.9-13.9-11.9c-7.8,0-14.1,6.3-14.1,14.1c0,6,3.8,11.2,9.1,13.2
			c0,0.3,0,0.6,0,0.9c0,9.1,7.4,16.5,16.5,16.5c9.1,0,16.5-7.4,16.5-16.5C1267.6,144.8,1261.5,137.9,1253.5,136.8z"/>
		<g>
			<path class="st33" d="M1557.4,643.8v5.3c20,0,35.1,12.6,35.1,30.2v38h5V677c0-18.3-12.6-33.2-33.2-33.2H1557.4z"/>
			<path class="st34" d="M1557.4,649.2v6.1h6.9c12,0,21.7,9.8,21.7,21.7v40.4h6.5v-38C1592.5,661.7,1581.6,649.2,1557.4,649.2z"/>
			<path class="st34" d="M1596.8,671.6c-1.3-0.5-2.8-0.8-4.3-0.8c-6.7,0-12.2,5.4-12.2,12.2c0,3.4,1.4,6.5,3.7,8.7
				c2.2,2.2,5.2,3.5,8.5,3.5c6.7,0,12.2-5.5,12.2-12.2C1604.7,677.8,1601.4,673.3,1596.8,671.6z"/>
			<path class="st33" d="M1596.8,671.6c-1.3-0.5-2.8-0.8-4.3-0.8c-2.2,0-4.3,0.6-6.1,1.6c0.6-0.1,1.2-0.2,1.9-0.2
				c1.5,0,3,0.3,4.3,0.8c4.6,1.7,7.8,6.2,7.8,11.4c0,4.5-2.4,8.4-6.1,10.5c5.8-0.9,10.3-5.9,10.3-12
				C1604.7,677.8,1601.4,673.3,1596.8,671.6z"/>
			<rect x="1557.4" y="713.5" class="st35" width="65.3" height="9.6"/>
			<g>
				<polygon class="st34" points="1211.1,342.3 1211.1,320.8 1141.7,320.8 1141.7,342.3 1211.1,342.3 				"/>
				<polygon class="st36" points="1211.1,355.8 1211.1,355.8 1141.7,355.8 1141.4,355.8 1115.1,705 1211.1,705 				"/>
				<polygon class="st34" points="1115.1,700.6 1094.3,700.6 1094.3,723.3 1113.4,723.3 1211.1,723.3 1211.1,700.6 				"/>
				<rect x="1211.1" y="320.8" class="st33" width="69.4" height="21.5"/>
				<polygon class="st37" points="1211.1,705 1307.2,705 1280.9,355.8 1280.5,355.8 1211.1,355.8 				"/>
				<polygon class="st33" points="1307.2,700.6 1211.1,700.6 1211.1,723.3 1308.8,723.3 1327.9,723.3 1327.9,700.6 				"/>
				<rect x="1141.7" y="342.3" class="st38" width="69.4" height="13.5"/>
				<rect x="1211.1" y="342.3" class="st35" width="69.4" height="13.5"/>
			</g>
			<g>
				<rect x="1262.6" y="515.3" class="st39" width="107.9" height="208.1"/>
				<rect x="1342.8" y="515.3" class="st13" width="215.8" height="208.1"/>
				<rect x="1333.3" y="504.1" class="st35" width="234.8" height="11.2"/>
				<rect x="1253.1" y="504.1" class="st38" width="100.9" height="11.2"/>
				<rect x="1333.3" y="515.3" class="st40" width="234.8" height="2.9"/>
				<rect x="1253.1" y="515.3" class="st41" width="100.9" height="2.9"/>
				<g>
					<rect x="1375.5" y="560.6" class="st42" width="58.8" height="21.1"/>
					<g>
						<polygon class="st43" points="1436.8,558.1 1434,560.9 1375.5,560.9 1375.5,558.2 1375.5,558.1 						"/>
						<polygon class="st44" points="1434,560.9 1434,581.6 1436.8,581.6 1436.8,558.1 						"/>
					</g>
					<rect x="1431" y="561" class="st45" width="3" height="20.6"/>
					
						<rect x="1403.2" y="533.1" transform="matrix(6.123234e-17 -1 1 6.123234e-17 842.3551 1967.0406)" class="st45" width="3" height="58.4"/>
				</g>
				<g>
					<rect x="1466.6" y="560.6" class="st42" width="58.8" height="21.1"/>
					<g>
						<polygon class="st43" points="1527.9,558.1 1525.1,560.9 1466.6,560.9 1466.6,558.2 1466.6,558.1 						"/>
						<polygon class="st44" points="1525.1,560.9 1525.1,581.6 1527.9,581.6 1527.9,558.1 						"/>
					</g>
					<rect x="1522.1" y="561" class="st45" width="3" height="20.6"/>
					
						<rect x="1494.3" y="533.1" transform="matrix(6.123234e-17 -1 1 6.123234e-17 933.4542 2058.1399)" class="st45" width="3" height="58.4"/>
				</g>
				<g>
					<rect x="1375.5" y="606.8" class="st42" width="58.8" height="21.1"/>
					<g>
						<polygon class="st43" points="1436.8,604.3 1434,607.1 1375.5,607.1 1375.5,604.4 1375.5,604.3 						"/>
						<polygon class="st44" points="1434,607.1 1434,627.8 1436.8,627.8 1436.8,604.3 						"/>
					</g>
					<rect x="1431" y="607.2" class="st45" width="3" height="20.6"/>
					
						<rect x="1403.2" y="579.3" transform="matrix(6.123234e-17 -1 1 6.123234e-17 796.1727 2013.223)" class="st45" width="3" height="58.4"/>
				</g>
				<g>
					<rect x="1466.6" y="606.8" class="st42" width="58.8" height="21.1"/>
					<g>
						<polygon class="st43" points="1527.9,604.3 1525.1,607.1 1466.6,607.1 1466.6,604.4 1466.6,604.3 						"/>
						<polygon class="st44" points="1525.1,607.1 1525.1,627.8 1527.9,627.8 1527.9,604.3 						"/>
					</g>
					<rect x="1522.1" y="607.2" class="st45" width="3" height="20.6"/>
					
						<rect x="1494.3" y="579.3" transform="matrix(6.123234e-17 -1 1 6.123234e-17 887.2719 2104.3223)" class="st45" width="3" height="58.4"/>
				</g>
				<g>
					<rect x="1375.5" y="652.9" class="st42" width="58.8" height="21.1"/>
					<g>
						<polygon class="st43" points="1436.8,650.5 1434,653.3 1375.5,653.3 1375.5,650.6 1375.5,650.5 						"/>
						<polygon class="st44" points="1434,653.2 1434,674 1436.8,674 1436.8,650.5 						"/>
					</g>
					<rect x="1431" y="653.3" class="st45" width="3" height="20.6"/>
					
						<rect x="1403.2" y="625.5" transform="matrix(6.123234e-17 -1 1 6.123234e-17 749.9904 2059.4055)" class="st45" width="3" height="58.4"/>
				</g>
				<g>
					<rect x="1466.6" y="652.9" class="st42" width="58.8" height="21.1"/>
					<g>
						<polygon class="st43" points="1527.9,650.5 1525.1,653.3 1466.6,653.3 1466.6,650.6 1466.6,650.5 						"/>
						<polygon class="st44" points="1525.1,653.2 1525.1,674 1527.9,674 1527.9,650.5 						"/>
					</g>
					<rect x="1522.1" y="653.3" class="st45" width="3" height="20.6"/>
					
						<rect x="1494.3" y="625.5" transform="matrix(6.123234e-17 -1 1 6.123234e-17 841.0895 2150.5046)" class="st45" width="3" height="58.4"/>
				</g>
				<rect x="1262.6" y="711.6" class="st46" width="80.2" height="11.8"/>
				<rect x="1342.8" y="711.6" class="st47" width="215.8" height="11.8"/>
				<rect x="1262.6" y="518.2" class="st48" width="296" height="5.8"/>
			</g>
			<g>
				<path class="st33" d="M846.7,550.5h227.8c-25.2-35.9-66.8-59.3-113.9-59.3l0,0C913.5,491.2,871.8,514.7,846.7,550.5z"/>
				<path class="st34" d="M984.6,493.3c-7.8-1.4-15.8-2.1-24-2.1c-47.1,0-88.8,23.5-113.9,59.3h47.9
					C915.4,520.9,947.5,499.7,984.6,493.3z"/>
				<rect x="1109.7" y="635.6" class="st13" width="181.3" height="88"/>
				<rect x="1109.7" y="635.6" class="st39" width="77.1" height="88"/>
				<rect x="820.1" y="550.5" class="st39" width="121.6" height="159.5"/>
				<rect x="909.3" y="550.5" class="st13" width="190.4" height="159.5"/>
				<rect x="905.1" y="700.9" class="st49" width="204.1" height="22.7"/>
				<rect x="809.4" y="700.9" class="st50" width="110.4" height="22.7"/>
				<g>
					<path class="st33" d="M1478.4,378.7H1426v-8c0-5.9,2-11.3,5.2-15.6l0,0l0.2-0.2c0.7-0.9,1.5-1.9,2.3-2.7l18.5-21.5l18.5,21.5
						c0.8,0.8,1.6,1.8,2.3,2.7l0.2,0.2l0,0c3.3,4.4,5.2,9.8,5.2,15.6V378.7z"/>
					<rect x="1426" y="385.1" class="st33" width="52.3" height="62.6"/>
					<rect x="1434.4" y="378.7" class="st34" width="35.6" height="6.5"/>
					<path class="st34" d="M1426,378.6v-8c0-5.9,2-11.3,5.2-15.6l0,0l0.2-0.2c0.7-0.9,1.5-1.9,2.3-2.7l18.5-21.5c0,0-4.4,24-4.4,48
						H1426z"/>
					<rect x="1426" y="385.1" class="st34" width="22.8" height="62.7"/>
					<path class="st33" d="M1403.1,378.7h-52.3v-8c0-5.9,2-11.3,5.2-15.6l0,0l0.2-0.2c0.7-0.9,1.5-1.9,2.3-2.7l18.5-21.5l18.5,21.5
						c0.8,0.8,1.6,1.8,2.3,2.7l0.2,0.2l0,0c3.3,4.4,5.2,9.8,5.2,15.6V378.7z"/>
					<rect x="1350.7" y="385.1" class="st33" width="52.3" height="62.6"/>
					<rect x="1359.1" y="378.7" class="st34" width="35.6" height="6.5"/>
					<path class="st34" d="M1350.7,378.6v-8c0-5.9,2-11.3,5.2-15.6l0,0l0.2-0.2c0.7-0.9,1.5-1.9,2.3-2.7l18.5-21.5
						c0,0-4.8,24-4.8,48H1350.7z"/>
					<rect x="1350.7" y="385.1" class="st34" width="21.4" height="62.7"/>
					<rect x="1403.1" y="403.1" class="st35" width="28.4" height="7.3"/>
					<rect x="1403.1" y="409.2" class="st51" width="28.4" height="2.2"/>
					<rect x="1403.1" y="425.7" class="st35" width="28.4" height="7.3"/>
					<rect x="1403.1" y="431.8" class="st51" width="28.4" height="2.2"/>
					<rect x="1358.5" y="378.7" class="st52" width="13.6" height="6.5"/>
					<rect x="1433.8" y="378.7" class="st52" width="15" height="6.5"/>
				</g>
				<rect x="1331.8" y="446.4" class="st38" width="81.8" height="58.4"/>
				<rect x="1413.6" y="446.4" class="st35" width="81.8" height="58.4"/>
				<g>
					<g>
						<g>
							<rect x="936.1" y="590.1" class="st53" width="138.4" height="23.7"/>
							<g>
								<polygon class="st43" points="1077.6,587 1074.1,590.6 936.1,590.6 936.1,587.1 936.1,587 								"/>
								<polygon class="st44" points="1074.1,590.5 1074.1,613.8 1077.6,613.7 1077.6,587 								"/>
							</g>
							<rect x="1070.3" y="590.6" class="st45" width="3.9" height="23"/>
							
								<rect x="1003.1" y="523.4" transform="matrix(6.123234e-17 -1 1 6.123234e-17 412.6531 1597.3743)" class="st45" width="3.9" height="137.9"/>
						</g>
					</g>
					<g>
						<g>
							<rect x="936.1" y="643.5" class="st53" width="138.4" height="23.7"/>
							<g>
								<polygon class="st43" points="1077.6,640.4 1074.1,644 936.1,644 936.1,640.5 936.1,640.4 								"/>
								<polygon class="st44" points="1074.1,643.9 1074.1,667.2 1077.6,667.1 1077.6,640.4 								"/>
							</g>
							<rect x="1070.3" y="644" class="st45" width="3.9" height="23"/>
							
								<rect x="1003.1" y="576.8" transform="matrix(6.123234e-17 -1 1 6.123234e-17 359.2394 1650.7881)" class="st45" width="3.9" height="137.9"/>
						</g>
					</g>
				</g>
				<rect x="1101.6" y="621.6" class="st35" width="189.4" height="16.5"/>
				<rect x="1101.6" y="621.6" class="st38" width="98.7" height="16.5"/>
				<rect x="910.8" y="540.4" class="st35" width="195.4" height="10.6"/>
				<rect x="811.5" y="540.4" class="st38" width="105.7" height="10.6"/>
				<g class="st54">
					<rect x="1212.3" y="682.2" class="st35" width="52.2" height="42"/>
					<rect x="1212.3" y="682.2" class="st55" width="26.1" height="42"/>
					<polygon class="st55" points="1212.2,682.1 1264.4,682.2 1264.4,724.3 1261.2,724.3 1261.2,685.6 1212.2,685.6 					"/>
				</g>
			</g>
		</g>
		<g>
			<g>
				<rect x="1103.4" y="699.2" class="st56" width="3.5" height="47.9"/>
			</g>
			<g>
				<rect x="1183.1" y="699.2" class="st56" width="3.5" height="47.9"/>
			</g>
			<g>
				<rect x="1262.8" y="699.2" class="st56" width="3.5" height="47.9"/>
			</g>
			<g>
				<rect x="1342.4" y="699.2" class="st56" width="3.5" height="47.9"/>
			</g>
			<g>
				
					<rect x="1098.7" y="722.1" transform="matrix(0.6744 -0.7383 0.7383 0.6744 -170.3164 1061.4009)" class="st56" width="39.4" height="3.5"/>
			</g>
			<g>
				
					<rect x="1116.7" y="704.1" transform="matrix(0.7383 -0.6745 0.6745 0.7383 -195.5078 943.8042)" class="st56" width="3.5" height="39.4"/>
			</g>
			<g>
				
					<rect x="1125.3" y="722.1" transform="matrix(0.6744 -0.7383 0.7383 0.6744 -161.6708 1081.0084)" class="st56" width="39.4" height="3.5"/>
			</g>
			<g>
				
					<rect x="1143.3" y="704.1" transform="matrix(0.7383 -0.6745 0.6745 0.7383 -188.5641 961.6791)" class="st56" width="3.5" height="39.4"/>
			</g>
			<g>
				
					<rect x="1151.9" y="722.1" transform="matrix(0.6745 -0.7383 0.7383 0.6745 -153.0327 1100.5896)" class="st56" width="39.4" height="3.5"/>
			</g>
			<g>
				
					<rect x="1169.8" y="704.1" transform="matrix(0.7383 -0.6745 0.6745 0.7383 -181.6149 979.588)" class="st56" width="3.5" height="39.4"/>
			</g>
			<g>
				
					<rect x="1178.4" y="722.1" transform="matrix(0.6744 -0.7383 0.7383 0.6744 -144.3797 1120.2231)" class="st56" width="39.4" height="3.5"/>
			</g>
			<g>
				
					<rect x="1196.4" y="704.1" transform="matrix(0.7383 -0.6745 0.6745 0.7383 -174.6568 997.541)" class="st56" width="3.5" height="39.4"/>
			</g>
			<g>
				
					<rect x="1205" y="722.1" transform="matrix(0.6744 -0.7383 0.7383 0.6744 -135.734 1139.8307)" class="st56" width="39.4" height="3.5"/>
			</g>
			<g>
				
					<rect x="1222.9" y="704.1" transform="matrix(0.7383 -0.6745 0.6745 0.7383 -167.7146 1015.4142)" class="st56" width="3.5" height="39.4"/>
			</g>
			<g>
				
					<rect x="1231.5" y="722.1" transform="matrix(0.6745 -0.7383 0.7383 0.6745 -127.0972 1159.4108)" class="st56" width="39.4" height="3.5"/>
			</g>
			<g>
				
					<rect x="1249.5" y="704.1" transform="matrix(0.7383 -0.6745 0.6745 0.7383 -160.7655 1033.323)" class="st56" width="3.5" height="39.4"/>
			</g>
			<g>
				
					<rect x="1258.1" y="722.1" transform="matrix(0.6744 -0.7383 0.7383 0.6744 -118.4432 1179.0448)" class="st56" width="39.4" height="3.5"/>
			</g>
			<g>
				
					<rect x="1276" y="704.1" transform="matrix(0.7383 -0.6745 0.6745 0.7383 -153.8153 1051.2369)" class="st56" width="3.5" height="39.4"/>
			</g>
			<g>
				
					<rect x="1284.6" y="722.1" transform="matrix(0.6745 -0.7383 0.7383 0.6745 -109.8069 1198.6248)" class="st56" width="39.4" height="3.5"/>
			</g>
			<g>
				
					<rect x="1302.6" y="704.1" transform="matrix(0.7383 -0.6745 0.6745 0.7383 -146.8557 1069.1897)" class="st56" width="3.5" height="39.4"/>
			</g>
			<g>
				
					<rect x="1311.2" y="722.1" transform="matrix(0.6745 -0.7383 0.7383 0.6745 -101.1616 1218.2321)" class="st56" width="39.4" height="3.5"/>
			</g>
			<g>
				
					<rect x="1329.2" y="704.1" transform="matrix(0.7383 -0.6745 0.6745 0.7383 -139.9155 1087.0608)" class="st56" width="3.5" height="39.4"/>
			</g>
			<g>
				<rect x="1025.5" y="707.3" class="st56" width="318.7" height="4"/>
			</g>
			<g>
				<rect x="1025.5" y="736.4" class="st56" width="318.7" height="4"/>
			</g>
			<g>
				<rect x="1023.8" y="699.2" class="st56" width="3.5" height="47.9"/>
			</g>
			<g>
				
					<rect x="1019.1" y="722.1" transform="matrix(0.6745 -0.7383 0.7383 0.6745 -196.2583 1002.555)" class="st56" width="39.4" height="3.5"/>
			</g>
			<g>
				
					<rect x="1037" y="704.1" transform="matrix(0.7383 -0.6745 0.6745 0.7383 -216.3635 890.0303)" class="st56" width="3.5" height="39.4"/>
			</g>
			<g>
				
					<rect x="1045.6" y="722.1" transform="matrix(0.6744 -0.7383 0.7383 0.6744 -187.6075 1022.1862)" class="st56" width="39.4" height="3.5"/>
			</g>
			<g>
				
					<rect x="1063.6" y="704.1" transform="matrix(0.7383 -0.6745 0.6745 0.7383 -209.4135 907.944)" class="st56" width="3.5" height="39.4"/>
			</g>
			<g>
				
					<rect x="1072.2" y="722.1" transform="matrix(0.6745 -0.7383 0.7383 0.6745 -178.9683 1041.7683)" class="st56" width="39.4" height="3.5"/>
			</g>
			<g>
				
					<rect x="1090.1" y="704.1" transform="matrix(0.7383 -0.6745 0.6745 0.7383 -202.4641 925.8536)" class="st56" width="3.5" height="39.4"/>
			</g>
		</g>
		<path class="st19" d="M1390.2,743c-7.8-13.4-22.2-22.4-38.8-22.4c-21.6,0-39.6,15.2-43.9,35.5h78.3h9.5h115.2
			C1497.8,696.4,1415.7,687.2,1390.2,743z"/>
		<path class="st21" d="M1056.8,751.2L1056.8,751.2c0-16-12.9-28.9-28.9-28.9h-2.1c-64.1,0-127.6,3.1-185.6-24.3
			c-23.6-11.1-49.9-17.4-77.7-17.4c-27.8,0-54.1,6.2-77.7,17.4c-58,27.4-121.5,24.3-185.6,24.3h-15.6c-16,0-28.9,12.9-28.9,28.9l0,0
			H1056.8z"/>
		<path class="st21" d="M1998.3,751.6v-4.6c0-7.2-5.9-13.1-13.1-13.1h0c-48.3,0-121.9-17.5-121.9-17.5s-63.9-13.8-103.6-13.8
			s-103.6,13.8-103.6,13.8s-73.6,17.5-121.9,17.5h-5.3c-7.2,0-13.1,5.9-13.1,13.1v4.6H1998.3z"/>
		<g>
			<rect x="805.8" y="694.3" class="st57" width="6.9" height="54.9"/>
			<rect x="812.7" y="694.3" class="st58" width="6.9" height="54.9"/>
			<polygon class="st59" points="893.5,665.4 849.1,716.1 758.2,716.1 802.4,665.4 			"/>
			<path class="st60" d="M900,662.8l-99.2-0.3l-48.1,55.6h100.2L900,662.8z M857.8,668l-15,17.5h-23.6l15-17.5H857.8z M812,685.5
				h-23.6l15-17.5H827L812,685.5z M783.8,690.9h23.6L789,712.7h-23.6L783.8,690.9z M814.5,690.9h23.6l-18.4,21.7h-23.6L814.5,690.9z
				 M826.9,712.7l18.4-21.7H869l-18.4,21.7H826.9z M873.6,685.5h-23.6l15-17.5h23.6L873.6,685.5z"/>
			<polygon class="st45" points="752.8,718.1 757.1,722.5 857.2,722.5 852.9,718.1 			"/>
			<polygon class="st61" points="852.9,718.1 900,662.8 903.7,666.5 857.2,722.5 			"/>
		</g>
		<g>
			<rect x="677" y="694.3" class="st57" width="6.9" height="54.9"/>
			<rect x="683.8" y="694.3" class="st58" width="6.9" height="54.9"/>
			<polygon class="st59" points="764.6,665.4 720.3,716.1 629.3,716.1 673.6,665.4 			"/>
			<path class="st60" d="M771.2,662.8l-99.2-0.3l-48.1,55.6h100.2L771.2,662.8z M728.9,668l-15,17.5h-23.6l15-17.5H728.9z
				 M683.2,685.5h-23.6l15-17.5h23.6L683.2,685.5z M654.9,690.9h23.6l-18.4,21.7h-23.6L654.9,690.9z M685.7,690.9h23.6l-18.4,21.7
				h-23.6L685.7,690.9z M698,712.7l18.4-21.7h23.6l-18.4,21.7H698z M744.7,685.5h-23.6l15-17.5h23.6L744.7,685.5z"/>
			<polygon class="st45" points="623.9,718.1 628.3,722.5 728.4,722.5 724.1,718.1 			"/>
			<polygon class="st61" points="724.1,718.1 771.2,662.8 774.8,666.5 728.4,722.5 			"/>
		</g>
		<path class="st19" d="M1847.5,780.7c-0.3-2-0.5-4.1-0.5-6.2c0-22.7,18.4-41.1,41.1-41.1c2,0,4,0.2,5.9,0.4
			c9.2-19.4,28.9-32.8,51.8-32.8c24.9,0,46.1,15.9,54,38.1c6.1-3.6,13.2-5.6,20.8-5.6c22.7,0,41.1,18.4,41.1,41.1
			c0,2.1-0.2,4.2-0.5,6.2H1847.5z"/>
		<g>
			<path class="st62" d="M1670.6,818.1c-0.5,6.9,5.7,12.6,12.6,12.6h202.6l12.5-2.5c6.8-1.4,12.6-5.7,12.6-12.6
				c0-12.7,2.3-35.2-6.4-49.2c-10-16.2-75.6-17.3-111.2-12.5c-26.7,3.6-38.9,13.6-60.3,22.3C1691,793.2,1674.1,770.4,1670.6,818.1z"
				/>
			<path class="st63" d="M1890.4,767.2c-11.7-9.2-41.7-10.7-54.2-10.8c-15.9-0.1-34,0.8-49.7,4.6c-15.8,3.7-29.3,10.3-42.2,20.4
				l152.2-3.2C1896.1,775.5,1893.9,770,1890.4,767.2z"/>
			<path class="st64" d="M1890.4,767.2c-11.7-9.2-41.7-10.7-54.2-10.8c-15.9-0.1-34,0.8-49.7,4.6c-15.8,3.7-29.3,10.3-42.2,20.4
				l152.2-3.2C1896.1,775.5,1893.9,770,1890.4,767.2L1890.4,767.2z M1749.8,779.6c11.3-8.1,23.3-13.6,37.2-16.8
				c15.8-3.7,33.1-4.6,49.3-4.5c13.7,0.1,42.2,1.8,53.1,10.4c2.1,1.7,4,5,5,7.9L1749.8,779.6z"/>
			<path class="st65" d="M1702.7,794.3h14.8c10.3,0,17.1,7.3,20.2,16.3h99.9c3.1-8.9,9.9-16.3,20.2-16.3h14.8
				c9.9,0,16.5,6.7,19.8,15.2l7.1-1.4c4.3-0.9,8.5-3.2,11.6-6.4c0,5.2-0.3,10-0.3,13.9c0,6.9-5.8,11.2-12.6,12.6l-12.5,2.5h-202.6
				c-6.9,0-13.1-5.7-12.6-12.6c0.3-4.7,0.9-8.6,1.5-12.1c3.1,2.5,6.2,4.5,9.8,4.5h0.6C1685.6,801.7,1692.4,794.3,1702.7,794.3z"/>
			<path class="st64" d="M1857.8,798.1h14.8c9.8,0,15.8,8.2,17.8,17.8c0.4,1.7,0.9,3.8,1.4,6l6.5-1.3c4.3-0.9,9.6-3,12.6-6.2
				c0,0.4,0,0.8,0,1.2c0,6.9-5.8,11.2-12.6,12.6l-5.2,1l0,0l-7.1,1.4h-0.1l-0.1,0h-48.5H1738h-54.9c-6.9,0-13.1-5.7-12.6-12.6
				c0-0.3,0-0.6,0.1-0.8c3.1,3.1,8.3,5.8,12.5,5.8h0.3l1.5-7.2c2-9.6,8-17.8,17.8-17.8h14.8c9.8,0,15.8,8.2,17.8,17.8l1.5,7.2h101.7
				l1.5-7.2C1842,806.3,1848,798.1,1857.8,798.1z"/>
			<path class="st27" d="M1710.1,845.9c11.1,0,20.2-9.1,20.2-20.2c0-11.1-9.1-20.2-20.2-20.2s-20.2,9.1-20.2,20.2
				C1689.8,836.8,1698.9,845.9,1710.1,845.9z"/>
			<path class="st28" d="M1710.1,838.6c7.1,0,12.9-5.8,12.9-12.9s-5.8-12.9-12.9-12.9c-7.1,0-12.9,5.8-12.9,12.9
				S1703,838.6,1710.1,838.6z"/>
			<path class="st29" d="M1710.1,824.5c0.7,0,1.3,0.6,1.3,1.3c0,0.7-0.6,1.3-1.3,1.3c-0.7,0-1.3-0.6-1.3-1.3
				C1708.8,825.1,1709.4,824.5,1710.1,824.5L1710.1,824.5z M1713.4,816.2c2.2,0.8,4.1,2.3,5.3,4.3c-0.1,0.5-0.5,1-1.1,1.3
				c-0.8,0.5-2.3,0.4-3.4,0.3c-1.3-0.1-1.6-0.3-1.7-1.7c-0.1-1.1-0.2-2.6,0.3-3.4C1713,816.6,1713.2,816.4,1713.4,816.2
				L1713.4,816.2z M1720.3,826.5c-0.2,2.4-1.2,4.6-2.7,6.3c-0.5,0-1-0.3-1.5-0.8c-0.6-0.6-1-2.1-1.1-3.2c-0.2-1.4-0.1-1.6,1.2-2.1
				c1-0.4,2.5-0.9,3.4-0.6C1719.7,826.2,1720,826.3,1720.3,826.5L1720.3,826.5z M1713.5,835.4c-1.1,0.4-2.2,0.6-3.5,0.6
				c-1.2,0-2.4-0.2-3.5-0.6c-0.1-0.4-0.1-0.8,0.1-1.3c0.2-0.9,1.4-1.9,2.2-2.6c1-0.8,1.3-0.9,2.4,0c0.9,0.7,2,1.7,2.2,2.6
				C1713.6,834.6,1713.6,835,1713.5,835.4L1713.5,835.4z M1702.6,832.8c-1.6-1.7-2.6-3.9-2.7-6.3c0.2-0.2,0.5-0.3,0.9-0.4
				c0.9-0.3,2.3,0.2,3.4,0.6c1.3,0.5,1.4,0.7,1.2,2.1c-0.2,1.1-0.5,2.6-1.1,3.2C1703.6,832.5,1703.1,832.7,1702.6,832.8
				L1702.6,832.8z M1701.4,820.4c1.2-2,3.1-3.5,5.3-4.3c0.2,0.2,0.5,0.5,0.6,0.8c0.5,0.8,0.4,2.3,0.3,3.4c-0.1,1.4-0.4,1.6-1.7,1.7
				c-1.1,0.1-2.6,0.2-3.4-0.3C1701.9,821.4,1701.5,820.9,1701.4,820.4L1701.4,820.4z M1710.1,828.6c0.4,0,0.7,0.3,0.7,0.7
				c0,0.4-0.3,0.7-0.7,0.7c-0.4,0-0.7-0.3-0.7-0.7C1709.3,828.9,1709.7,828.6,1710.1,828.6L1710.1,828.6z M1713.1,826.4
				c0.4,0,0.7,0.3,0.7,0.7c0,0.4-0.3,0.7-0.7,0.7c-0.4,0-0.7-0.3-0.7-0.7C1712.4,826.7,1712.7,826.4,1713.1,826.4L1713.1,826.4z
				 M1707,826.4c0.4,0,0.7,0.3,0.7,0.7c0,0.4-0.3,0.7-0.7,0.7c-0.4,0-0.7-0.3-0.7-0.7C1706.3,826.7,1706.6,826.4,1707,826.4
				L1707,826.4z M1712.1,822.4c0.4,0,0.7,0.3,0.7,0.7c0,0.4-0.3,0.7-0.7,0.7c-0.4,0-0.7-0.3-0.7-0.7
				C1711.4,822.7,1711.7,822.4,1712.1,822.4L1712.1,822.4z M1708,822.4c0.4,0,0.7,0.3,0.7,0.7c0,0.4-0.3,0.7-0.7,0.7
				c-0.4,0-0.7-0.3-0.7-0.7C1707.3,822.7,1707.6,822.4,1708,822.4z"/>
			<path class="st27" d="M1865.2,845.9c11.1,0,20.2-9.1,20.2-20.2c0-11.1-9.1-20.2-20.2-20.2c-11.1,0-20.2,9.1-20.2,20.2
				C1844.9,836.8,1854,845.9,1865.2,845.9z"/>
			<path class="st28" d="M1865.2,838.6c7.1,0,12.9-5.8,12.9-12.9s-5.8-12.9-12.9-12.9c-7.1,0-12.9,5.8-12.9,12.9
				S1858.1,838.6,1865.2,838.6z"/>
			<path class="st29" d="M1865.2,824.5c0.7,0,1.3,0.6,1.3,1.3c0,0.7-0.6,1.3-1.3,1.3c-0.7,0-1.3-0.6-1.3-1.3
				C1863.9,825.1,1864.4,824.5,1865.2,824.5L1865.2,824.5z M1868.5,816.2c2.2,0.8,4.1,2.3,5.3,4.3c-0.1,0.5-0.5,1-1.1,1.3
				c-0.8,0.5-2.3,0.4-3.4,0.3c-1.3-0.1-1.6-0.3-1.7-1.7c-0.1-1.1-0.2-2.6,0.3-3.4C1868.1,816.6,1868.3,816.4,1868.5,816.2
				L1868.5,816.2z M1875.3,826.5c-0.2,2.4-1.2,4.6-2.7,6.3c-0.5,0-1-0.3-1.5-0.8c-0.6-0.6-1-2.1-1.1-3.2c-0.2-1.4-0.1-1.6,1.2-2.1
				c1-0.4,2.5-0.9,3.4-0.6C1874.8,826.2,1875.1,826.3,1875.3,826.5L1875.3,826.5z M1868.6,835.4c-1.1,0.4-2.2,0.6-3.5,0.6
				c-1.2,0-2.4-0.2-3.5-0.6c-0.1-0.4-0.1-0.8,0.1-1.3c0.2-0.9,1.4-1.9,2.2-2.6c1-0.8,1.3-0.9,2.4,0c0.9,0.7,2,1.7,2.2,2.6
				C1868.7,834.6,1868.7,835,1868.6,835.4L1868.6,835.4z M1857.7,832.8c-1.6-1.7-2.6-3.9-2.7-6.3c0.2-0.2,0.5-0.3,0.9-0.4
				c0.9-0.3,2.3,0.2,3.4,0.6c1.3,0.5,1.4,0.7,1.2,2.1c-0.2,1.1-0.5,2.6-1.1,3.2C1858.7,832.5,1858.2,832.7,1857.7,832.8
				L1857.7,832.8z M1856.5,820.4c1.2-2,3.1-3.5,5.3-4.3c0.2,0.2,0.5,0.5,0.6,0.8c0.5,0.8,0.4,2.3,0.3,3.4c-0.1,1.4-0.4,1.6-1.7,1.7
				c-1.1,0.1-2.6,0.2-3.4-0.3C1857,821.4,1856.6,820.9,1856.5,820.4L1856.5,820.4z M1865.2,828.6c0.4,0,0.7,0.3,0.7,0.7
				c0,0.4-0.3,0.7-0.7,0.7c-0.4,0-0.7-0.3-0.7-0.7C1864.4,828.9,1864.8,828.6,1865.2,828.6L1865.2,828.6z M1868.2,826.4
				c0.4,0,0.7,0.3,0.7,0.7c0,0.4-0.3,0.7-0.7,0.7c-0.4,0-0.7-0.3-0.7-0.7C1867.5,826.7,1867.8,826.4,1868.2,826.4L1868.2,826.4z
				 M1862.1,826.4c0.4,0,0.7,0.3,0.7,0.7c0,0.4-0.3,0.7-0.7,0.7c-0.4,0-0.7-0.3-0.7-0.7C1861.3,826.7,1861.7,826.4,1862.1,826.4
				L1862.1,826.4z M1867.2,822.4c0.4,0,0.7,0.3,0.7,0.7c0,0.4-0.3,0.7-0.7,0.7c-0.4,0-0.7-0.3-0.7-0.7
				C1866.5,822.7,1866.8,822.4,1867.2,822.4L1867.2,822.4z M1863.1,822.4c0.4,0,0.7,0.3,0.7,0.7c0,0.4-0.3,0.7-0.7,0.7
				c-0.4,0-0.7-0.3-0.7-0.7C1862.4,822.7,1862.7,822.4,1863.1,822.4z"/>
			<path class="st30" d="M1677.4,791.6l6.7,0c4.7,0,1.6,5.9-0.6,8.7c-1.7,2.2-7,1.2-10.2,0.3
				C1674.3,796.7,1675.7,793.8,1677.4,791.6z"/>
			<path class="st66" d="M1910.1,784h-10.3c-5.1,0-0.6,11.3,6,11.3h5.2C1910.9,791.6,1910.6,787.8,1910.1,784z"/>
			<path class="st64" d="M1809.3,757.5l2.5,22.5l-7.8,0.2l-2.5-21.9C1804.1,758,1806.7,757.7,1809.3,757.5z"/>
			<path class="st64" d="M1850.5,756.9l2.6,22.2l-3.7,0.1l-2.5-22.5C1847.9,756.8,1849.4,756.9,1850.5,756.9z"/>
			<path class="st64" d="M1758.9,771.7l2.5,9.4l-17.1,0.4C1749.1,777.7,1753.9,774.5,1758.9,771.7z"/>
			<path class="st64" d="M1806,759l2.4,21.1l-1.3,47h-1.3l1.3-46.9l-2.4-20.9c-6.2,0.7-12.2,1.7-18.1,3.1
				c-20.4,4.8-34.9,13.2-50.6,24.9l5,39.9l-1.3-0.1l-5.1-40.4c16.6-12.3,30.6-20.5,51.6-25.5c15.7-3.7,33.8-4.6,49.7-4.6
				c3.2,0,10.1,0.1,15.1,0.4l3.3,28.2l-3.4,23.7l-1.3-0.1l3.4-23.5l-3.2-27c-4.3-0.3-10.8-0.4-14-0.4
				C1826.3,757.7,1816,758,1806,759z"/>
			<path class="st62" d="M1762.9,771c2.5-0.2,3.1-0.7,3,1.5c0,2.2,0.4,6.8-1.3,7.4c-1.7,0.7-5.7,0.6-6.4-0.7c-0.7-1.3-1-3-0.2-5
				C1758.9,772.2,1760.7,771.2,1762.9,771z"/>
			<path class="st65" d="M1757.8,778.4c1-0.4,2.4-0.7,4.5-0.9c1.4-0.1,2.5-0.1,3.4-0.1c-0.2,1.2-0.5,2.2-1.2,2.5
				c-1.7,0.7-5.7,0.6-6.4-0.7C1758.1,779,1758,778.7,1757.8,778.4z"/>
			<path class="st64" d="M1792.8,782.9l10.1-0.2c1,0,1.9,0.8,1.9,1.8v0c0,1-0.8,1.9-1.8,1.9l-10.1,0.2c-1,0-1.9-0.8-1.9-1.8v0
				C1791,783.8,1791.8,782.9,1792.8,782.9z"/>
			<path class="st65" d="M1791.8,783.9l12.1-0.2c0.5,0,0.9,0.4,0.9,0.8l0,0c0,0.5-0.4,0.9-0.8,0.9l-12.1,0.2c-0.5,0-0.9-0.4-0.9-0.8
				l0,0C1791,784.3,1791.3,783.9,1791.8,783.9z"/>
			<path class="st64" d="M1836,782l10.1-0.2c1,0,1.9,0.8,1.9,1.8v0c0,1-0.8,1.9-1.8,1.9l-10.1,0.2c-1,0-1.9-0.8-1.9-1.8v0
				C1834.2,782.9,1835,782,1836,782z"/>
			<path class="st65" d="M1835,783l12.1-0.2c0.5,0,0.9,0.4,0.9,0.8l0,0c0,0.5-0.4,0.9-0.8,0.9l-12.1,0.2c-0.5,0-0.9-0.4-0.9-0.8l0,0
				C1834.2,783.4,1834.6,783,1835,783z"/>
		</g>
		<g>
			<rect x="1731.5" y="694.7" class="st67" width="17.2" height="57.5"/>
			<path class="st68" d="M1743.4,694.7h-11.8v13.7v0.7c6.5,0,11.8,4.6,11.8,11.1v31.9h5.8v-43.1v-14.4H1743.4z"/>
			<polygon class="st69" points="1740.7,467.8 1706.1,575.5 1740.7,558.5 1775.4,575.5 			"/>
			<polygon class="st69" points="1740.7,501.6 1696.2,640.2 1740.7,618.2 1785.3,640.2 			"/>
			<polygon class="st69" points="1740.7,537.7 1680.2,726 1740.7,696.2 1801.3,726 			"/>
			<polygon class="st70" points="1740.7,467.8 1775.4,575.5 1748.7,562.4 			"/>
			<polygon class="st70" points="1750.7,532 1785.3,639.8 1758.6,626.6 			"/>
			<polygon class="st70" points="1766.7,618.3 1801.3,726 1774.6,712.9 			"/>
			<polygon class="st71" points="1762.5,569.2 1740.7,558.5 1719,569.2 1710.5,595.5 1739.7,571.3 1770.8,594.8 			"/>
			<polygon class="st71" points="1771.5,633 1740.8,617.8 1710.1,633 1698.1,670.2 1739.3,636.1 1783.3,669.2 			"/>
		</g>
		<g>
			<rect x="1088.1" y="694.7" class="st67" width="17.2" height="57.5"/>
			<path class="st68" d="M1099.9,694.7h-11.8v13.7v0.7c6.5,0,11.8,4.6,11.8,11.1v31.9h5.8v-43.1v-14.4H1099.9z"/>
			<polygon class="st69" points="1097.3,467.8 1062.6,575.5 1097.3,558.5 1131.9,575.5 			"/>
			<polygon class="st69" points="1097.3,501.6 1052.7,640.2 1097.3,618.2 1141.9,640.2 			"/>
			<polygon class="st69" points="1097.3,537.7 1036.7,726 1097.3,696.2 1157.9,726 			"/>
			<polygon class="st70" points="1097.3,467.8 1131.9,575.5 1105.2,562.4 			"/>
			<polygon class="st70" points="1107.2,532 1141.9,639.8 1115.1,626.6 			"/>
			<polygon class="st70" points="1123.2,618.3 1157.9,726 1131.2,712.9 			"/>
			<polygon class="st71" points="1119,569.2 1097.3,558.5 1075.6,569.2 1067.1,595.5 1096.3,571.3 1127.4,594.8 			"/>
			<polygon class="st71" points="1128,633 1097.3,617.8 1066.6,633 1054.6,670.2 1095.9,636.1 1139.9,669.2 			"/>
		</g>
		<g>
			<path class="st22" d="M467.1,498.7c-6.3-28.5-33.3-49.8-65.6-49.8c-36.9,0-66.8,27.9-66.9,62.3c-10.3,12-16.4,27.2-16.4,43.8
				c0,38.7,33.6,70.2,75,70.2c25.7,0,48.4-5.8,61.9-24.2c1.6,0.1,3.3,0.2,4.9,0.2c28.5,0,51.6-27.9,51.6-54.5
				C511.7,522.1,492.3,501.9,467.1,498.7z"/>
			<path class="st22" d="M379.2,613.1c-38.3,0-69.4-29.1-69.4-64.9c0-14.9,5.2-28.8,15.2-40.5l4.6-5.4l0-6.9
				c0.2-30.6,26.9-55.5,59.6-55.5c28.1,0,52.7,18.7,58.4,44.4l3.1,13.8l15,1.9c20.2,2.6,35.4,18.9,35.4,38
				c0,21.2-18.4,38.4-41.1,38.4c-1.3,0-2.6-0.1-4-0.2l-12.5-1.1l-7.1,9.7C423.5,602.5,402.1,613.1,379.2,613.1z"/>
			<path class="st72" d="M428.7,480.4c0.1,2.5-0.5,4.5-1.5,6.4c-0.9,1.8-2.2,3.4-3.7,4.7c-1.5,1.3-3.2,2.4-5.2,3.1
				c-1.9,0.7-4,1.1-6.5,0.6c0.8-2.4,1.8-4.1,2.9-5.6c1.1-1.5,2.3-2.8,3.6-4c1.3-1.2,2.8-2.2,4.4-3.1
				C424.4,481.6,426.2,480.8,428.7,480.4z"/>
			<path class="st72" d="M403.7,475.1c2,1.5,3.2,3.3,4,5.1c0.8,1.9,1.3,3.9,1.3,5.9c0.1,2-0.2,4-0.9,5.9c-0.7,1.9-1.7,3.8-3.6,5.5
				c-1.4-2.1-2-3.9-2.6-5.8c-0.5-1.8-0.7-3.6-0.8-5.3c-0.1-1.8,0.1-3.5,0.4-5.4C402,479.2,402.6,477.3,403.7,475.1z"/>
			<path class="st73" d="M467.1,498.7c-4.4-19.7-26.2-49.8-66.5-57.8c28.6,10.6,44.4,31.6,47,43.3l3.1,13.8l15,1.9
				c20.2,2.6,33.1,18.9,33.1,38c0,21.2-16.1,34-38.7,34c-1.3,0-2.6-0.1-4-0.2l-12.5-1.1l-7.1,9.7c-13,17.7-34.4,29-57.2,29
				c-17.9,0-34.2-2.7-46.5-13.1c13.6,17.5,35.7,28.8,60.6,28.8c25.7,0,48.4-5.8,61.9-24.2c1.6,0.1,3.3,0.2,4.9,0.2
				c28.5,0,51.6-27.9,51.6-54.5C511.7,522.1,492.3,501.9,467.1,498.7z"/>
			<path class="st72" d="M431.1,531.2c-5.1-4.9-10.1-8.8-15.3-11.8c-5.3-3-10.7-5.1-16.3-6.2c-5.6-1.1-11.5-1.3-17.5-0.6
				c-6,0.7-12.1,2.3-18.7,4.8c3.4-6.3,9.5-11,16.4-13.7c6.9-2.7,14.7-3.5,22.2-1.9c7.5,1.5,14.4,5.3,19.6,10.5
				C426.7,517.3,430.4,524.1,431.1,531.2z"/>
			<path class="st72" d="M312.4,548c-1.4-7.5-0.5-15.3,2.1-22.6c2.6-7.3,7.1-14.1,13.1-19.5c6-5.4,13.4-9.1,21.2-10.5
				c7.8-1.4,16-0.6,22.6,3.3c-7.5,1-14,2.8-20,5.6c-6,2.7-11.3,6.2-16.1,10.4c-4.7,4.2-8.9,9.2-12.6,14.8
				C319,535.1,315.8,541.3,312.4,548z"/>
			<path class="st72" d="M389.2,439.9c-32.7,0-59.4,26.6-59.6,59.3l0,7.4l-3.9,4.9l23.9-10.8C349.6,500.7,346,451.7,389.2,439.9z"/>
			<path class="st73" d="M389.7,586.2c1.5-1,3.1-1.3,4.6-1.3c1.5,0,3,0.3,4.3,0.8c1.4,0.5,2.6,1.4,3.7,2.4c1.1,1.1,2,2.4,2.4,4.1
				c-1.8,0.3-3.2,0.1-4.6-0.1c-1.3-0.2-2.6-0.6-3.7-1c-1.2-0.5-2.3-1.1-3.4-1.8C391.9,588.6,390.8,587.7,389.7,586.2z"/>
			<path class="st73" d="M401.5,568.4c1.8,0.3,3.1,1.2,4.3,2.2c1.1,1,2,2.2,2.6,3.5c0.6,1.3,1,2.8,1.1,4.3c0,1.5-0.2,3.1-1,4.7
				c-1.5-1-2.5-2.1-3.3-3.2c-0.8-1.1-1.5-2.2-2-3.3c-0.5-1.1-0.9-2.3-1.2-3.7C401.5,571.6,401.3,570.2,401.5,568.4z"/>
			<path class="st73" d="M462.9,543c1.7,2,2.5,4.1,3,6.2c0.5,2.1,0.6,4.2,0.3,6.3c-0.2,2.1-0.8,4.1-1.7,6.1
				c-0.9,1.9-2.2,3.8-4.2,5.4c-1.1-2.3-1.6-4.4-1.9-6.4c-0.2-2-0.2-4,0-5.9c0.2-1.9,0.6-3.8,1.3-5.7
				C460.4,547,461.3,545.1,462.9,543z"/>
			<path class="st74" d="M439.4,600.8c-9.1,19.1-6.4,15.5-10.9,24.7c-1.9,4-8.5,20.1-9.3,21.6c-0.7-13.4-0.8-31.8-0.4-48.1l-5.6,0.1
				c-1.2,19.1-3,29.1-4.7,49.5c0,0.5-0.8,0.7-1,0.2c-3.3-6.4-7-11.7-10.6-17.9L384.9,610l-4.1,0.3c3.2,7.7,7.6,17.7,10.9,25.3
				c3.4,7.5,6.8,14.3,9.9,21.9c0.1,0.2,0.2,0.4,0.3,0.7c3.1,8.3,4.5,17.1,4.2,25.9l-0.5,38l17.6-0.2c-1.5-15.5-1-16.7-2.1-35.7
				c-0.9-16.2,2.1-26.7,6.2-42.3c0.4-1.6,0.8-3,1.2-4.3l0-0.1c1.4-4.4,1.3-8.8,3-13.2l6.6-13.8l4.4-13.2L439.4,600.8z"/>
			<path class="st75" d="M427.2,644.5c0.5-1.8,0.9-3.4,1.4-4.9l0-0.1c1.4-4.4,2.8-8.8,4.5-13.2l11.1-29.3l-4.3,1.2l-10.6,22
				c0,0-5.6,11.6-8.3,16.9c-0.4,0.8-1.7,0.6-1.7-0.4c-0.7-19.5-0.1-27.1,0.2-40.4l-6.3,3.4l-1.8,19.5c0,0,4.5,13.5,4.4,23.8
				c-0.1,10.3-6.6,78.9-1.2,78.9c0.6,0,1.2,0,1.8,0l0.6,0c0.4,0,0.8,0,1.3,0l1.1,0c0.1,0,0.3,0,0.4,0l3.3-0.1
				c-1.6-15.9-0.5-6.2-0.6-40.6C422.6,668.9,424.1,656.5,427.2,644.5z"/>
		</g>
		<g>
			<path class="st22" d="M2047.1,498.7c-6.3-28.5-33.3-49.8-65.6-49.8c-36.9,0-66.8,27.9-66.9,62.3c-10.3,12-16.4,27.2-16.4,43.8
				c0,38.7,33.6,70.2,75,70.2c25.7,0,48.4-5.8,61.9-24.2c1.6,0.1,3.3,0.2,4.9,0.2c28.5,0,51.6-27.9,51.6-54.5
				C2091.7,522.1,2072.3,501.9,2047.1,498.7z"/>
			<path class="st22" d="M1959.1,613.1c-38.3,0-69.4-29.1-69.4-64.9c0-14.9,5.2-28.8,15.2-40.5l4.6-5.4l0-6.9
				c0.2-30.6,26.9-55.5,59.6-55.5c28.1,0,52.7,18.7,58.4,44.4l3.1,13.8l15,1.9c20.2,2.6,35.4,18.9,35.4,38
				c0,21.2-18.4,38.4-41.1,38.4c-1.3,0-2.6-0.1-4-0.2l-12.5-1.1l-7.1,9.7C2003.4,602.5,1982,613.1,1959.1,613.1z"/>
			<path class="st72" d="M2008.6,480.4c0.1,2.5-0.5,4.5-1.5,6.4c-0.9,1.8-2.2,3.4-3.7,4.7c-1.5,1.3-3.2,2.4-5.2,3.1
				c-1.9,0.7-4,1.1-6.5,0.6c0.8-2.4,1.8-4.1,2.9-5.6c1.1-1.5,2.3-2.8,3.6-4c1.3-1.2,2.8-2.2,4.4-3.1
				C2004.4,481.6,2006.2,480.8,2008.6,480.4z"/>
			<path class="st72" d="M1983.7,475.1c2,1.5,3.2,3.3,4,5.1c0.8,1.9,1.3,3.9,1.3,5.9c0.1,2-0.2,4-0.9,5.9c-0.7,1.9-1.7,3.8-3.6,5.5
				c-1.4-2.1-2-3.9-2.6-5.8c-0.5-1.8-0.7-3.6-0.8-5.3c-0.1-1.8,0.1-3.5,0.4-5.4C1982,479.2,1982.5,477.3,1983.7,475.1z"/>
			<path class="st73" d="M2047.1,498.7c-4.4-19.7-26.2-49.8-66.5-57.8c28.6,10.6,44.4,31.6,47,43.3l3.1,13.8l15,1.9
				c20.2,2.6,33.1,18.9,33.1,38c0,21.2-16.1,34-38.7,34c-1.3,0-2.6-0.1-4-0.2l-12.5-1.1l-7.1,9.7c-13,17.7-34.4,29-57.2,29
				c-17.9,0-34.2-2.7-46.5-13.1c13.6,17.5,35.7,28.8,60.6,28.8c25.7,0,48.4-5.8,61.9-24.2c1.6,0.1,3.3,0.2,4.9,0.2
				c28.5,0,51.6-27.9,51.6-54.5C2091.7,522.1,2072.3,501.9,2047.1,498.7z"/>
			<path class="st72" d="M2011.1,531.2c-5.1-4.9-10.1-8.8-15.3-11.8c-5.3-3-10.7-5.1-16.3-6.2c-5.6-1.1-11.5-1.3-17.5-0.6
				c-6,0.7-12.1,2.3-18.7,4.8c3.4-6.3,9.5-11,16.4-13.7c6.9-2.7,14.7-3.5,22.2-1.9c7.5,1.5,14.4,5.3,19.6,10.5
				C2006.6,517.3,2010.4,524.1,2011.1,531.2z"/>
			<path class="st72" d="M1892.4,548c-1.4-7.5-0.5-15.3,2.1-22.6c2.6-7.3,7.1-14.1,13.1-19.5c6-5.4,13.4-9.1,21.2-10.5
				c7.8-1.4,16-0.6,22.6,3.3c-7.5,1-14,2.8-20,5.6c-6,2.7-11.3,6.2-16.1,10.4c-4.7,4.2-8.9,9.2-12.6,14.8
				C1899,535.1,1895.8,541.3,1892.4,548z"/>
			<path class="st72" d="M1969.2,439.9c-32.7,0-59.4,26.6-59.6,59.3l0,7.4l-3.9,4.9l23.9-10.8C1929.6,500.7,1926,451.7,1969.2,439.9
				z"/>
			<path class="st73" d="M1969.6,586.2c1.5-1,3.1-1.3,4.6-1.3c1.5,0,3,0.3,4.3,0.8c1.4,0.5,2.6,1.4,3.7,2.4c1.1,1.1,2,2.4,2.4,4.1
				c-1.8,0.3-3.2,0.1-4.6-0.1c-1.3-0.2-2.6-0.6-3.7-1c-1.2-0.5-2.3-1.1-3.4-1.8C1971.9,588.6,1970.8,587.7,1969.6,586.2z"/>
			<path class="st73" d="M1981.4,568.4c1.8,0.3,3.1,1.2,4.3,2.2c1.1,1,2,2.2,2.6,3.5c0.6,1.3,1,2.8,1.1,4.3c0,1.5-0.2,3.1-1,4.7
				c-1.5-1-2.5-2.1-3.3-3.2c-0.8-1.1-1.5-2.2-2-3.3c-0.5-1.1-0.9-2.3-1.2-3.7C1981.5,571.6,1981.3,570.2,1981.4,568.4z"/>
			<path class="st73" d="M2042.8,543c1.7,2,2.5,4.1,3,6.2c0.5,2.1,0.6,4.2,0.3,6.3c-0.2,2.1-0.8,4.1-1.7,6.1
				c-0.9,1.9-2.2,3.8-4.2,5.4c-1.1-2.3-1.6-4.4-1.9-6.4c-0.2-2-0.2-4,0-5.9c0.2-1.9,0.6-3.8,1.3-5.7
				C2040.4,547,2041.3,545.1,2042.8,543z"/>
			<path class="st74" d="M2019.4,600.8c-9.1,19.1-6.4,15.5-10.9,24.7c-1.9,4-8.5,20.1-9.3,21.6c-0.7-13.4-0.8-31.8-0.4-48.1
				l-5.6,0.1c-1.2,19.1-3,29.1-4.7,49.5c0,0.5-0.8,0.7-1,0.2c-3.3-6.4-7-11.7-10.6-17.9l-11.9-21.1l-4.1,0.3
				c3.2,7.7,7.6,17.7,10.9,25.3c3.4,7.5,6.8,14.3,9.9,21.9c0.1,0.2,0.2,0.4,0.3,0.7c3.1,8.3,4.5,17.1,4.2,25.9l-0.5,38l17.6-0.2
				c-1.5-15.5-1-16.7-2.1-35.7c-0.9-16.2,2.1-26.7,6.2-42.3c0.4-1.6,0.8-3,1.2-4.3l0-0.1c1.4-4.4,1.3-8.8,3-13.2l6.6-13.8l4.4-13.2
				L2019.4,600.8z"/>
			<path class="st75" d="M2007.2,644.5c0.5-1.8,0.9-3.4,1.4-4.9l0-0.1c1.4-4.4,2.8-8.8,4.5-13.2l11.1-29.3l-4.3,1.2l-10.6,22
				c0,0-5.6,11.6-8.3,16.9c-0.4,0.8-1.7,0.6-1.7-0.4c-0.7-19.5-0.1-27.1,0.2-40.4l-6.3,3.4l-1.8,19.5c0,0,4.5,13.5,4.4,23.8
				c-0.1,10.3-6.6,78.9-1.2,78.9c0.6,0,1.2,0,1.8,0l0.6,0c0.4,0,0.8,0,1.3,0l1.1,0c0.1,0,0.3,0,0.4,0l3.3-0.1
				c-1.6-15.9-0.5-6.2-0.6-40.6C2002.5,668.9,2004,656.5,2007.2,644.5z"/>
		</g>
		<path class="st19" d="M389,780.7c-0.3-2-0.5-4.1-0.5-6.2c0-22.7,18.4-41.1,41.1-41.1c2,0,4,0.2,5.9,0.4
			c9.2-19.4,28.9-32.8,51.8-32.8c24.9,0,46.1,15.9,54,38.1c6.1-3.6,13.2-5.6,20.8-5.6c22.7,0,41.1,18.4,41.1,41.1
			c0,2.1-0.2,4.2-0.5,6.2H389z"/>
	</g>
</g>
</svg>
