<?xml version="1.0" standalone="no"?>
<!DOCTYPE svg PUBLIC "-//W3C//DTD SVG 20010904//EN"
 "http://www.w3.org/TR/2001/REC-SVG-20010904/DTD/svg10.dtd">
<svg version="1.0" xmlns="http://www.w3.org/2000/svg"
 width="845.000000pt" height="597.000000pt" viewBox="0 0 845.000000 597.000000"
 preserveAspectRatio="xMidYMid meet">

<g transform="translate(0.000000,597.000000) scale(0.100000,-0.100000)"
fill="#000000" stroke="none">
<path d="M0 2985 l0 -2985 4225 0 4225 0 0 2985 0 2985 -4225 0 -4225 0 0
-2985z m2780 2705 c19 0 382 0 806 1 695 1 776 0 830 -15 73 -21 153 -74 189
-126 34 -50 74 -147 76 -185 0 -16 5 -41 9 -55 7 -23 8 -24 9 -3 2 43 -21 129
-52 191 -36 75 -122 157 -179 172 -20 6 -40 15 -43 21 -5 6 254 9 782 7 706
-3 793 -5 837 -20 76 -26 149 -80 188 -140 56 -84 69 -141 75 -325 l6 -163
718 0 719 0 0 -2010 0 -2010 -715 0 -715 0 0 57 c0 121 -8 38 -14 -155 -7
-201 -18 -267 -53 -335 -8 -16 -19 -25 -25 -21 -7 4 -8 3 -4 -5 4 -6 -2 -23
-13 -37 -12 -15 -21 -23 -21 -19 0 4 -15 -4 -32 -17 -50 -38 -107 -64 -166
-77 -36 -7 -279 -11 -775 -11 l-722 0 62 56 c44 39 71 73 92 117 39 83 67 218
42 202 -5 -3 -12 -19 -15 -35 -3 -17 -9 -44 -12 -60 -3 -17 -10 -28 -15 -25
-5 4 -6 -1 -3 -9 3 -9 2 -16 -3 -16 -5 0 -17 -16 -26 -35 -25 -52 -95 -124
-147 -150 -85 -43 -130 -45 -825 -44 -363 1 -684 4 -712 6 l-53 5 56 51 c30
27 66 72 80 98 28 56 54 150 54 194 -1 43 -16 12 -24 -48 -12 -95 -69 -194
-141 -246 -99 -71 -39 -68 -1130 -62 l-980 6 -66 31 c-36 17 -83 48 -104 69
-35 36 -85 124 -85 153 0 7 -4 11 -9 7 -6 -3 -13 11 -16 32 -4 21 -10 49 -15
63 -4 14 -8 715 -9 1559 -1 844 -3 1537 -6 1539 -3 3 -5 -18 -5 -46 0 -55 -7
-82 -21 -82 -5 0 -9 70 -9 155 0 131 2 155 15 155 10 0 15 -10 15 -27 0 -14 2
-24 5 -21 10 9 14 264 6 313 l-9 50 -1 -52 c-1 -58 -9 -85 -22 -77 -5 3 -9 72
-9 155 0 126 2 149 15 149 10 0 15 -10 15 -27 0 -14 3 -24 6 -20 3 3 5 178 5
389 -1 216 3 414 8 455 23 157 88 256 209 315 l66 33 236 5 c203 4 1672 5
1770 0z m-1763 -5306 c-3 -3 -12 -4 -19 -1 -8 3 -5 6 6 6 11 1 17 -2 13 -5z"/>
<path d="M2846 5656 c67 -31 119 -78 155 -140 16 -28 29 -46 29 -40 0 40 -113
163 -177 190 -55 24 -61 15 -7 -10z"/>
<path d="M1757 5553 c-13 -12 -7 -41 10 -47 21 -9 46 16 37 37 -6 17 -35 23
-47 10z"/>
<path d="M3382 5547 c-9 -10 -8 -18 2 -32 18 -25 48 -13 44 17 -4 27 -30 35
-46 15z"/>
<path d="M4996 5544 c-4 -10 -1 -24 7 -31 19 -19 49 -5 45 21 -4 27 -43 34
-52 10z"/>
<path d="M3031 5460 c0 -3 6 -25 13 -50 8 -25 15 -36 15 -25 0 17 -26 88 -28
75z"/>
<path d="M1332 5398 c-32 -32 4 -87 48 -73 25 8 37 50 20 70 -15 18 -51 20
-68 3z"/>
<path d="M1574 5379 c-15 -25 20 -29 207 -27 175 3 194 5 197 21 3 16 -11 17
-197 17 -133 0 -202 -4 -207 -11z"/>
<path d="M3204 5379 c-15 -25 20 -29 207 -27 175 3 194 5 197 21 3 16 -11 17
-197 17 -133 0 -202 -4 -207 -11z"/>
<path d="M4825 5379 c-16 -25 19 -29 206 -27 165 3 194 5 194 18 0 13 -30 15
-197 18 -136 2 -199 -1 -203 -9z"/>
<path d="M3062 5330 c0 -19 2 -27 5 -17 2 9 2 25 0 35 -3 9 -5 1 -5 -18z"/>
<path d="M3061 5184 c0 -11 3 -14 6 -6 3 7 2 16 -1 19 -3 4 -6 -2 -5 -13z"/>
<path d="M4694 4895 c1 -242 1 -259 3 -77 l3 232 725 0 725 0 0 -1820 0 -1820
-725 0 -725 0 0 70 0 70 655 0 c360 0 655 3 655 8 0 4 -295 6 -655 4 l-655 -2
1 412 c0 386 5 469 23 440 12 -20 36 -1 36 30 0 18 -4 27 -11 23 -6 -4 -8 -13
-5 -21 3 -7 1 -16 -4 -19 -6 -4 -10 5 -10 19 0 18 -4 24 -15 20 -13 -5 -15 93
-15 849 0 524 4 866 10 881 6 16 6 27 0 31 -6 4 -9 72 -9 163 1 86 4 147 6
135 6 -32 20 -29 25 5 3 22 -1 31 -19 39 l-23 11 0 -1721 c0 -947 -3 -1781 -6
-1853 -5 -93 -3 -133 5 -138 8 -5 11 15 11 68 l0 76 734 0 c660 0 734 2 740
16 8 20 8 4008 0 4028 -6 14 -80 16 -740 16 l-733 0 -4 68 c-2 37 -3 -72 -3
-243z m211 -3575 c4 -6 -1 -7 -12 -3 -16 6 -16 5 -4 -10 7 -9 9 -17 3 -17 -14
0 -33 25 -25 33 10 10 31 8 38 -3z m36 -40 c5 0 9 11 9 25 0 14 5 25 10 25 16
0 12 -46 -5 -60 -11 -9 -19 -10 -28 -1 -10 8 -17 7 -25 -1 -9 -9 -15 -9 -23
-1 -7 7 -3 12 15 17 18 4 26 14 27 29 2 17 3 16 6 -5 2 -16 9 -28 14 -28z m77
18 c-2 -22 -9 -34 -20 -36 -15 -3 -18 4 -18 32 0 30 4 36 21 36 17 0 20 -5 17
-32z m39 10 l10 -23 7 23 c10 31 26 28 26 -5 0 -25 -4 -28 -35 -29 -32 -1 -35
1 -35 27 0 35 13 38 27 7z m60 -25 c-3 -10 -5 -2 -5 17 0 19 2 27 5 18 2 -10
2 -26 0 -35z m56 40 c-7 -2 -14 -17 -14 -31 l-2 -27 -4 25 c-3 14 -10 28 -17
32 -6 4 3 7 19 7 17 0 24 -3 18 -6z m977 -223 l0 -70 -725 0 -725 0 0 70 0 70
725 0 725 0 0 -70z"/>
<path d="M4990 1309 c0 -5 5 -7 10 -4 6 3 10 8 10 11 0 2 -4 4 -10 4 -5 0 -10
-5 -10 -11z"/>
<path d="M3062 4755 c1 -176 4 -295 8 -265 4 36 7 4 7 -95 0 -112 -2 -132 -7
-80 -6 67 -7 65 -8 -38 -1 -70 2 -106 8 -102 6 3 10 19 10 36 l0 29 599 0 600
0 20 -26 c21 -27 21 -31 18 -791 -2 -744 -3 -765 -21 -779 -17 -12 -119 -14
-628 -14 l-608 0 2 -887 c1 -489 4 -853 5 -810 l4 77 744 0 745 0 0 2030 0
2030 -750 2 -750 3 2 -320z"/>
<path d="M635 5058 c-3 -7 -4 -920 -3 -2028 l3 -2015 1144 -3 c909 -2 1146 0
1153 10 9 15 11 4008 2 4032 -6 14 -116 16 -1150 16 -907 0 -1146 -3 -1149
-12z m2275 -2018 l0 -2010 -1130 0 -1130 0 0 2010 0 2010 1130 0 1130 0 0
-2010z"/>
<path d="M795 4910 l-29 -30 20 -27 c11 -15 27 -29 35 -31 8 -3 1 9 -15 27
l-30 31 29 30 c16 17 26 30 24 30 -3 0 -18 -14 -34 -30z"/>
<path d="M1892 4880 c0 -14 2 -19 5 -12 2 6 2 18 0 25 -3 6 -5 1 -5 -13z"/>
<path d="M1982 4880 c0 -14 2 -19 5 -12 2 6 2 18 0 25 -3 6 -5 1 -5 -13z"/>
<path d="M1341 4874 c0 -11 3 -14 6 -6 3 7 2 16 -1 19 -3 4 -6 -2 -5 -13z"/>
<path d="M1981 4834 c0 -11 3 -14 6 -6 3 7 2 16 -1 19 -3 4 -6 -2 -5 -13z"/>
<path d="M2681 4603 c-1 -35 13 -50 33 -34 7 6 16 8 19 4 4 -3 20 -7 37 -8 33
-3 53 15 48 42 -5 26 -108 27 -108 1 0 -26 -18 -22 -23 5 -3 16 -5 14 -6 -10z"/>
<path d="M870 4596 c0 -9 -8 -12 -24 -9 -19 4 -26 0 -32 -19 l-7 -23 -9 28
c-11 30 -33 36 -41 10 -2 -10 -8 -25 -11 -34 -6 -14 -1 -16 33 -14 29 1 41 -2
41 -11 0 -8 9 -14 20 -14 11 0 20 5 20 10 0 6 7 10 15 10 11 0 15 11 15 40 0
22 -4 40 -10 40 -5 0 -10 -6 -10 -14z"/>
<path d="M900 4572 c0 -37 1 -39 34 -40 26 -1 35 3 39 18 7 27 -18 47 -38 30
-13 -10 -15 -9 -15 9 0 11 -4 21 -10 21 -5 0 -10 -17 -10 -38z"/>
<path d="M1033 4603 c-30 -4 -33 -7 -33 -39 0 -33 1 -34 40 -34 l40 0 0 40 c0
22 -3 39 -7 38 -5 0 -23 -3 -40 -5z m27 -38 c0 -18 -4 -23 -16 -18 -13 5 -13
7 -2 14 11 7 10 11 -2 19 -13 8 -12 10 3 10 11 0 17 -8 17 -25z"/>
<path d="M1380 4570 c0 -38 13 -54 23 -27 4 10 6 10 6 0 1 -15 41 -18 41 -3 0
6 -7 10 -15 10 -8 0 -15 5 -15 11 0 6 7 9 15 5 8 -3 15 -1 15 4 0 15 -20 22
-34 11 -16 -13 -27 -4 -19 15 3 8 0 14 -6 14 -6 0 -11 -17 -11 -40z"/>
<path d="M1720 4570 c0 -29 4 -36 20 -37 11 -1 20 3 20 8 0 5 9 4 20 -3 16
-11 22 -9 35 7 10 13 14 15 13 5 -2 -9 6 -16 20 -18 20 -3 22 0 19 25 -3 25
-8 28 -43 30 -25 1 -43 -5 -51 -15 -11 -14 -13 -12 -13 10 0 21 -5 26 -20 25
-16 -1 -20 -8 -20 -37z m23 0 c-3 -12 -8 -19 -11 -16 -5 6 5 36 12 36 2 0 2
-9 -1 -20z"/>
<path d="M2313 4598 c-15 -20 -13 -55 4 -69 13 -11 18 -10 29 6 13 17 12 22
-8 38 -18 15 -19 18 -5 13 12 -4 17 -2 15 6 -6 17 -24 20 -35 6z"/>
<path d="M1196 4593 c-4 -4 -28 -7 -54 -8 -41 0 -47 -3 -50 -23 -4 -25 25 -43
38 -22 5 8 9 9 14 1 9 -14 46 -15 46 -1 0 6 -7 10 -15 10 -8 0 -15 4 -15 8 0
4 9 8 20 8 13 0 20 -7 20 -18 0 -13 8 -18 25 -18 15 0 25 6 25 14 0 8 3 21 6
30 4 10 1 16 -9 16 -9 0 -17 -11 -20 -27 -4 -26 -4 -26 -6 5 -1 31 -10 40 -25
25z"/>
<path d="M1484 4588 c-4 -6 2 -18 12 -26 18 -14 18 -14 1 -8 -13 4 -17 2 -14
-6 2 -9 24 -13 60 -13 39 0 57 -4 57 -12 0 -7 5 -13 10 -13 6 0 10 5 10 10 0
6 6 10 14 10 8 0 17 6 19 13 3 6 6 2 6 -10 1 -28 6 -28 32 -4 12 11 19 27 17
38 -4 20 -48 32 -48 12 0 -8 -4 -9 -13 -1 -17 14 -97 9 -106 -7 -6 -9 -11 -8
-21 4 -11 13 -10 14 5 9 13 -5 16 -4 11 4 -9 15 -43 15 -52 0z m151 -28 c3 -5
1 -10 -4 -10 -6 0 -11 5 -11 10 0 6 2 10 4 10 3 0 8 -4 11 -10z"/>
<path d="M2364 4588 c-5 -8 -2 -9 9 -5 21 8 22 -6 2 -23 -22 -18 -18 -30 8
-30 18 0 22 6 24 35 3 29 0 35 -16 35 -11 0 -23 -5 -27 -12z"/>
<path d="M2420 4585 c0 -9 6 -12 18 -8 16 6 16 5 0 -14 -24 -27 -23 -33 10
-33 21 0 24 2 12 10 -11 7 -12 12 -3 21 8 8 13 6 18 -11 5 -15 13 -20 28 -18
32 4 32 62 0 66 -14 2 -23 -2 -23 -9 0 -10 -3 -10 -12 -1 -17 17 -48 15 -48
-3z m87 -27 c-3 -8 -6 -5 -6 6 -1 11 2 17 5 13 3 -3 4 -12 1 -19z"/>
<path d="M2567 4593 c-4 -3 -7 -17 -7 -30 0 -14 -4 -21 -10 -18 -5 3 -10 2
-10 -3 0 -5 16 -9 35 -10 26 -1 35 3 35 15 0 15 2 15 14 -2 19 -27 46 -13 46
25 0 23 -4 30 -20 30 -10 0 -24 -8 -29 -17 -10 -17 -10 -17 -11 0 0 17 -30 24
-43 10z m33 -28 c0 -8 -4 -15 -10 -15 -5 0 -10 7 -10 15 0 8 5 15 10 15 6 0
10 -7 10 -15z m47 -7 c-3 -8 -6 -5 -6 6 -1 11 2 17 5 13 3 -3 4 -12 1 -19z"/>
<path d="M1271 4576 c-20 -23 -2 -45 34 -44 26 1 35 6 38 22 4 20 4 20 6 -1 0
-13 6 -23 12 -23 6 0 9 12 7 28 -2 19 -9 28 -25 30 -14 2 -23 -2 -23 -9 0 -10
-3 -10 -12 -1 -15 15 -23 15 -37 -2z m29 -16 c0 -5 -4 -10 -10 -10 -5 0 -10 5
-10 10 0 6 5 10 10 10 6 0 10 -4 10 -10z"/>
<path d="M923 4395 c0 -22 2 -30 4 -17 2 12 2 30 0 40 -3 9 -5 -1 -4 -23z"/>
<path d="M1240 4396 c0 -34 0 -34 46 -34 25 1 40 4 33 8 -8 6 -8 9 2 13 11 3
11 7 2 17 -10 11 -15 11 -28 0 -8 -7 -15 -8 -15 -4 0 5 -9 15 -20 22 -19 11
-20 10 -20 -22z"/>
<path d="M1635 4420 c-3 -5 1 -10 10 -10 9 0 13 5 10 10 -3 6 -8 10 -10 10 -2
0 -7 -4 -10 -10z"/>
<path d="M1687 4423 c-4 -3 -7 -19 -7 -35 0 -22 4 -29 17 -26 9 2 17 13 18 26
2 23 -17 47 -28 35z m18 -43 c3 -5 1 -10 -4 -10 -6 0 -11 5 -11 10 0 6 2 10 4
10 3 0 8 -4 11 -10z"/>
<path d="M752 4390 c0 -19 2 -27 5 -17 2 9 2 25 0 35 -3 9 -5 1 -5 -18z"/>
<path d="M1052 4390 c-1 -16 2 -30 8 -30 5 0 10 8 10 18 1 16 1 16 11 0 15
-27 29 -21 29 12 0 17 -4 30 -10 30 -5 0 -10 -5 -10 -12 0 -9 -3 -9 -12 0 -18
18 -24 15 -26 -18z"/>
<path d="M1545 4410 c-3 -5 -1 -10 4 -10 6 0 11 5 11 10 0 6 -2 10 -4 10 -3 0
-8 -4 -11 -10z"/>
<path d="M1596 4393 c10 -40 14 -41 14 -5 0 18 -5 32 -10 32 -6 0 -8 -11 -4
-27z"/>
<path d="M777 4403 c-11 -10 -8 -45 3 -38 6 4 8 11 5 16 -4 5 -2 9 4 9 5 0 12
-8 14 -17 3 -11 5 -7 6 10 1 25 -16 37 -32 20z"/>
<path d="M826 4385 c7 -23 12 -30 18 -24 2 2 6 13 10 24 5 16 1 21 -14 21 -15
0 -19 -5 -14 -21z"/>
<path d="M870 4395 c-10 -11 -10 -19 -2 -27 15 -15 44 -2 40 19 -4 23 -22 27
-38 8z m30 -9 c0 -3 -4 -8 -10 -11 -5 -3 -10 -1 -10 4 0 6 5 11 10 11 6 0 10
-2 10 -4z"/>
<path d="M947 4403 c-14 -14 -7 -43 11 -42 10 0 12 3 5 6 -17 6 -16 23 1 23 8
0 16 -7 20 -15 3 -8 13 -15 23 -14 11 0 13 3 6 6 -7 2 -13 9 -13 14 0 4 7 6
15 3 8 -4 15 -1 15 4 0 18 -20 25 -35 12 -9 -7 -15 -8 -20 0 -7 12 -19 13 -28
3z"/>
<path d="M1121 4388 c-1 -22 4 -28 19 -28 13 0 20 7 20 20 0 25 -20 27 -21 3
-1 -12 -4 -10 -9 7 l-8 25 -1 -27z"/>
<path d="M1171 4382 c0 -24 1 -25 9 -7 7 17 9 17 9 3 1 -10 6 -18 11 -18 6 0
10 8 11 18 0 14 2 14 9 -3 8 -18 9 -18 9 6 1 22 -3 26 -29 27 -26 1 -30 -3
-29 -26z"/>
<path d="M1341 4383 c0 -25 1 -26 9 -8 12 27 12 35 0 35 -5 0 -10 -12 -9 -27z"/>
<path d="M1441 4383 c2 -24 2 -25 6 -5 2 12 9 20 14 17 5 -4 9 -1 9 4 0 6 -7
11 -15 11 -10 0 -15 -9 -14 -27z"/>
<path d="M1654 4388 c3 -10 -1 -18 -12 -21 -16 -4 -16 -5 0 -6 22 -1 29 11 16
29 -8 12 -9 12 -4 -2z"/>
<path d="M1550 4380 c0 -5 5 -10 10 -10 6 0 10 5 10 10 0 6 -4 10 -10 10 -5 0
-10 -4 -10 -10z"/>
<path d="M1495 4370 c3 -5 8 -10 11 -10 2 0 4 5 4 10 0 6 -5 10 -11 10 -5 0
-7 -4 -4 -10z"/>
<path d="M976 4240 c-15 -16 -22 -17 -33 -8 -11 9 -17 9 -24 -3 -12 -19 -6
-33 17 -37 16 -3 16 -1 4 7 -13 9 -13 11 3 11 9 0 17 -4 17 -10 0 -5 9 -10 20
-10 16 0 20 7 20 35 0 40 1 40 -24 15z m14 -30 c0 -5 -4 -10 -10 -10 -5 0 -10
5 -10 10 0 6 5 10 10 10 6 0 10 -4 10 -10z"/>
<path d="M1060 4245 c-16 -19 -9 -49 13 -53 9 -2 17 1 17 7 0 6 -7 8 -15 5
-11 -4 -15 0 -15 16 0 16 4 20 15 16 8 -3 15 -1 15 4 0 17 -18 20 -30 5z"/>
<path d="M1336 4252 c-3 -6 0 -12 6 -15 10 -3 10 -7 -1 -21 -8 -9 -12 -19 -9
-21 3 -3 11 6 18 20 10 18 10 29 3 36 -7 7 -13 7 -17 1z"/>
<path d="M1386 4251 c-3 -5 1 -11 9 -15 8 -3 15 -1 15 4 0 13 -18 22 -24 11z"/>
<path d="M752 4220 c0 -19 2 -27 5 -17 2 9 2 25 0 35 -3 9 -5 1 -5 -18z"/>
<path d="M1110 4229 c0 -11 5 -17 10 -14 6 3 10 2 10 -4 0 -5 -6 -12 -12 -14
-8 -3 -6 -6 5 -6 11 -1 17 6 17 19 0 11 -5 20 -11 20 -5 0 -7 5 -4 10 3 6 1
10 -4 10 -6 0 -11 -9 -11 -21z"/>
<path d="M1203 4243 c17 -4 17 -6 2 -29 -8 -13 -12 -24 -7 -24 11 0 32 46 25
54 -4 3 -13 5 -22 5 -12 -1 -12 -2 2 -6z"/>
<path d="M1240 4219 c0 -40 31 -37 36 4 2 21 -2 27 -17 27 -15 0 -19 -7 -19
-31z"/>
<path d="M1438 4220 c2 -16 6 -30 8 -30 2 0 4 14 4 30 0 17 -4 30 -8 30 -5 0
-7 -13 -4 -30z"/>
<path d="M1492 4221 c-6 -17 -9 -31 -6 -31 7 0 25 52 20 57 -2 2 -8 -10 -14
-26z"/>
<path d="M776 4231 c-4 -5 -2 -12 4 -16 6 -4 8 -11 5 -16 -4 -5 1 -9 9 -9 11
0 15 7 13 22 -4 24 -22 35 -31 19z"/>
<path d="M829 4238 c-8 -15 -4 -48 6 -48 7 0 13 11 13 25 0 20 -13 35 -19 23z"/>
<path d="M889 4218 c-1 -17 -2 -19 -6 -5 -6 22 -26 22 -21 0 2 -10 11 -19 21
-21 12 -3 17 3 17 22 0 32 -10 35 -11 4z"/>
<path d="M1372 4215 c3 -21 38 -35 38 -15 0 6 -4 9 -9 5 -6 -3 -15 3 -21 12
-10 17 -11 16 -8 -2z"/>
<path d="M750 4050 c0 -23 4 -30 20 -30 11 0 20 5 20 11 0 8 4 8 13 2 6 -5 30
-10 52 -10 22 0 34 2 28 4 -7 3 -13 9 -13 14 0 4 8 5 18 2 15 -6 15 -5 3 11
-9 11 -18 13 -24 7 -5 -5 -15 -7 -22 -4 -7 2 -15 -4 -18 -14 -4 -16 -5 -16 -6
0 0 9 -8 17 -16 17 -8 0 -15 5 -15 10 0 6 -9 10 -20 10 -16 0 -20 -7 -20 -30z
m30 0 c0 -11 -4 -20 -10 -20 -5 0 -10 9 -10 20 0 11 5 20 10 20 6 0 10 -9 10
-20z"/>
<path d="M966 4065 c19 -15 19 -15 0 -30 -16 -12 -17 -15 -4 -15 19 0 30 24
22 45 -4 8 -13 15 -22 15 -13 0 -12 -3 4 -15z"/>
<path d="M1012 4048 c-10 -30 -10 -31 3 -14 13 17 21 46 12 46 -1 0 -8 -15
-15 -32z"/>
<path d="M1084 4066 c-8 -22 3 -49 19 -43 6 2 12 14 12 27 0 27 -22 39 -31 16z
m26 -16 c0 -11 -4 -20 -10 -20 -5 0 -10 9 -10 20 0 11 5 20 10 20 6 0 10 -9
10 -20z"/>
<path d="M1140 4072 c8 -4 15 -14 15 -22 0 -8 -7 -18 -15 -22 -11 -6 -10 -7 5
-5 27 3 27 51 0 54 -15 2 -16 1 -5 -5z"/>
<path d="M1229 4071 c12 -8 13 -12 1 -25 -7 -9 -10 -19 -6 -23 8 -9 13 -2 21
30 6 22 4 27 -11 27 -15 0 -16 -2 -5 -9z"/>
<path d="M1270 4070 c0 -5 7 -7 15 -4 8 4 15 8 15 10 0 2 -7 4 -15 4 -8 0 -15
-4 -15 -10z"/>
<path d="M1328 4050 c2 -16 6 -30 8 -30 2 0 4 14 4 30 0 17 -4 30 -8 30 -5 0
-7 -13 -4 -30z"/>
<path d="M1382 4048 c-10 -30 -10 -31 3 -14 13 17 21 46 12 46 -1 0 -8 -15
-15 -32z"/>
<path d="M1266 4036 c3 -9 13 -16 22 -16 8 0 13 1 11 3 -2 1 -12 9 -22 16 -15
12 -17 12 -11 -3z"/>
<path d="M2683 3825 l2 -30 65 0 c63 0 65 1 65 25 0 23 -4 25 -52 28 -48 3
-53 1 -53 -17 0 -28 -17 -27 -23 2 -4 15 -5 12 -4 -8z"/>
<path d="M893 3832 c-31 -3 -33 -6 -33 -42 l0 -39 59 2 c33 1 63 6 67 10 4 4
13 2 20 -4 14 -11 34 -4 34 12 0 6 -4 8 -9 4 -5 -3 -12 -1 -16 5 -3 5 3 10 13
10 11 0 22 -9 25 -19 6 -25 47 -24 47 1 0 9 5 20 10 23 6 4 10 -5 10 -19 0
-14 5 -26 10 -26 6 0 10 5 10 11 0 8 4 8 15 -1 14 -12 35 -6 35 10 0 5 -7 7
-15 4 -8 -4 -15 -1 -15 5 0 6 7 11 15 11 8 0 15 5 15 10 0 14 -37 12 -43 -2
-4 -10 -6 -10 -6 0 -1 7 -15 12 -35 12 -19 0 -37 6 -39 13 -4 9 -7 9 -14 0
-12 -17 -113 -23 -113 -6 0 16 -9 19 -47 15z m25 -39 c-2 -10 -12 -19 -23 -21
-20 -3 -20 -3 0 9 19 12 19 12 0 20 -18 7 -18 8 3 8 17 1 23 -4 20 -16z m159
-15 c-3 -8 -6 -5 -6 6 -1 11 2 17 5 13 3 -3 4 -12 1 -19z"/>
<path d="M1120 3830 c0 -5 5 -10 10 -10 6 0 10 5 10 10 0 6 -4 10 -10 10 -5 0
-10 -4 -10 -10z"/>
<path d="M1280 3806 c0 -30 -3 -37 -17 -34 -11 2 -19 14 -21 31 -5 42 -24 32
-20 -10 3 -36 5 -38 38 -39 19 -1 38 4 42 10 5 6 8 2 8 -11 0 -26 22 -30 40
-8 7 8 16 12 21 9 5 -3 9 5 10 18 0 23 0 23 12 -2 l11 -25 4 30 c5 29 5 29 11
6 11 -40 30 -37 26 4 -4 40 -15 58 -22 38 -7 -20 -43 -16 -43 5 -1 16 -2 16
-13 0 -15 -19 -72 -29 -72 -11 0 6 -3 15 -7 19 -5 4 -8 -9 -8 -30z m60 -26 c0
-5 -2 -10 -4 -10 -3 0 -8 5 -11 10 -3 6 -1 10 4 10 6 0 11 -4 11 -10z"/>
<path d="M2310 3825 c-11 -13 -10 -19 6 -36 16 -17 16 -19 1 -13 -20 7 -23 -6
-5 -24 9 -9 16 -8 30 5 17 16 17 17 1 36 -10 11 -12 17 -5 13 10 -6 13 -3 10
9 -4 25 -22 29 -38 10z"/>
<path d="M757 3824 c-8 -8 2 -55 14 -68 12 -14 22 20 15 49 -6 25 -16 31 -29
19z"/>
<path d="M2377 3823 c-7 -13 5 -73 14 -73 5 0 9 18 9 40 0 36 -12 52 -23 33z"/>
<path d="M2427 3823 c-4 -3 -7 -19 -7 -35 0 -34 28 -50 44 -26 9 15 11 15 22
0 10 -14 14 -14 28 -3 20 17 21 60 1 67 -8 4 -22 1 -29 -5 -10 -8 -16 -9 -21
-1 -7 11 -28 13 -38 3z m20 -45 c-3 -7 -5 -2 -5 12 0 14 2 19 5 13 2 -7 2 -19
0 -25z m60 0 c-3 -7 -5 -2 -5 12 0 14 2 19 5 13 2 -7 2 -19 0 -25z"/>
<path d="M2567 3823 c-4 -3 -7 -17 -7 -30 0 -12 -4 -23 -10 -23 -5 0 -10 -5
-10 -12 0 -9 3 -9 12 0 9 9 15 9 26 0 11 -10 17 -9 27 6 12 16 14 16 23 0 15
-27 42 -10 42 26 0 36 -27 52 -45 26 -11 -14 -13 -15 -19 -1 -6 15 -27 20 -39
8z m33 -34 c0 -5 -4 -9 -10 -9 -5 0 -10 7 -10 16 0 8 5 12 10 9 6 -3 10 -10
10 -16z m47 -11 c-3 -7 -5 -2 -5 12 0 14 2 19 5 13 2 -7 2 -19 0 -25z"/>
<path d="M830 3760 c0 -5 5 -10 10 -10 6 0 10 5 10 10 0 6 -4 10 -10 10 -5 0
-10 -4 -10 -10z"/>
<path d="M952 3648 c-16 -16 -15 -28 3 -28 8 0 15 -4 15 -10 0 -5 -7 -10 -16
-10 -8 0 -12 -4 -9 -10 10 -16 35 -12 42 6 4 11 -1 22 -12 30 -10 8 -13 14 -7
14 7 0 12 5 12 10 0 14 -13 13 -28 -2z"/>
<path d="M1020 3646 c-6 -8 -10 -25 -8 -38 3 -22 7 -23 81 -24 68 0 77 2 77
18 0 26 18 22 23 -4 4 -20 4 -19 6 4 1 18 -6 31 -19 38 -16 9 -20 8 -21 -7 -1
-10 -1 -21 0 -25 0 -5 -6 -8 -14 -8 -8 0 -15 5 -15 10 0 6 5 10 11 10 5 0 7 5
4 10 -4 7 -13 7 -24 0 -12 -6 -22 -5 -29 2 -8 8 -14 4 -23 -15 -12 -26 -39
-38 -39 -17 0 6 5 10 11 10 8 0 8 5 -1 15 -10 12 -9 15 4 15 10 0 14 5 11 10
-9 14 -21 12 -35 -4z"/>
<path d="M794 3636 c-10 -25 0 -48 24 -57 18 -7 22 -5 22 13 0 21 0 21 15 2
14 -18 14 -18 15 6 0 20 2 22 10 10 5 -8 7 -24 4 -35 -5 -20 -5 -20 10 -1 9
11 16 25 16 32 0 7 6 15 13 17 7 3 5 6 -5 6 -10 1 -18 -4 -18 -11 0 -6 -6 -3
-14 7 -8 11 -19 16 -30 12 -9 -4 -16 -2 -16 3 0 16 -40 12 -46 -4z m36 -22 c0
-8 -7 -14 -15 -14 -15 0 -21 21 -9 33 10 9 24 -2 24 -19z"/>
<path d="M2681 3393 l-1 -32 68 2 c64 2 67 3 67 27 0 23 -3 25 -52 25 -44 0
-53 -3 -53 -17 0 -26 -18 -22 -23 5 -3 16 -5 14 -6 -10z"/>
<path d="M2312 3394 c-12 -13 -11 -18 4 -35 16 -18 16 -19 1 -13 -22 8 -22 -9
-1 -27 14 -11 18 -10 31 6 12 18 12 22 -9 39 -16 13 -18 17 -5 13 19 -7 20 -6
11 17 -8 20 -15 20 -32 0z"/>
<path d="M750 3385 c-10 -12 -10 -15 4 -15 18 0 22 -15 6 -25 -19 -12 -10 -25
16 -25 21 0 24 3 15 13 -8 10 -7 17 1 25 8 8 8 15 -2 27 -16 19 -24 19 -40 0z"/>
<path d="M860 3360 l0 -40 63 1 c34 1 65 7 69 13 6 8 8 7 8 -1 0 -7 9 -13 20
-13 11 0 20 5 20 10 0 6 -7 10 -15 10 -8 0 -15 4 -15 9 0 17 39 7 43 -11 7
-26 47 -24 47 2 0 11 5 20 10 20 6 0 10 -9 10 -20 0 -22 15 -27 23 -7 4 10 6
10 6 0 1 -15 41 -18 41 -3 0 6 -7 10 -15 10 -8 0 -15 5 -15 11 0 6 7 9 15 5 9
-3 15 0 15 9 0 18 -36 20 -43 3 -3 -7 -6 -3 -6 10 -1 22 -21 33 -21 11 0 -8
-12 -10 -35 -6 -19 3 -35 2 -35 -3 0 -4 -8 -6 -19 -3 -10 3 -22 0 -26 -7 -5
-8 -10 -8 -21 1 -7 6 -21 9 -29 5 -9 -3 -15 0 -15 8 0 8 -15 13 -40 14 l-40 2
0 -40z m58 -3 c3 -12 -3 -17 -20 -17 -19 0 -20 2 -8 10 13 9 13 11 0 21 -12 8
-12 10 5 7 11 -2 21 -11 23 -21z m159 -9 c-3 -8 -6 -5 -6 6 -1 11 2 17 5 13 3
-3 4 -12 1 -19z"/>
<path d="M1231 3386 c-10 -11 -7 -18 11 -31 l23 -17 -24 7 c-17 5 -22 4 -19
-6 6 -18 37 -24 51 -10 7 7 5 17 -9 32 -19 22 -19 22 4 10 12 -6 22 -20 22
-31 0 -25 51 -21 61 6 7 17 8 17 8 -3 1 -32 19 -29 24 5 l4 27 2 -27 c2 -40
26 -35 25 4 -1 21 -6 33 -15 33 -8 0 -17 4 -21 10 -4 5 -15 0 -26 -13 -14 -16
-22 -19 -25 -10 -4 10 -8 10 -16 -2 -6 -8 -11 -10 -11 -4 0 6 -11 16 -25 22
-32 15 -30 15 -44 -2z"/>
<path d="M1470 3387 c0 -8 -10 -13 -22 -13 -18 1 -23 -5 -23 -24 0 -21 5 -25
32 -27 25 -1 33 3 36 20 4 22 4 22 6 0 2 -34 21 -28 21 7 0 20 -5 30 -15 30
-8 0 -15 5 -15 10 0 6 -4 10 -10 10 -5 0 -10 -6 -10 -13z m0 -37 c0 -5 -7 -10
-15 -10 -8 0 -15 5 -15 10 0 6 7 10 15 10 8 0 15 -4 15 -10z"/>
<path d="M1530 3360 c0 -32 4 -40 18 -40 10 0 23 5 30 12 8 8 12 8 12 1 0 -6
21 -11 51 -11 48 0 50 1 47 27 -3 30 -38 44 -38 15 0 -16 -1 -16 -14 2 -12 16
-18 17 -34 7 -16 -10 -23 -8 -40 8 -29 26 -32 25 -32 -21z m90 -10 c0 -5 -4
-10 -10 -10 -5 0 -10 5 -10 10 0 6 5 10 10 10 6 0 10 -4 10 -10z"/>
<path d="M1758 3388 c-3 -7 -17 -12 -31 -10 -24 2 -27 -2 -27 -28 0 -34 20
-42 21 -7 l0 22 9 -22 c8 -19 16 -22 57 -20 44 2 48 4 48 27 0 18 -6 25 -20
25 -13 0 -20 -6 -19 -17 1 -10 -2 -18 -7 -18 -5 0 -9 14 -9 30 0 30 -15 41
-22 18z"/>
<path d="M2427 3393 c-12 -12 -7 -23 10 -23 15 0 15 -1 0 -18 -23 -25 -21 -32
9 -32 21 0 24 3 15 13 -6 8 -8 17 -5 20 4 3 14 -3 24 -15 21 -27 50 -18 50 15
0 14 -7 31 -16 38 -14 11 -18 11 -28 -3 -9 -13 -13 -13 -24 -2 -14 15 -25 18
-35 7z m80 -45 c-3 -7 -5 -2 -5 12 0 14 2 19 5 13 2 -7 2 -19 0 -25z"/>
<path d="M2572 3388 c-7 -7 -12 -23 -12 -36 0 -13 -4 -20 -10 -17 -5 3 -10 2
-10 -3 0 -5 16 -9 35 -10 26 -1 35 3 35 15 0 15 2 15 14 -2 19 -26 46 -13 46
24 0 37 -16 48 -39 27 -17 -15 -19 -15 -24 -1 -8 18 -19 19 -35 3z m75 -40
c-3 -7 -5 -2 -5 12 0 14 2 19 5 13 2 -7 2 -19 0 -25z m-47 7 c0 -8 -4 -15 -10
-15 -5 0 -10 7 -10 15 0 8 5 15 10 15 6 0 10 -7 10 -15z"/>
<path d="M2374 3374 c3 -9 6 -24 6 -35 0 -10 5 -19 10 -19 6 0 10 16 10 35 0
25 -4 35 -16 35 -11 0 -14 -5 -10 -16z"/>
<path d="M830 3330 c0 -5 5 -10 10 -10 6 0 10 5 10 10 0 6 -4 10 -10 10 -5 0
-10 -4 -10 -10z"/>
<path d="M797 3213 c-14 -13 -6 -53 12 -63 27 -14 31 -13 32 8 0 10 3 12 6 5
8 -21 23 -15 23 10 1 20 2 20 11 4 6 -10 8 -25 5 -33 -12 -30 11 -12 26 21 13
29 13 35 2 35 -8 0 -14 -5 -14 -11 0 -6 -7 -3 -16 6 -9 9 -23 14 -30 11 -7 -3
-16 -1 -19 4 -7 11 -29 13 -38 3z m31 -30 c-4 -22 -22 -20 -26 1 -2 10 3 16
13 16 10 0 15 -7 13 -17z"/>
<path d="M952 3208 c-7 -7 -12 -20 -12 -29 0 -10 -6 -19 -12 -22 -7 -2 2 -4
19 -5 40 -1 47 8 30 42 -11 19 -17 22 -25 14z"/>
<path d="M1014 3206 c-3 -8 -4 -23 -2 -33 3 -15 14 -18 78 -19 68 0 76 2 81
20 6 20 7 20 17 -4 l11 -25 0 28 c1 17 -4 27 -13 27 -8 0 -17 6 -19 13 -3 7
-6 4 -6 -7 -1 -14 -4 -16 -14 -7 -10 8 -17 7 -25 -1 -8 -8 -15 -8 -26 2 -13
10 -17 8 -26 -14 -5 -14 -16 -26 -25 -26 -18 0 -20 16 -2 23 8 4 8 6 -2 6 -11
1 -10 5 5 16 18 14 18 14 -4 15 -12 0 -25 -6 -28 -14z m146 -31 c0 -2 -7 -5
-15 -9 -9 -3 -15 0 -15 9 0 9 6 12 15 9 8 -4 15 -7 15 -9z"/>
<path d="M2710 2903 c0 -5 9 -18 20 -28 l20 -18 -20 -22 c-29 -31 -25 -43 5
-15 14 13 25 29 25 35 0 6 -11 22 -25 35 -14 13 -25 19 -25 13z"/>
<path d="M781 2859 c-6 -18 -11 -32 -11 -33 0 -1 52 -2 115 -2 97 -1 115 1
118 15 4 14 5 13 6 -1 2 -27 21 -21 21 6 0 21 -6 24 -40 28 -22 2 -45 -1 -50
-6 -7 -7 -10 -4 -10 7 0 9 -4 17 -10 17 -5 0 -10 -6 -10 -12 0 -10 -3 -9 -9 1
-6 10 -10 10 -16 1 -4 -6 -13 -9 -20 -6 -8 3 -19 -2 -26 -10 -11 -14 -14 -13
-21 5 -11 30 -24 26 -37 -10z m96 -15 c-3 -3 -12 -4 -19 -1 -8 3 -5 6 6 6 11
1 17 -2 13 -5z"/>
<path d="M1057 2883 c-4 -7 -3 -48 2 -63 1 -3 8 4 16 14 12 15 15 16 15 5 0
-11 12 -16 44 -16 38 -1 46 2 49 21 4 20 4 20 6 -2 1 -21 5 -23 48 -19 34 2
48 8 53 22 6 17 7 17 13 2 3 -9 4 -24 1 -32 -4 -8 -1 -15 5 -15 11 0 31 40 31
61 0 6 -19 10 -42 9 -65 0 -82 2 -95 13 -9 6 -13 6 -13 -1 0 -5 -11 -9 -25 -9
-14 0 -25 3 -25 7 0 4 -11 8 -25 8 -14 0 -25 -5 -25 -10 0 -6 -6 -6 -14 1 -8
7 -16 8 -19 4z m60 -35 c-3 -8 -6 -5 -6 6 -1 11 2 17 5 13 3 -3 4 -12 1 -19z"/>
<path d="M2710 2514 c0 -6 9 -19 20 -29 l20 -18 -22 -24 c-12 -12 -19 -25 -16
-29 3 -3 16 9 28 26 l23 32 -27 26 c-14 15 -26 22 -26 16z"/>
<path d="M782 2498 c-5 -7 -9 -24 -7 -38 4 -36 4 -37 15 -20 7 10 13 11 18 5
9 -14 55 -17 62 -5 4 6 16 1 28 -10 17 -16 23 -18 27 -8 4 10 24 13 68 12 34
-1 68 2 75 8 8 7 12 7 12 -1 0 -6 4 -11 9 -11 5 0 7 15 6 33 -4 42 -3 41 -17
30 -7 -5 -37 -9 -65 -9 -47 1 -53 -1 -54 -19 0 -19 -1 -19 -9 1 -7 18 -16 21
-65 20 -35 -1 -60 3 -67 11 -13 16 -23 16 -36 1z"/>
<path d="M1134 2499 c-9 -11 -11 -39 -5 -68 1 -2 7 2 15 8 9 8 16 8 20 2 8
-13 61 -7 61 7 0 6 3 14 8 18 15 15 6 23 -25 21 -18 -2 -38 -6 -45 -10 -7 -5
-13 1 -15 15 -2 18 -5 19 -14 7z"/>
<path d="M1260 2470 c0 -33 3 -40 18 -38 9 2 20 12 24 23 6 19 6 18 7 -2 1
-13 6 -23 11 -23 6 0 10 10 11 23 1 21 1 21 8 -3 7 -24 7 -24 14 9 10 49 9 55
-9 40 -20 -17 -64 -18 -64 -2 0 7 -4 13 -10 13 -5 0 -10 -18 -10 -40z"/>
<path d="M1600 2500 c0 -5 -7 -7 -15 -4 -8 4 -15 1 -15 -6 0 -7 -8 -9 -20 -5
-15 5 -20 2 -20 -12 -1 -17 -1 -17 -11 0 -8 14 -22 17 -75 15 -67 -2 -89 -14
-78 -41 9 -24 61 -19 69 7 7 21 7 21 13 1 4 -11 14 -20 22 -20 8 0 18 9 22 20
6 19 6 19 7 -1 1 -19 7 -21 61 -22 40 0 60 3 60 11 0 9 2 9 8 1 4 -7 19 -12
34 -12 19 0 28 6 31 22 4 20 4 20 6 -1 0 -13 6 -23 12 -23 6 0 9 12 7 28 -3
24 -7 27 -43 29 -22 0 -43 -4 -47 -10 -5 -7 -8 -3 -8 11 0 12 -4 22 -10 22 -5
0 -10 -4 -10 -10z"/>
<path d="M2730 2108 l23 -28 -23 -27 -24 -28 29 28 30 27 -30 28 -29 27 24
-27z"/>
<path d="M786 2088 c-16 -36 -11 -55 8 -39 7 6 16 8 20 4 3 -4 15 -7 26 -8 14
-1 20 5 21 19 0 20 1 20 8 2 8 -20 57 -31 67 -15 3 5 11 6 17 2 6 -4 37 -7 69
-8 51 0 58 2 59 20 0 17 2 17 10 -5 8 -18 12 -21 18 -11 6 9 11 10 15 2 11
-17 26 -13 26 7 1 15 2 14 12 -3 12 -19 12 -19 19 5 6 21 7 21 8 5 1 -17 8
-21 44 -20 39 0 42 2 45 28 3 23 0 28 -15 26 -10 -2 -24 1 -32 6 -9 5 -16 5
-18 -1 -4 -13 -196 -9 -201 5 -5 15 -22 14 -22 -2 0 -10 -13 -13 -44 -11 -35
2 -46 -1 -49 -14 -3 -12 -5 -11 -6 5 -1 17 -6 21 -28 19 -19 -1 -28 -7 -27
-19 1 -9 -2 -14 -7 -11 -5 3 -9 11 -9 19 0 29 -21 25 -34 -7z m204 -12 c0 -2
-7 -6 -15 -10 -8 -3 -15 -1 -15 4 0 6 7 10 15 10 8 0 15 -2 15 -4z"/>
<path d="M832 1518 l2 -133 3 128 4 127 964 -2 c531 -2 965 0 965 5 0 4 -436
7 -970 7 l-970 0 2 -132z"/>
<path d="M874 1586 c-10 -26 1 -51 24 -54 12 -2 22 1 22 6 0 6 -9 8 -21 5 -17
-5 -20 -2 -17 18 2 16 9 24 21 23 9 -1 17 2 17 7 0 15 -40 10 -46 -5z"/>
<path d="M1280 1567 c0 -20 3 -37 8 -37 9 0 8 57 -1 67 -4 3 -7 -10 -7 -30z"/>
<path d="M940 1575 c-16 -19 -5 -47 17 -43 22 4 29 43 9 51 -8 3 -20 -1 -26
-8z m30 -21 c0 -16 -16 -19 -25 -4 -8 13 4 32 16 25 5 -4 9 -13 9 -21z"/>
<path d="M1233 1583 c-7 -3 -12 -17 -12 -31 1 -21 2 -23 6 -7 8 34 23 41 23
12 0 -15 5 -27 10 -27 14 0 12 36 -2 47 -7 6 -19 8 -25 6z"/>
<path d="M1320 1579 c-13 -8 -12 -11 3 -23 18 -14 18 -14 0 -19 -14 -4 -14 -5
5 -6 13 -1 22 5 22 14 0 8 -6 15 -12 15 -10 0 -9 3 1 9 7 5 9 11 4 14 -5 3
-15 1 -23 -4z"/>
<path d="M991 1553 c2 -24 2 -25 6 -5 2 12 9 22 14 22 5 0 9 -10 10 -22 0 -22
1 -22 9 -3 13 31 12 35 -15 35 -21 0 -25 -4 -24 -27z"/>
<path d="M1053 1561 c4 -29 17 -39 17 -13 0 11 -5 24 -10 27 -6 4 -9 -2 -7
-14z"/>
<path d="M1081 1553 c2 -24 2 -25 6 -5 2 12 9 22 14 22 5 0 9 -10 10 -22 0
-22 1 -22 9 -3 13 31 12 35 -15 35 -21 0 -25 -4 -24 -27z"/>
<path d="M1140 1556 c0 -14 5 -26 10 -26 6 0 10 9 10 19 0 11 -4 23 -10 26 -6
4 -10 -5 -10 -19z"/>
<path d="M1171 1558 c-1 -23 3 -28 22 -27 15 1 17 3 5 6 -9 2 -19 14 -21 26
-4 18 -5 17 -6 -5z"/>
<path d="M1190 1564 c0 -8 5 -12 10 -9 6 3 10 10 10 16 0 5 -4 9 -10 9 -5 0
-10 -7 -10 -16z"/>
<path d="M697 1343 c-4 -3 -7 -59 -7 -124 0 -115 1 -119 23 -124 12 -3 161 -4
332 -3 l310 3 0 125 0 125 -326 3 c-179 1 -328 -1 -332 -5z m137 -95 c20 -29
20 -34 -4 -58 -24 -24 -43 -25 -64 -4 -31 30 -9 84 34 84 10 0 26 -10 34 -22z
m86 -10 l9 -23 0 22 c1 20 5 21 86 21 47 -1 88 -5 91 -10 3 -5 11 -5 17 0 7 5
27 10 45 10 23 0 32 -4 32 -16 1 -16 2 -15 11 1 7 11 22 17 49 17 42 0 57 -19
18 -21 -17 -1 -19 -2 -5 -6 9 -2 17 -8 17 -13 0 -5 -8 -11 -17 -13 -14 -4 -12
-5 5 -6 33 -2 27 -21 -8 -21 -26 0 -30 4 -31 28 l-1 27 -10 -27 c-12 -34 -38
-37 -39 -5 l0 22 -9 -22 c-7 -17 -17 -22 -49 -21 -31 0 -41 5 -42 17 -1 14 -2
13 -6 -1 -6 -23 -31 -23 -35 -1 -3 16 -4 16 -20 0 -9 -9 -21 -17 -27 -17 -5 0
-11 8 -13 17 -3 15 -4 15 -19 0 -20 -19 -99 -20 -99 0 0 19 22 63 32 63 5 0
13 -10 18 -22z"/>
<path d="M775 1239 c-12 -19 5 -23 22 -6 16 16 16 17 1 17 -9 0 -20 -5 -23
-11z"/>
<path d="M796 1204 c-17 -12 -17 -14 -4 -14 9 0 20 5 23 11 11 17 2 18 -19 3z"/>
<path d="M1140 1220 c0 -19 3 -21 12 -12 9 9 9 15 0 24 -9 9 -12 7 -12 -12z"/>
<path d="M1447 1343 c-10 -9 -8 -225 1 -241 7 -9 81 -12 338 -10 l329 3 0 125
0 125 -331 3 c-182 1 -333 -1 -337 -5z m183 -103 c8 -14 8 -26 0 -40 -19 -35
-80 -20 -80 20 0 40 61 55 80 20z m91 -18 c6 -31 -4 -44 -15 -19 -5 10 -7 10
-12 0 -10 -23 -24 -14 -24 15 0 54 40 57 51 4z m59 28 c0 -5 -8 -10 -17 -10
-15 0 -16 -2 -3 -10 13 -9 13 -11 0 -20 -13 -8 -12 -10 3 -10 9 0 17 -4 17
-10 0 -5 -9 -10 -20 -10 -17 0 -20 7 -20 40 0 33 3 40 20 40 11 0 20 -4 20
-10z m110 0 c0 -5 -8 -10 -17 -10 -15 0 -16 -2 -3 -10 13 -9 13 -11 0 -20 -13
-8 -12 -10 3 -10 9 0 17 -5 17 -11 0 -6 -10 -9 -22 -7 -23 3 -35 35 -24 64 6
16 46 19 46 4z m44 4 c23 -9 20 -26 -4 -19 -16 5 -20 2 -20 -15 0 -18 4 -21
21 -17 13 3 19 1 16 -6 -2 -7 -12 -12 -23 -12 -20 0 -31 33 -20 61 6 16 8 16
30 8z m59 -26 c-3 -18 -7 -35 -9 -37 -6 -7 -11 2 -17 37 -6 27 -4 32 13 32 17
0 19 -5 13 -32z m-171 -40 c-11 -11 -32 -3 -32 12 0 5 7 7 15 4 11 -5 15 1 16
22 l2 29 4 -29 c3 -16 0 -33 -5 -38z"/>
<path d="M1571 1241 c-17 -11 -8 -39 15 -48 8 -3 23 1 31 10 13 13 14 19 3 31
-14 18 -28 20 -49 7z m36 -20 c1 -14 -3 -18 -13 -14 -17 6 -18 20 -1 26 6 3
12 6 12 6 1 1 1 -8 2 -18z"/>
<path d="M1690 1229 c0 -5 5 -7 10 -4 6 3 10 8 10 11 0 2 -4 4 -10 4 -5 0 -10
-5 -10 -11z"/>
<path d="M2272 1265 c-16 -16 -22 -34 -20 -52 3 -25 7 -28 43 -28 36 0 40 3
43 28 2 19 -4 36 -20 52 l-24 23 -22 -23z m48 -51 c0 -19 -5 -24 -25 -24 -20
0 -25 5 -25 24 0 18 5 24 25 24 20 0 25 -6 25 -24z"/>
<path d="M2377 1253 c-11 -10 -8 -61 3 -68 6 -3 10 1 10 9 0 21 30 20 46 -1
11 -15 16 -16 33 -5 13 7 21 8 21 2 0 -5 5 -10 10 -10 6 0 10 7 10 15 0 8 5
15 10 15 6 0 10 -7 10 -15 0 -8 5 -15 11 -15 7 0 9 10 5 25 -9 33 2 32 16 -2
9 -22 12 -24 15 -10 5 21 23 23 23 2 0 -8 4 -15 9 -15 10 0 21 35 21 65 -1 19
-1 19 -14 2 -11 -14 -15 -15 -20 -5 -5 11 -7 11 -12 0 -5 -10 -9 -9 -20 5 -8
11 -13 13 -14 5 0 -10 -4 -10 -21 0 -17 11 -22 10 -33 -5 -12 -15 -14 -16 -20
-2 -8 21 -31 19 -47 -5 -10 -15 -18 -17 -29 -10 -13 8 -12 10 3 10 9 0 17 5
17 10 0 11 -33 14 -43 3z m88 -43 c-5 -8 -11 -8 -17 -2 -6 6 -7 16 -3 22 5 8
11 8 17 2 6 -6 7 -16 3 -22z"/>
<path d="M2641 1229 c-15 -44 -14 -54 5 -38 10 8 18 9 22 2 10 -15 42 -12 42
4 0 7 5 13 10 13 6 0 10 -7 10 -15 0 -8 4 -15 9 -15 5 0 9 16 9 35 0 25 -5 36
-19 40 -26 9 -39 -2 -39 -33 -1 -27 -1 -27 -15 6 -8 17 -16 32 -19 32 -2 0 -9
-14 -15 -31z"/>
<path d="M2760 1219 c0 -36 2 -40 23 -37 42 6 33 77 -10 78 -8 0 -13 -15 -13
-41z m30 1 c0 -11 -4 -20 -10 -20 -5 0 -10 9 -10 20 0 11 5 20 10 20 6 0 10
-9 10 -20z"/>
<path d="M4750 4901 c0 -6 4 -13 10 -16 6 -3 7 1 4 9 -7 18 -14 21 -14 7z"/>
<path d="M5006 4897 c3 -10 9 -15 12 -12 3 3 0 11 -7 18 -10 9 -11 8 -5 -6z"/>
<path d="M5040 4900 c0 -5 5 -10 11 -10 5 0 7 5 4 10 -3 6 -8 10 -11 10 -2 0
-4 -4 -4 -10z"/>
<path d="M5100 4899 c0 -5 5 -7 10 -4 6 3 10 8 10 11 0 2 -4 4 -10 4 -5 0 -10
-5 -10 -11z"/>
<path d="M5283 4875 c0 -22 2 -30 4 -17 2 12 2 30 0 40 -3 9 -5 -1 -4 -23z"/>
<path d="M6313 4870 c0 -25 2 -35 4 -22 2 12 2 32 0 45 -2 12 -4 2 -4 -23z"/>
<path d="M6344 4899 c-3 -6 -2 -15 3 -20 5 -5 9 -1 9 11 0 23 -2 24 -12 9z"/>
<path d="M6485 4899 c-4 -6 -5 -12 -2 -15 2 -3 7 2 10 11 7 17 1 20 -8 4z"/>
<path d="M5232 4870 c0 -19 2 -27 5 -17 2 9 2 25 0 35 -3 9 -5 1 -5 -18z"/>
<path d="M5311 4874 c0 -11 3 -14 6 -6 3 7 2 16 -1 19 -3 4 -6 -2 -5 -13z"/>
<path d="M5087 4573 c-11 -10 -8 -73 3 -73 6 0 10 7 10 15 0 8 7 15 15 15 21
0 19 18 -2 23 -17 4 -17 5 0 6 9 0 17 6 17 11 0 11 -33 14 -43 3z"/>
<path d="M6312 4298 c1 -226 3 -265 10 -193 4 50 8 97 8 105 -1 8 -3 78 -5
155 -3 87 -1 132 5 120 5 -11 9 -15 9 -10 1 6 6 3 12 -5 8 -11 12 -12 15 -3 4
10 10 10 24 1 23 -14 29 -10 32 22 3 28 -29 41 -43 18 -6 -9 -9 -7 -9 10 0 12
-4 22 -10 22 -5 0 -10 -9 -10 -20 0 -13 -5 -18 -15 -14 -10 4 -12 15 -9 34 4
15 1 31 -5 34 -8 5 -11 -72 -9 -276z"/>
<path d="M4890 4541 c0 -17 5 -33 10 -36 6 -4 10 8 10 29 0 20 -4 36 -10 36
-5 0 -10 -13 -10 -29z"/>
<path d="M4920 4535 c0 -19 5 -35 10 -35 6 0 10 5 10 11 0 8 4 8 13 1 6 -5 24
-10 40 -10 20 0 27 5 27 19 0 27 18 24 23 -3 3 -17 5 -14 6 9 1 32 1 32 -46
31 -27 0 -51 -6 -55 -12 -5 -7 -8 -5 -8 7 0 9 -4 17 -10 17 -5 0 -10 -16 -10
-35z m60 -5 c0 -5 -4 -10 -10 -10 -5 0 -10 5 -10 10 0 6 5 10 10 10 6 0 10 -4
10 -10z"/>
<path d="M4744 4545 c-4 -8 -3 -23 2 -32 6 -15 8 -13 14 12 7 29 10 27 23 -15
3 -11 8 -8 15 10 9 21 11 22 11 5 1 -16 9 -21 37 -23 33 -2 35 0 32 25 -3 32
-38 46 -38 16 -1 -17 -1 -17 -11 0 -13 22 -77 24 -85 2z"/>
<path d="M5140 4529 c0 -35 15 -31 22 6 4 17 1 25 -8 25 -9 0 -14 -11 -14 -31z"/>
<path d="M5174 4546 c-9 -24 4 -48 23 -44 12 2 18 12 18 28 0 29 -32 41 -41
16z m28 -28 c-9 -9 -12 -7 -12 12 0 19 3 21 12 12 9 -9 9 -15 0 -24z"/>
<path d="M5230 4529 c0 -34 14 -30 23 6 4 15 5 13 6 -7 0 -16 5 -28 10 -28 5
0 12 12 14 28 l4 27 2 -27 c0 -16 6 -28 12 -28 6 0 9 12 7 28 -3 23 -8 27 -40
30 -37 3 -38 2 -38 -29z"/>
<path d="M6460 4525 c-8 -10 -6 -17 12 -30 l23 -17 -22 7 c-14 4 -23 2 -23 -5
0 -17 31 -24 50 -12 12 7 21 7 28 0 21 -21 42 0 40 39 -1 37 -1 37 -5 6 -5
-41 -33 -45 -33 -5 0 23 -5 27 -29 29 -16 1 -34 -4 -41 -12z m45 -16 c11 -17
2 -18 -19 -3 -17 12 -17 14 -4 14 9 0 20 -5 23 -11z"/>
<path d="M6587 4534 c-4 -4 -7 -22 -7 -41 0 -28 3 -33 24 -33 13 0 27 6 29 13
4 10 6 10 6 0 1 -20 21 -15 21 4 0 15 2 14 15 -3 10 -13 14 -14 15 -5 0 11 3
11 15 1 13 -11 15 -7 15 29 0 46 -16 55 -26 15 l-7 -27 -14 27 c-16 30 -32 26
-34 -7 -1 -20 -2 -20 -8 3 -7 25 -30 37 -44 24z"/>
<path d="M6767 4508 c8 -46 23 -59 23 -20 0 18 5 32 10 32 6 0 10 5 10 10 0 6
-11 10 -25 10 -22 0 -24 -3 -18 -32z"/>
<path d="M6730 4495 c0 -19 5 -35 10 -35 6 0 10 16 10 35 0 19 -4 35 -10 35
-5 0 -10 -16 -10 -35z"/>
<path d="M6375 4339 c-4 -5 1 -20 12 -31 16 -20 17 -21 1 -15 -10 4 -18 2 -18
-4 0 -12 28 -24 37 -16 10 10 10 51 0 65 -12 15 -24 16 -32 1z"/>
<path d="M6430 4330 c0 -11 7 -20 15 -20 8 0 15 -4 15 -10 0 -5 -7 -10 -15
-10 -8 0 -15 -4 -15 -10 0 -14 27 -13 36 1 4 8 9 7 15 -2 4 -7 10 -11 14 -8 3
3 -6 18 -19 32 -14 15 -21 27 -16 27 6 0 10 5 10 10 0 6 -9 10 -20 10 -13 0
-20 -7 -20 -20z"/>
<path d="M6500 4334 c-14 -7 -20 -14 -14 -14 7 0 15 -12 18 -26 10 -39 41 -28
41 15 0 39 -10 45 -45 25z m40 -24 c0 -11 -4 -20 -10 -20 -5 0 -10 9 -10 20 0
11 5 20 10 20 6 0 10 -9 10 -20z"/>
<path d="M6575 4324 c-16 -24 -16 -26 2 -39 23 -17 33 -10 33 25 0 39 -14 45
-35 14z"/>
<path d="M5957 4272 c-22 -24 -21 -55 1 -75 23 -21 46 -22 66 -1 21 21 20 57
-2 77 -24 22 -45 21 -65 -1z m64 -18 c17 -21 0 -49 -32 -49 -24 0 -36 23 -25
51 7 19 40 18 57 -2z"/>
<path d="M6345 4280 c-3 -5 -1 -10 4 -10 6 0 11 5 11 10 0 6 -2 10 -4 10 -3 0
-8 -4 -11 -10z"/>
<path d="M4896 4262 c-3 -5 -17 -7 -31 -4 -23 4 -25 2 -24 -29 1 -24 3 -27 6
-11 5 27 23 29 23 2 0 -27 18 -25 23 3 l4 22 2 -22 c0 -13 5 -23 10 -23 10 0
9 55 -1 65 -3 3 -9 2 -12 -3z"/>
<path d="M4730 4219 c0 -39 1 -40 21 -25 14 9 33 13 51 9 28 -5 29 -4 26 23
-2 19 -10 30 -22 32 -14 3 -17 0 -13 -12 3 -8 2 -18 -2 -21 -5 -2 -11 4 -14
15 -3 12 -14 20 -26 20 -18 0 -21 -6 -21 -41z m30 11 c0 -5 -4 -10 -10 -10 -5
0 -10 5 -10 10 0 6 5 10 10 10 6 0 10 -4 10 -10z"/>
<path d="M4939 4258 c-1 -2 -3 -15 -5 -30 -2 -22 1 -28 16 -28 26 0 34 17 13
29 -10 6 -12 11 -5 11 17 0 15 20 -3 20 -8 0 -16 -1 -16 -2z"/>
<path d="M3092 4125 c-17 -38 -16 -61 2 -46 11 9 19 9 35 -1 12 -7 21 -17 21
-22 0 -5 11 1 24 13 l23 22 6 -22 6 -23 25 27 c21 23 25 24 29 9 4 -14 6 -13
12 5 l7 22 18 -22 c18 -21 20 -21 36 -5 16 16 18 16 30 0 12 -16 13 -15 23 8
6 16 10 19 10 9 1 -18 27 -33 42 -23 14 9 10 51 -6 57 -8 4 -16 3 -19 -1 -3
-5 -24 -7 -48 -5 -71 6 -102 3 -110 -10 -6 -9 -8 -9 -8 2 0 9 -9 12 -30 9 -17
-3 -33 -1 -36 3 -9 15 -34 -3 -35 -25 0 -17 -3 -15 -15 12 -17 39 -27 40 -42
7z m148 -19 c0 -3 -4 -8 -10 -11 -5 -3 -10 -1 -10 4 0 6 5 11 10 11 6 0 10 -2
10 -4z m90 -6 c0 -5 -4 -10 -10 -10 -5 0 -10 5 -10 10 0 6 5 10 10 10 6 0 10
-4 10 -10z"/>
<path d="M4210 4130 c0 -5 5 -10 10 -10 6 0 10 5 10 10 0 6 -4 10 -10 10 -5 0
-10 -4 -10 -10z"/>
<path d="M3210 3795 c0 -39 16 -48 23 -12 l4 22 2 -22 c1 -31 21 -29 21 2 0
14 -8 29 -19 35 -29 15 -31 13 -31 -25z"/>
<path d="M3540 3819 c0 -6 -6 -9 -14 -6 -7 3 -19 0 -25 -6 -15 -15 -14 -44 3
-50 24 -10 56 4 56 24 0 29 18 22 23 -8 4 -26 4 -26 6 4 1 23 -5 35 -18 43
-25 13 -31 13 -31 -1z m0 -40 c0 -11 -27 -12 -34 0 -3 4 -3 11 0 14 8 8 34 -3
34 -14z"/>
<path d="M3889 3812 c-14 -12 -20 -25 -16 -36 9 -22 37 -32 47 -16 7 11 11 11
24 1 8 -7 21 -9 27 -5 9 5 7 9 -6 14 -18 6 -17 7 3 12 12 4 20 2 17 -2 -3 -5
-2 -11 3 -13 4 -3 12 6 19 19 11 23 1 44 -12 24 -4 -7 -12 -7 -25 0 -13 7 -21
7 -25 0 -10 -16 -25 -12 -19 5 8 20 -9 19 -37 -3z m21 -27 c0 -8 -4 -15 -10
-15 -5 0 -10 7 -10 15 0 8 5 15 10 15 6 0 10 -7 10 -15z"/>
<path d="M3112 3808 c-26 -26 0 -70 31 -51 7 4 3 9 -9 14 -17 7 -17 8 -1 8 20
1 22 14 4 30 -10 8 -17 7 -25 -1z"/>
<path d="M3180 3791 c0 -17 5 -33 10 -36 6 -4 10 8 10 29 0 20 -4 36 -10 36
-5 0 -10 -13 -10 -29z"/>
<path d="M3283 3813 c-15 -6 -17 -49 -3 -58 6 -3 15 -3 21 1 8 4 7 9 -2 15
-11 7 -10 9 4 9 9 0 17 4 17 9 0 14 -24 29 -37 24z"/>
<path d="M3363 3813 c-7 -3 -13 -21 -13 -40 0 -35 0 -35 24 -20 16 11 26 13
34 5 18 -18 42 -1 41 29 l0 28 -11 -25 -11 -25 -5 23 c-2 14 -9 22 -17 19 -7
-3 -16 -2 -21 3 -5 4 -15 5 -21 3z m17 -28 c0 -8 -4 -15 -10 -15 -5 0 -10 7
-10 15 0 8 5 15 10 15 6 0 10 -7 10 -15z"/>
<path d="M3466 3813 c-9 -10 -7 -53 3 -53 11 0 21 49 11 55 -4 2 -10 2 -14 -2z"/>
<path d="M3613 3812 c-15 -10 -11 -57 5 -56 28 2 32 5 32 19 0 9 6 12 16 8 11
-4 12 -8 4 -13 -9 -6 -9 -9 0 -15 6 -4 17 -2 23 5 9 9 7 15 -8 27 -16 13 -17
15 -2 10 20 -7 24 8 3 16 -7 3 -18 1 -24 -5 -8 -8 -15 -8 -24 0 -8 6 -19 8
-25 4z"/>
<path d="M3717 3813 c-11 -10 -8 -51 4 -59 6 -3 16 -1 22 5 8 8 6 11 -8 12
-17 0 -17 2 4 10 19 8 21 12 11 24 -14 16 -23 19 -33 8z"/>
<path d="M3792 3808 c-16 -16 -15 -33 3 -48 11 -10 19 -10 27 -2 6 6 17 8 24
5 8 -3 14 1 14 10 0 9 3 23 7 32 5 15 3 16 -15 6 -14 -7 -23 -8 -27 -1 -8 13
-18 13 -33 -2z m28 -23 c0 -8 -4 -15 -10 -15 -5 0 -10 7 -10 15 0 8 5 15 10
15 6 0 10 -7 10 -15z"/>
<path d="M3073 3795 c-15 -16 -17 -45 -4 -45 5 0 14 14 20 30 11 32 4 38 -16
15z"/>
<path d="M4840 3730 c0 -5 6 -10 14 -10 8 0 18 5 21 10 3 6 -3 10 -14 10 -12
0 -21 -4 -21 -10z"/>
<path d="M3230 3670 c0 -33 3 -40 19 -40 11 0 23 5 27 11 4 8 9 7 15 -2 6 -10
9 -8 9 9 0 12 5 22 10 22 6 0 10 -9 10 -20 0 -27 18 -25 23 3 4 22 4 22 6 0 1
-15 7 -21 21 -20 17 1 20 8 19 42 -1 22 -3 33 -6 24 -3 -14 -12 -16 -45 -12
-25 4 -43 2 -47 -6 -5 -8 -14 -5 -29 9 -29 27 -32 26 -32 -20z m40 -4 c0 -3
-4 -8 -10 -11 -5 -3 -10 -1 -10 4 0 6 5 11 10 11 6 0 10 -2 10 -4z"/>
<path d="M3535 3689 c-11 -11 -21 -15 -23 -10 -5 16 -28 13 -42 -4 -15 -18 2
-45 27 -45 9 0 13 6 9 15 -3 8 -1 15 3 15 5 0 11 -7 15 -15 3 -8 15 -15 26
-15 17 0 20 6 20 40 0 45 -6 48 -35 19z"/>
<path d="M3600 3670 c0 -34 3 -40 21 -40 13 0 23 8 26 21 4 16 8 17 14 7 5 -7
6 -22 3 -33 -6 -18 -4 -18 9 -5 9 8 19 29 23 45 7 27 6 29 -9 16 -13 -10 -17
-10 -17 -1 0 7 -7 10 -15 6 -8 -3 -21 1 -29 9 -22 22 -26 19 -26 -25z m40 -10
c0 -5 -4 -10 -10 -10 -5 0 -10 5 -10 10 0 6 5 10 10 10 6 0 10 -4 10 -10z"/>
<path d="M3402 3668 c2 -17 8 -33 14 -35 7 -2 10 6 6 23 -3 19 -1 25 7 20 6
-4 11 -16 11 -27 0 -10 4 -19 9 -19 5 0 8 14 7 31 -1 27 -6 32 -29 35 -26 3
-28 0 -25 -28z"/>
<path d="M3125 3680 c-3 -5 0 -12 6 -16 8 -4 7 -9 -2 -15 -11 -6 -10 -9 4 -15
9 -3 24 -1 32 6 10 9 15 9 15 1 0 -6 9 -11 20 -11 16 0 20 6 19 33 -1 23 -3
26 -6 10 -5 -27 -23 -31 -23 -5 0 12 -9 18 -30 19 -16 1 -32 -2 -35 -7z"/>
<path d="M3180 3390 c0 -5 -7 -10 -15 -10 -8 0 -15 -4 -15 -10 0 -5 7 -7 17
-3 13 5 15 2 11 -15 -4 -12 -2 -22 3 -22 5 0 9 16 9 35 0 19 -2 35 -5 35 -3 0
-5 -4 -5 -10z"/>
<path d="M3121 3374 c0 -11 3 -14 6 -6 3 7 2 16 -1 19 -3 4 -6 -2 -5 -13z"/>
<path d="M3340 3380 c0 -5 5 -10 10 -10 6 0 10 5 10 10 0 6 -4 10 -10 10 -5 0
-10 -4 -10 -10z"/>
<path d="M3582 3360 c0 -19 2 -27 5 -17 2 9 2 25 0 35 -3 9 -5 1 -5 -18z"/>
<path d="M3801 3374 c0 -11 3 -14 6 -6 3 7 2 16 -1 19 -3 4 -6 -2 -5 -13z"/>
<path d="M5956 3374 c-43 -42 14 -112 63 -78 23 17 28 63 9 82 -17 17 -54 15
-72 -4z m58 -10 c20 -19 20 -38 1 -54 -21 -17 -55 -3 -55 24 0 21 17 46 31 46
4 0 15 -7 23 -16z"/>
<path d="M3093 3364 c-3 -8 -2 -19 3 -24 5 -5 9 1 9 16 0 28 -3 30 -12 8z"/>
<path d="M3232 3355 c0 -16 2 -22 5 -12 2 9 2 23 0 30 -3 6 -5 -1 -5 -18z"/>
<path d="M3303 3373 c13 -3 17 -11 13 -25 -3 -15 -2 -18 6 -10 15 15 2 42 -19
41 -17 -1 -17 -2 0 -6z"/>
<path d="M3400 3364 c0 -8 5 -12 10 -9 6 4 8 11 5 16 -9 14 -15 11 -15 -7z"/>
<path d="M3463 3364 c-3 -8 -1 -20 5 -26 8 -8 9 -5 5 11 -4 15 -1 21 12 21 13
0 16 -6 12 -21 -4 -16 -3 -19 5 -11 14 14 3 42 -17 42 -9 0 -18 -7 -22 -16z"/>
<path d="M3520 3343 c0 -21 4 -33 8 -27 4 6 14 14 22 17 12 4 11 6 -2 6 -10 1
-18 8 -18 17 0 10 6 14 15 10 8 -3 15 -1 15 4 0 6 -9 10 -20 10 -16 0 -20 -7
-20 -37z"/>
<path d="M3612 3355 c0 -16 2 -22 5 -12 2 9 2 23 0 30 -3 6 -5 -1 -5 -18z"/>
<path d="M3653 3373 c13 -3 17 -11 13 -25 -3 -15 -2 -18 6 -10 15 15 2 42 -19
41 -17 -1 -17 -2 0 -6z"/>
<path d="M3691 3353 c2 -25 2 -26 6 -5 3 15 10 22 19 18 8 -3 14 -1 14 4 0 6
-9 10 -20 10 -15 0 -20 -6 -19 -27z"/>
<path d="M3774 3354 c0 -13 4 -24 8 -24 4 0 8 9 8 19 0 11 -4 22 -8 25 -4 2
-8 -6 -8 -20z"/>
<path d="M3374 3359 c-3 -6 -2 -15 3 -20 5 -5 9 -1 10 11 2 22 -2 25 -13 9z"/>
<path d="M3060 3340 c0 -19 3 -21 12 -12 9 9 9 15 0 24 -9 9 -12 7 -12 -12z"/>
<path d="M3060 2914 l0 -139 112 3 c62 2 118 8 125 14 9 7 13 43 13 119 0 93
-2 109 -17 117 -10 4 -61 7 -113 6 -52 -1 -101 3 -107 8 -10 8 -13 -19 -13
-128z m25 -34 c3 -5 1 -10 -4 -10 -6 0 -11 5 -11 10 0 6 2 10 4 10 3 0 8 -4
11 -10z"/>
<path d="M3514 3027 c-2 -7 -3 -65 -2 -128 l3 -114 325 -3 c265 -2 327 0 335
11 6 8 8 59 5 128 l-5 114 -328 3 c-264 2 -329 0 -333 -11z m174 -89 c17 -17
15 -43 -5 -59 -10 -8 -14 -9 -10 -2 9 14 -9 27 -23 18 -8 -5 -7 -12 2 -23 12
-14 10 -14 -9 -3 -38 20 -25 81 17 81 9 0 21 -5 28 -12z m93 -4 c12 -15 11
-16 -9 -10 -18 6 -22 4 -22 -13 0 -23 16 -36 25 -21 4 6 10 8 15 5 4 -3 11 6
14 20 9 34 22 31 35 -6 14 -42 14 -44 -5 -28 -10 8 -18 9 -22 3 -10 -14 -53
-15 -69 -2 -17 14 -16 33 3 52 19 20 19 20 35 0z m104 -11 c7 -17 8 -16 15 2
7 15 9 11 9 -20 l1 -40 -19 24 -19 25 -5 -25 c-3 -17 -5 -13 -6 14 -1 39 12
50 24 20z m131 9 c-15 -3 -16 -6 -5 -13 12 -8 12 -10 0 -18 -11 -7 -10 -11 5
-20 17 -10 17 -11 -6 -9 -16 2 -26 10 -29 23 -3 19 -18 35 -33 35 -5 0 -8 -12
-8 -26 0 -24 2 -25 17 -13 14 12 16 12 11 -1 -8 -26 -37 -24 -44 4 -9 37 0 44
58 43 29 0 44 -2 34 -5z m52 -49 c14 -12 13 -13 -6 -13 -19 0 -22 5 -21 38 1
26 3 30 6 12 2 -14 12 -31 21 -37z"/>
<path d="M3637 2934 c-4 -4 -7 -17 -7 -28 1 -21 1 -21 15 -2 15 20 15 20 30 0
15 -18 15 -18 13 6 -3 25 -35 40 -51 24z"/>
<path d="M4842 2834 c9 -9 21 -13 27 -10 20 13 11 26 -16 26 -25 0 -26 -1 -11
-16z"/>
<path d="M4900 2470 c-18 -13 -28 -16 -37 -8 -15 12 -43 -6 -43 -28 0 -18 37
-37 45 -24 3 5 0 10 -7 10 -9 0 -9 3 2 10 10 6 17 5 23 -5 4 -8 17 -15 27 -15
17 0 20 7 20 40 0 22 -1 40 -2 40 -2 0 -14 -9 -28 -20z m7 -42 c-3 -8 -6 -5
-6 6 -1 11 2 17 5 13 3 -3 4 -12 1 -19z"/>
<path d="M4770 2445 c0 -28 4 -35 20 -35 11 0 20 6 20 14 0 8 3 22 7 31 5 14
2 16 -17 10 -15 -5 -20 -4 -16 4 4 6 2 11 -3 11 -6 0 -11 -16 -11 -35z"/>
<path d="M4966 2472 c-2 -4 -1 -14 4 -22 7 -11 12 -12 21 -3 6 6 8 16 5 22 -8
13 -23 14 -30 3z"/>
<path d="M5995 2130 c3 -5 8 -10 11 -10 2 0 4 5 4 10 0 6 -5 10 -11 10 -5 0
-7 -4 -4 -10z"/>
<path d="M1720 919 c-65 -20 -121 -74 -135 -132 -9 -36 9 -35 24 2 16 36 68
87 104 100 63 24 146 5 200 -46 15 -15 27 -23 27 -19 0 36 -80 92 -145 100
-22 3 -56 0 -75 -5z"/>
<path d="M3333 914 c-77 -28 -146 -136 -127 -197 6 -18 9 -14 18 24 18 68 51
115 100 138 75 37 149 24 215 -38 41 -39 46 -39 26 -1 -34 66 -152 104 -232
74z"/>
<path d="M4955 914 c-22 -8 -54 -29 -72 -46 -33 -32 -60 -84 -49 -95 3 -3 7
-4 9 -2 2 2 15 23 30 46 57 89 172 109 262 45 25 -17 45 -28 45 -23 0 18 -70
70 -107 80 -49 14 -69 13 -118 -5z"/>
<path d="M521 714 c0 -11 3 -14 6 -6 3 7 2 16 -1 19 -3 4 -6 -2 -5 -13z"/>
<path d="M3549 614 c-43 -46 -97 -67 -169 -66 -61 0 -63 0 -40 -13 58 -33 162
-6 213 54 23 28 34 51 24 51 -2 0 -14 -12 -28 -26z"/>
<path d="M5165 617 c-41 -64 -151 -88 -230 -52 -22 11 -44 21 -50 24 -5 2 -3
-4 5 -14 23 -27 90 -55 135 -55 22 0 58 9 80 19 55 25 119 101 85 101 -5 0
-16 -10 -25 -23z"/>
<path d="M1880 575 c-54 -29 -112 -37 -165 -21 -58 18 -66 15 -28 -10 43 -28
121 -30 171 -5 38 19 58 38 50 46 -1 2 -14 -3 -28 -10z"/>
<path d="M6199 543 c-13 -16 -12 -17 4 -4 16 13 21 21 13 21 -2 0 -10 -8 -17
-17z"/>
</g>
</svg>
