<?xml version="1.0" standalone="no"?>
<!DOCTYPE svg PUBLIC "-//W3C//DTD SVG 20010904//EN"
 "http://www.w3.org/TR/2001/REC-SVG-20010904/DTD/svg10.dtd">
<svg version="1.0" xmlns="http://www.w3.org/2000/svg"
 width="488.000000pt" height="94.000000pt" viewBox="0 0 488.000000 94.000000"
 preserveAspectRatio="xMidYMid meet">

<g transform="translate(0.000000,94.000000) scale(0.100000,-0.100000)"
fill="#000000" stroke="none">
<path d="M479 759 c-79 -56 -146 -103 -148 -105 -2 -2 176 -4 395 -4 l400 0
145 101 c79 56 146 103 148 105 2 2 -176 4 -395 4 l-400 0 -145 -101z" fill="#f16a22"/>
<path d="M1562 552 c-56 -169 -102 -311 -102 -315 0 -4 24 -7 54 -7 l53 0 24
80 24 80 103 0 c67 0 102 -4 102 -11 0 -6 9 -42 21 -80 l21 -69 59 0 c39 0 59
4 59 12 0 9 -176 550 -197 606 -3 7 -26 12 -62 12 l-56 0 -103 -308z m193 50
c19 -66 35 -126 35 -131 0 -7 -29 -11 -76 -11 -68 0 -76 2 -72 18 25 89 73
250 76 248 1 -2 18 -57 37 -124z" fill="#003F5B"/>
<path d="M2040 545 l0 -315 60 0 60 0 0 315 0 315 -60 0 -60 0 0 -315z" fill="#003F5B"/>
<path d="M3910 608 c0 -139 5 -269 10 -289 18 -65 83 -102 158 -91 29 4 32 7
32 42 0 34 -2 38 -27 38 -47 0 -53 22 -53 184 l0 148 40 0 40 0 0 45 0 45 -40
0 -40 0 0 65 0 65 -60 0 -60 0 0 -252z" fill="#003F5B"/>
<path d="M2354 712 c-85 -40 -129 -129 -127 -255 2 -94 37 -167 99 -203 38
-22 53 -25 114 -22 l70 3 0 -33 c0 -24 -9 -42 -30 -64 -29 -29 -34 -30 -88
-25 -31 3 -69 9 -84 12 -24 6 -29 3 -41 -26 -8 -19 -12 -37 -10 -41 15 -27
202 -40 258 -18 17 6 42 23 58 38 49 47 57 99 57 374 l0 248 -27 12 c-16 6
-68 13 -118 15 -72 3 -98 0 -131 -15z m154 -229 l-3 -178 -46 -3 c-33 -2 -52
2 -71 17 -63 50 -64 252 -1 316 21 20 36 25 75 25 l48 0 -2 -177z" fill="#003F5B"/>
<path d="M2767 715 c-21 -7 -41 -15 -43 -18 -4 -3 11 -47 22 -65 1 -2 25 4 53
14 56 18 125 15 147 -8 8 -7 16 -28 20 -45 6 -28 3 -33 -17 -37 -110 -21 -139
-29 -173 -49 -59 -34 -81 -69 -81 -132 0 -61 21 -98 76 -130 45 -27 213 -28
273 -2 l38 17 -4 177 c-4 204 -13 235 -77 271 -31 18 -55 22 -117 22 -44 -1
-96 -7 -117 -15z m203 -314 c0 -109 -1 -111 -65 -111 -79 0 -118 49 -96 120
12 42 30 55 96 76 67 21 65 24 65 -85z" fill="#003F5B"/>
<path d="M3195 715 c-22 -8 -41 -15 -42 -15 -2 0 -3 -106 -3 -235 l0 -235 60
0 60 0 0 209 0 209 28 5 c15 3 39 3 53 0 23 -4 27 -1 33 27 3 18 6 36 6 41 0
14 -152 9 -195 -6z" fill="#003F5B"/>
<path d="M3440 719 c0 -6 34 -115 75 -242 41 -126 75 -236 75 -243 0 -8 -16
-52 -35 -98 -19 -47 -35 -90 -35 -95 0 -7 24 -11 58 -11 l58 0 112 343 c62
188 112 345 112 350 0 11 -98 8 -105 -3 -4 -6 -28 -86 -55 -178 l-47 -167 -15
50 c-8 28 -30 107 -48 178 l-33 127 -59 0 c-35 0 -58 -4 -58 -11z" fill="#003F5B"/>
<path d="M4220 716 l-35 -13 -3 -236 -2 -237 60 0 60 0 0 209 c0 230 -3 221
64 221 19 0 45 -9 60 -21 l26 -20 0 -195 0 -194 60 0 60 0 0 200 0 199 31 17
c40 20 93 11 114 -19 12 -17 15 -57 15 -209 l0 -188 60 0 60 0 0 188 c0 213
-11 254 -72 292 -45 27 -156 27 -216 0 -43 -20 -44 -20 -82 0 -31 16 -58 20
-132 19 -51 0 -109 -6 -128 -13z" fill="#003F5B"/>
<path d="M182 337 l-143 -102 396 -3 396 -2 145 101 c79 55 144 103 144 105 0
2 -179 4 -397 3 l-398 0 -143 -102z" fill="#f16a22"/>
</g>
</svg>
